<svg xmlns="http://www.w3.org/2000/svg" viewBox="0 0 468 329.69"><title>アセット 1</title><g id="レイヤー_2" data-name="レイヤー 2"><g id="レイヤー_1-2" data-name="レイヤー 1"><path d="M55.92,247.61v8.7H35.79v66.11H26.1V256.31H5.22v-8.7h50.7m0-5.22H5.22A5.25,5.25,0,0,0,0,247.61H0v8.7a5.25,5.25,0,0,0,5.22,5.22H20.63v60.89a5.25,5.25,0,0,0,5.22,5.22h9.69a5.25,5.25,0,0,0,5.22-5.22V261.53H55.67a5.25,5.25,0,0,0,5.22-5.22v-8.7a4.65,4.65,0,0,0-5-5.22Z" style="fill:#221714"/><path d="M111.35,247.61c12.43,0,22.37,6,22.37,20.38a22.18,22.18,0,0,1-15.16,20.88l18.39,30.32-8.2,5-19.14-33.8H95.69v32.06H86V247.61h25.35m-15.66,34h12.68c9.44,0,15.41-5.22,15.41-13.92,0-6.71-4-11.68-12.68-11.68H95.69v25.6m15.66-39.52H86a5.25,5.25,0,0,0-5.22,5.22v74.81A5.25,5.25,0,0,0,86,327.4h9.69a5.25,5.25,0,0,0,5.22-5.22V295.83h5.47L124,326.9a5.32,5.32,0,0,0,7.21,2,.24.24,0,0,0,.25-.25l8.2-5a5.24,5.24,0,0,0,1.74-7.21h0L126,291.11a27.75,27.75,0,0,0,12.92-23.36c.25-15.66-10.44-25.35-27.59-25.6Zm-10.44,19.39H111.1c5,0,7.46,2,7.46,6.46,0,7.7-7.21,8.45-10.19,8.45h-7.46V261.53Z" style="fill:#221714"/><path d="M200.07,247.61l23.61,73.32-9.44,3.48-7-22.37H180.69l-7,22.37L164,320.93l23.61-73.32h12.43m-16.9,45.73h21.37L193.86,258.8l-10.69,34.55m16.9-51H187.65a5.3,5.3,0,0,0-5,3.73l-23.61,73.07a5.48,5.48,0,0,0,3.23,6.71l9.44,3.48a5.27,5.27,0,0,0,6.71-3.23v-.25l6-18.64h18.89L209,325.66a5.2,5.2,0,0,0,6.71,3.48H216l9.44-3.48a5.48,5.48,0,0,0,3.23-6.71L205,246.12a5.3,5.3,0,0,0-5-3.73Zm-9.69,45.73,3.48-11.18,3.48,11.18Z" style="fill:#221714"/><path d="M292.78,245.88l9.2,3.48-28.58,75.06h-1.74l-28.83-75.31,9.2-3.48,20.38,54.93,20.38-54.68m.25-5.47a5.41,5.41,0,0,0-5,3.48l-15.41,41.51-15.41-41.51a5.44,5.44,0,0,0-7-3.23l-9.2,3.48a5.44,5.44,0,0,0-3.23,7h0l28.83,75.06a5.41,5.41,0,0,0,5,3.48h1.74a5.07,5.07,0,0,0,5-3.48l28.83-75.06a5.51,5.51,0,0,0-3-7h0l-9.2-3.48a6.18,6.18,0,0,0-2-.25Z" style="fill:#221714"/><path d="M380.27,247.61v8.7h-37v22.37H373.8v8.7H343.23V314h37v8.7H333.54V247.61h46.73m0-5.22H333.54a5.25,5.25,0,0,0-5.22,5.22v74.81a5.25,5.25,0,0,0,5.22,5.22h46.73a5.25,5.25,0,0,0,5.22-5.22v-8.7a5.25,5.25,0,0,0-5.22-5.22H348.45V292.6H373.8a5.25,5.25,0,0,0,5.22-5.22v-8.7a5.25,5.25,0,0,0-5.22-5.22H348.45V261.53h31.81a5.25,5.25,0,0,0,5.22-5.22v-8.7a5,5,0,0,0-5.22-5.22Z" style="fill:#221714"/><path d="M423.76,247.61v66.11H463v8.7H414.32V247.61h9.44m0-5.22h-9.69a5.25,5.25,0,0,0-5.22,5.22v74.81a5.25,5.25,0,0,0,5.22,5.22h48.71a5.25,5.25,0,0,0,5.22-5.22v-8.7a5.25,5.25,0,0,0-5.22-5.22H429V247.61a5.1,5.1,0,0,0-5.22-5.22Z" style="fill:#221714"/><g id="Ribbon"><path d="M72.33,110.17,336.77,32.38Zm73.32,39.77ZM459.8,82.58l.75-.25c0,3-.5,2.49-3,3.23a6.62,6.62,0,0,1-3,.75c-.25-.25-.75-.5-1-.25a57.54,57.54,0,0,0-9.2,3.23,18.2,18.2,0,0,1-6.21,2c-.5.75-1,.75-1.49-.25a6.7,6.7,0,0,1-2,1.74c-1.24,1-2,1.74-3.23.75-.5,0-1,.5-1.49.75a4.83,4.83,0,0,0-2.24,3.48c1.49.5-.75,6-1,7.46-.25,2.73.75,4.47.25,7.21-1,5.22-1.74,10.44-2.73,15.41-.25,2-.25,3.73-2.24,2.24-.75-.5-1.49-1.24-2.24-1.74-1.49-1.49-2-3.48-3.73-4.72s-11.18-6-9.44-8.7a1.17,1.17,0,0,0-1.49.25,4.46,4.46,0,0,1-1.74-1.24,14.42,14.42,0,0,0-3-2.49,26.76,26.76,0,0,1-6-4.47,40,40,0,0,1-7.46-5.22A42.73,42.73,0,0,0,379,96c-.75-.5-2.24-1-2.24-2a5.71,5.71,0,0,1-3.48-1,55,55,0,0,1-8.45-4.47,33.63,33.63,0,0,0-8.45-4.23c-1.74-.5-6.46-2.73-6.71-4.47-2.24,1.49-1.49-.75-2.73-1-.5,1.74-2.73,0-3.73-.25a58.19,58.19,0,0,1-11.43-4.72c1.74-.25,7.21-7,7.21-8.7a21.9,21.9,0,0,0-5.47,6.21c-1.74,3.48-3.73,2.24-6.46,1.24s-6.71-3-9.94-3c-.5,0-2.49,0-3-.75-1.49,0-2,.75-2.24-1a3.67,3.67,0,0,1-4-1.74c-1.24.25-3.73-.75-4.72.25-1.49-.5-8.45-.5-8.45-2-1.49.5-2.49,0-4,0s-2.24-1.74-3.48-1a5.2,5.2,0,0,1-4.72-.75,7.78,7.78,0,0,0-4.72-.5c0-.5,1-4.23-.25-2.49a.24.24,0,0,1,.25.25l-1.49,1.49c-2,.25-3.23-1.24-5.22-.75s-5.72.75-7-1c-1,.75-1,1-2,0-.5.25-1.49,1-1.74,0,.75.5.75,0,.75-.75-.75.5-1.24,1-.5,1.74-2,1-4.72-1.49-6.71-1.49s-2.73,1-5,0a27.21,27.21,0,0,1,2.49-2.73c-1.74-1-2,2.73-2.73,3a15.61,15.61,0,0,1-4.72.75c-2.24-2.49-10.44-.5-13.42,0A89.29,89.29,0,0,1,219,61c-2.73,0-6.46-1.24-8.7,1a4.2,4.2,0,0,1-2.49.75,21.38,21.38,0,0,1-4,.25c-1.74-.25-1.74.5-3.23,1.49s-2.49.5-4,.25c-3.48-.5-6.21,2.49-9.44,2.24-1.49-.25-4.23,1.49-5.22.25-.75.5-3,3-4,1.49-.75,2.49-7,2.24-8.7,2.49s-6,.75-6.71,1.74c-1.49,2-5.22,2.24-7.46,3.23-1.24.5-5,4-6.21,2,.25.5.5.25.75-.5-.5,0-4,4.23-4.72,2.24-3,2-6,2.73-8.7,4.47l.5-1c-.75-.5-3.23,2-3.73,2.49-1.24-1.24-1.24-.25-2.24,1a2.64,2.64,0,0,0-2,.25c-2,1-3.73,2.24-5.72,3.23-1.24.75-2,.25-3.48,1.24,0,1.74-2.49,2.49-3.48,3s-3,1.74-4.23,2.24c-3,1-5,4.23-7.7,5.47-3.73,2-7,4.47-10.44,6.71-1.49,1-2.49,2.73-4,3.73-1.24.75-2,.75-2.73,1.49-2.73,2.49-5.72,4.23-8.2,7.46-1,1.24-5.22,5.72-6.46,4.23.75,2.49-3,4.72-4.47,6.21-1.49-.75-1.24-3.23-1.49-4.72a26.89,26.89,0,0,1,0-4.47,10.42,10.42,0,0,0-1-4c-.5-2.24-1-5.72.5-7-1-1.74-1,1.49-1.24-1.74a4.23,4.23,0,0,0-.25-1.74s-.25-2-.25-2.24a8.83,8.83,0,0,1-.5-2.49,19.39,19.39,0,0,0-1-5.47c-.5-2.24-3-2.24-2.24-3.73a4.73,4.73,0,0,1-4.72-1.24c-1.49-1-1.49-1.49-3.23-1.74a10.57,10.57,0,0,1-2.73-.5c-1.49-.5-3.73-2.24-5-2a10.92,10.92,0,0,1-5.47-1.74c-1.74-1-11.43-.25-8.7-4.23a32.86,32.86,0,0,1,7-6.21c3.23-2.49,5.72-6.21,9.69-7.7.75.75,5-5.22,6-6q8.95-6.34,18.64-11.93c3.48-2,6-5,9.2-7a11,11,0,0,1,5.47-2.49,6.09,6.09,0,0,0,4-1.49c6.21-4.72,13.17-6.46,19.63-10.44a41.38,41.38,0,0,1,5.72-3c1.49-.75,3-.5,4.72-1.49s6.71-4.72,8.95-2.49c1.74-1.24,14.91-8.2,16.16-6,3.48-3.48,8.95-3.23,13.42-5,2.49-1,5.47-.25,8.2-1.24,1-.25,4.23-1.24,4.47,0l6-3.73c-.25-.5.5,2,.25,1.49.75-3,3.48-2.49,6-2.73a18.81,18.81,0,0,0,3.73-.25,7.44,7.44,0,0,0,2-1c1.24,1,5.22-.5,6.71-1a6.88,6.88,0,0,1,3.23-.75c1.49-.25,1.74,1.49,2.24-.75a4.85,4.85,0,0,0,3.73,0c1,1.24,2.49,0,4,0S212,3.3,213,2.55a5.2,5.2,0,0,1,4.23-1c2.24,1.49,4.72-.75,7.46-.25s5.47-1.49,8-.25l-.5,1A6.94,6.94,0,0,1,236.61.57c1.49.25,3,0,3.73.75A10.28,10.28,0,0,1,245.06.07a26,26,0,0,0,4.23,1c.5,0,1.74-.75,2.49-.75.25,0,4.23-.75,3.48.5.25.25,1.74-.5,2.24-.5a12.1,12.1,0,0,0,3-.25c1.74-.25,4,.25,6,.25,3,0,4.23.75,6.71.5,1.74-.25,6.21-.5,6.46,1.74a16.07,16.07,0,0,1,7.7-.25,28.9,28.9,0,0,1,4.47,1c1.49.5,3-.5,3.23,1.24l1.49-.75c.75,2.24,3-1.49,3.48,1.49,1-.5,3-.75,3.73.5.5.75,3.48.5,4.47.25,1.74-.25,2.73,1.24,4.47,1.24s3.23-.25,4.23.75a53.28,53.28,0,0,1,18.64,4c3,1.49,6.71,1.49,9.69,3s6.71,2.49,9.94,4c2.49,1.24,6.71,2,8.7,4,1.49,1.24,4.72,0,5.22,3,3.23-1.74,7,.25,9.69,2.24,1,.75.5,1.49,1.74,1.49.5,0,.75.25,1.24.5,1,.5,2,.75,2.49,1.74-1.24.5-1,.75-1,2.24,1-.5,2.73-4.72,3-1.24,2.49-1.49,13.42,3.73,12.18,6,1.49-.5,1.74,0,3,1l-3,3.23c2.24.75,2.49-3.73,4.47-2.73,1.24.5,3.48,1,2.49,3,1.49-.75,2.24-1,2.24,1.24,2-1,4,.5,5.22,2a6.7,6.7,0,0,1,1.74,2c1.24.5,2.73.5,2,2.24L418,50c0,2,3.23,1,3.23,3.48,4-2.73,8,6,11.68,6.21-.75,1.49,0,.75-.5,2.49,1.49-.5.75-2.24,2.49-.5.75.75,2.73,2.24,2.24,3.73a.24.24,0,0,1,.25.25c0,.25-1.49.25-.75.75-.5.5-2.73,1.49-2,3q-.37-.75-.75.75c.75,0,1.74-2.49,2-3a.24.24,0,0,1,.25.25c.75-1,1.74-1.74,2.49-2.73a9.73,9.73,0,0,1,2.49,2c1.74,1.74,2.49,1.74,1.49,4.72,1.49,0,1.24-2,3-1a6.7,6.7,0,0,1,2,1.74c1.24,1.24,3.73,2,3.73,4.23-.75-.5-1,.25-1.74.25.75.5,1,.25,1,1.49.75-1,1-2.49,2.24-1.49s1.49,1.74,2.73,2.49a6.12,6.12,0,0,1,4.23,3.48c-.75-.5-.75.25-.75.75l.75-.75ZM35.29,84.08c.25-.5,0-.75-.25-.5,0,.25,0,.5.25.5Zm1-1.49c0-.75-.25,0,0,0Zm1.24-1.49c.75.25.75,0,.5-.75a3,3,0,0,0-1.24,1.24c1.24.25.5-.75.75-.5Zm3.73-3.73v-.75c-.25,0-.25.75,0,.75ZM43,85.07c.25-.5,0-.75-.25-.5,0,.25,0,.5.25.5Zm-.25-9.44c.5.25.5,0,.25-.5-.25-.25-.25,0-.25.5.25,0,0-.25,0,0Zm1-2c.5.25.75.25.5-.25-.25-.25-.5,0-.5.25Zm2.24,8-.75.5c.75.25.75.25.75-.5Zm.25,4.23.5-.75c-.75-.5-1-.25-.5.75-.5-.5-.75-.25-.75,0,.75,0,.5-.5.75,0,0-.25-.25,0,0,0Zm1.24-1.49c.25-.5,0-.75-.25-.5a.87.87,0,0,0,.25.5Zm3.23-3.23v-.75c-.25,0-.25.75,0,.75Zm.75-14.42c0-1-.25,0,0,0Zm2,6.21c0,.25.75,0,0,0Zm-1.24,8.7c.5.25.75.25.5-.25-.5,0-.5.25-.5.25Zm.75-2.49a.48.48,0,0,1,.25-.75c-.75.25,0,0-.25.75-1-2.49-.75,1.74-.75.5.25-.25.5-.75.75-.5Zm.25,1.74c.5.25.75,0,.5-.75l-.5.75Zm6-19.14c-.5,0-.5,0-.25.5.5,0,.5,0,.25-.5Zm-1,1.24-.75.25c.5.25.75.25.75-.25Zm-2.73,25.1h.5c0-.5-.5-.5-.5,0Zm1.49,2c0-.25-.75,0,0,0Zm.5-.5c0-1-.25,0,0,0ZM59.9,66.18c.75.25.75,0,.5-.75-.5.5-.25,1-.5.75.25,1.24-5,3.48-5.22,5.47,1-.25,6.21-4.47,5.22-5.47Zm2.24-2.49-.5.75c.5.25.75.25.5-.75.5.5.75.25.75,0-1,0-.5.25-.75,0Zm.75,20.38-.75.25c.5.25.5.25.75-.25Zm-1.49,1c0,1,.25,0,0,0s0,.25,0,0ZM62.88,95c.25-.25,0,0-1-.5.5.5.25.75-.5.25.5.75,1.49,1.24,1.49.25Zm2.49-35.29c1,.5.75,0,.75-.5Zm-.25,33.06c0,.25,1,0,0,0Zm-1-37V57c.75-.25.75-1.24,0-1.24-.25.25-.25,0,0,0Zm.25,5-.5.75c.75.25.75,0,.5-.75.5.5.75.25.75,0-1-.25-.5.25-.75,0Zm-.25,26.84h.5c0-.25-.75-.25-.5,0,0,.25-.25,0,0,0Zm.5-7.7a.24.24,0,0,0,.25-.25c-.75.75.25-.75-.75,1,.25-.25.75-.25.5-.75Zm.75,32.81a.48.48,0,0,1,.25-.75,5.2,5.2,0,0,0-1,1.49c.25-.25.5-1,.75-.75h0c-.25,0-.25-.25,0,0Zm.25-26.59c.5.25.75.25.5-.25-.5-.25-.75,0-.5.25s-.25,0,0,0Zm.5-7.7c0-.25-.25-.5-.75-.25.25.25.25.5.75.25Zm35.79-34c0,.75.25,0,0,0Zm0,8.7c-.25.5,0,.75.25.5,0-.25,0-.5-.25-.5Zm-.5-7.7V46c.25,0,.25-.75,0-.75Zm.25,2.49c-.75,0-1-.5-1,.5l1-.5c-.75,0-.5.25,0,0Zm-1-9.44h0c-.25.25,0,0-.5.75.25-.25,1-1.24,1-1.24,0,.5-.25.5-.5.5Zm-1.74,9.2v.75a1.33,1.33,0,0,0,.75-1c-.25,0-.25.25.25-.75-.5.5,0,.25-.5.75,0,.25-.25,0-.5.25s.25,0,0,0Zm0,23.11v-.5c-.25,0-.25.5,0,.5Zm1-1.49c-.25.25.75,0,.75-.75a1.86,1.86,0,0,0-.75.75Zm-.25-24.11,1-.5c-.75,0-1-.5-1,.5.25-.25,0-.25,0,0Zm.5-10.19a.24.24,0,0,0-.25.25c.5-.75-.25,0,.5-.5,0-.25.25.5-.25.25Zm-1.24,1.49.75-.5c-.75-.5-.75,0-.75.5Zm-.75,3.48c.5.5.25.75-.75.5.25.25,2-.5,2-.75s-.5.5-.5,0c0,.5-.25.5-.75.25C97.43,39.34,98.42,39.84,98.17,39.84Zm-.75,31.81c-.25-.5-.5-.25-.75.5,1,.25.5-.25,1-.75a.24.24,0,0,0-.25.25ZM96.18,59.22h.5c0-1-.5-.75-.5,0,.25,0,0-.25,0,0Zm.5-11.93v-.5a.25.25,0,0,0,0,.5Zm-1.24-4.72c0,.5.25.5,1,.25,0-.5-.25-.5-1-.25Zm0,18.64c-.75,0-1-.5-1,.5l1-.5c-.5-.25-.5,0,0,0Zm-1-10.94c0,.5.25.5.5.25,0-.25,0-.25-.5-.25C94.45,50.52,94.69,50.52,94.45,50.27Zm0-12.68a.48.48,0,0,1-.25.75c.25-.25,1-1.24,1-1.24a3.08,3.08,0,0,0-.75.5h0C94.45,37.35,94.2,37.85,94.45,37.6Zm-1.49,5c0,.5,0,.5.75.25a.91.91,0,0,0-.75-.25c0,.25.25,0,0,0Zm1,6.21c-.5,0-.5,0-.25.5.25.25.25,0,.25-.5-.25,0-.25.25,0,0Zm-2,1.74V51a.24.24,0,0,0,.25-.25c.25-.25,0-.25-.25-.25ZM90.72,64.19v.5a.25.25,0,0,0,0-.5ZM90,52.76l-1,.5c.75,0,1,.25,1-.5C89.72,53,90,53,90,52.76Zm-.75,4.72.5-1c-.5.25-1,.25-.5,1ZM88,57.23c0,.75.25,0,0,0Zm-.5.25c-.5,0-.5,0-.25.5.5.25.5,0,.25-.5s0,.25,0,0ZM87.24,55c-.5-.25-.75,0-.5.5l.5-.5ZM86,69.16c.5.25.5.25.5-.75Zm-.25-12.92c0,1,.25,0,0,0Zm0,6.21v.75a.37.37,0,1,0,0-.75ZM86,65.19c-.5,0-.5,0-.25.5.25,0,.5,0,.25-.5Zm-2.49,6.46c0,1,.25,0,0,0Zm-.25,5.47,1.49-1.49c-1.74-.25-.75.25-1.24-.5-.25.25,0,.5.25.5s-.25,1.49-.5,1.49Zm1.24,4.47c-.25,0-.5.25-.25.75.5.25.5,0,.25-.75s.25.25,0,0Zm-1,2c.5,0,.25-.5,0-.5v.5Zm0,15.91c-.25,0,0,.75,0,0,.25-.25.25,0,0,0Zm-3-49.71L81,49c-.5-.25-.5-.25-.5.75ZM80.78,52a.24.24,0,0,0-.25.25l.75-.75c-.25-.5-.25.75-.5.5Zm.5,5.47c-.25,0-.5,0-.25.75.5,0,.5,0,.25-.75ZM79.53,97.75c.5.5.5.5.5,1.24.75-1.24,1.24-.75.5-2.49l-1,1.24C79.53,98,79.78,97.5,79.53,97.75Zm-1-15.41.5-.5c-.25-.25,0,.25-.25.25s-.5,0-.25.25Zm-.25-21.13-.75.25c.75,0,.75,0,.75-.25Zm0,47.72h-.75a.37.37,0,1,0,.75,0ZM77.3,52c-.25.5,0,.75.25.5,0-.25,0-.5-.25-.5Zm0,44c-.25.5,0,.75.25.5,0-.25,0-.5-.25-.5Zm.5,10.94c-.75-.5-1-.25-.75.25.75.5,1,.25.75-.25-.25,0,.25.25,0,0Zm-1-23.11c.5.25.75,0,.25-.75-.5.25-.5.5-.25.75.25,0,0-.25,0,0ZM77,81.34c-.5-.25-.75,0-.5.75l.5-.75Zm-.5-5.47h-.5c0,.5.5.5.5,0-.25,0,0,.25,0,0Zm0,34.3c-1.24-.25,0,2.49,0,0ZM75.06,85.32c.75,0,0-.25,0,0Zm.25,17.15c-.25,0-.25,0-.25.75.25,0,.5,0,.25-.75Zm-.25-52.19c0,1,.25,0,0,0s0,.25,0,.25Zm-.75,27.34.75-.25c-.5,0-.75,0-.75.5Zm.25,34.55c-.25,0-.25.25-.25.75.5,0,.5-.25.25-.75C74.31,111.17,74.56,112.41,74.56,112.16Zm-.5-32.31c-.25-.25-.5,0-.25.25.5-.75-.25,0,.5-.5-.25-.25-.25-.25-.25.25Zm.25,6.71-.5.25a.87.87,0,0,1,.5-.25c.25,0,0-.25,0,0Zm-.5-9.69c-1.24-.25-1,.5-1.49,1.49,1,.25,1-.25,1.49-1.49-.5-.25-.25.5,0,0ZM72.08,96l.75-.25c-.75-.25-.75-.25-.75.25Zm.25-42.5,0,0c-.5.5,0,.5,0,0Zm-.25,28.08c-.5,0-.5,0,0,.5v-.5C71.83,81.59,72.08,81.84,72.08,81.59Zm-.75-27.34v1c.5,0,.5-1,0-1Zm0,21.37c-.25.5,0,.75.25.5,0-.25,0-.5-.25-.5Zm.5,12.43-.5-.5a1.36,1.36,0,0,0,1,1.49l-.5-1Zm-5-29.82c0,1,.25,0,0,0Zm0,27.09v-.75c-.25,0-.25.5,0,.75Zm0-7.46c.25-.75.25-1-.25-1-.25.5,0,1,.25,1Zm3.23-22.37a9.73,9.73,0,0,0-2.49,2c1.24.25,2.24-.5,2.49-2-1,.75-.25,1.49,0,.25Zm-.75,22.12c0,.25.25.5.5.25,0-.5-.25-.5-.5-.25Zm.5,20.63c-.5-.25-.75-.25-.5.25s.5,0,.5-.25ZM68.35,93l.5-.75c-.75-.25-.75,0-.5.75.25-.25,0-.25,0,0Zm.5-10.19c.25,0,0,.25.25-.25,0,0-1,.5-1,.75l.75-.5Zm.25,6c-.25,0,0,.75,0,0Zm0,23.36c0-.25-.75,0,0,0,.25.25,0,.25,0,0Zm.5,5v-1c-.5,0-.5,1,0,1,.25-.25.25.25,0,0Zm0-16.65c-.5-.25-.75-.25-.5.25Zm.5-9.94a.24.24,0,0,0,.25-.25c-.25.5-2.24,1.49-1,2-.5.75.25-2.24.75-1.74.25-.25,0-.25,0,0Zm.5,16.4h.75a.53.53,0,0,0-.5-.5c-.25,0-.25.25-.25.5.5,0,.25-.25,0,0Zm.75,10.19h.5c0-.5-.5-.5-.5,0,.5,0,.25-.25,0,0Zm.75-7c.25,0,.5.25.75.25-1-1.24-1-.5,0-1.74-.25,0-1,.75-1.49,1.24.75,0,1.24,0,.75.25Zm.75,4h.5c0-.5-.5-.5-.5,0,.25-.25,0-.25,0,0Zm0-2h.5c0-.5-.5-.25-.5,0Zm0-6.71h.5c0-.5-.5-.5-.5,0,.25-.25,0-.25,0,0Zm1,5.47c0,.25.25.5.75.25-.25-.25-.25-.25-.75-.25Zm0,4.23,1-.5c-1,0-1-.25-1,.5.25-.25,0-.25,0,0Zm1-5.72h1c-.25-.5-1.24-.5-1,0Zm1,4.72v-.75c-.25,0-.25.75,0,.75Zm1,.75a.48.48,0,0,1,.25-.75h0c-.25.25-1,1.24-1,1a1.09,1.09,0,0,0,.75-.25Zm2.73-2.24c0-1.74-1.24,0-1.24-1.49-1.24.5-2.73,1-.75,2.24.25-1.24.75-1,2-.75C79.53,112.41,79,112.66,79.53,112.66Zm.25-1L81,110.42c-.75.25-1.24,0-1.24-.75l-1,1,1,1c.5-.5-.25-.25,0,0Zm.75-2.73.75-.25c-.5-.5-.75-.25-.75.25Zm1-11.43c0-.25-.75,0,0,0Zm0-5.47s-2.24-.25-1.49,1.74c.25-.25,1.24-1.74,1.49-1.74s0,.25,0,0Zm.25,0c.5.25.75,0,.5-.75-.5.25-.5.5-.5.75s-.25-.25,0,0Zm1-7.46v-.5l-1,.5h1c0-.25-.25,0,0,0Zm-2-4.47a13,13,0,0,0,2.49-2.73c-.25-.25-.75-.5-1-.75.25.5.5.25.75-.5-.75,0-1.24,1.74-1.49,2-.75-1-.75.75-.75.75-.5-.5,0-.5-1,.25.75-.25,1,.25,1,1C81.52,79.11,80.53,79.6,80.78,80.1Zm3,25.35c.75.25.75,0,.5-.75a3.58,3.58,0,0,0-.5.75c0,.25,0,0-.5.75.25,0,.75-.5.5-.75Zm1-11.43a.24.24,0,0,0,.25-.25c-.5.75.25,0-.5.5.25.25,0-.5.25-.25ZM85,90c.5,0,.5,0,.25-.5-.25-.25-.25,0-.25.5C85.25,90,85,89.79,85,90Zm.75-15.16c.25.25.5,0,.25-.25-.75.5,0,0-.25.25-.25.5,0,.25,0,0Zm.75,13.67c-.5-.25-.75,0-.5.75l.5-.75Zm-.25,16.65h.5c0-.5-.75-.5-.5,0Zm.5-12.92-.75.25c.75.25.75,0,.75-.25ZM87,81.59v-.75a.37.37,0,1,0,0,.75Zm-.25-1.49c.5.25.75.25.5-.25-.5-.25-.5,0-.5.25C87,80.1,86.74,79.85,86.74,80.1Zm0-15.66c.5.25.75.25.5-.25s-.5,0-.5.25Zm.75,8.95c-.5,0-.5,0-.25.5.5.25.5,0,.25-.5Zm-.25,6c1,0,0-.25,0,0Zm1,16.16c.25-.75,0-.75-.75-.25.25.25.5.5.75.25h0c0-.25-.25,0,0,0Zm0-22.37.5-.75c-.75-.25-.75,0-.5.75.25-.5,0-.5,0,0Zm0-18.64h.5c0-.25-.5-.25-.5,0,.25,0,.25-.25,0,0Zm0-6.71h.5c0-.5-.5-.5-.5,0,.25-.25.25-.5,0,0ZM89,98.49l.75-.75c-.75-.25-1-.25-.75.75.25-.5,0-.5,0,0Zm0-39c.75,0,1,.25.75-.75l-.75.75c.5-.25.5-.5,0,0Zm1.49,16.16c.5.25.75.25.5-.25-.25-.25-.5-.25-.5.25Zm1-18.39v-.75a.37.37,0,1,0,0,.75Zm0-2.49V54a.37.37,0,1,0,0,.75v0Zm.5,1.74V56a.24.24,0,0,0-.25.25l.25.25h0v0Zm.75,17.65c0-.25-.25-.5-.75-.25,0,.25.25.25.75.25v0Zm-.5-20.88c.5.25.75,0,.5-.5l-.5.5s.25-.5,0-.25ZM93,46c.25-.5,0-.75-.25-.5,0,.25,0,.5.25.5s0-.25,0-.25ZM93.7,62.7c0-1-.25,0,0,0Zm0-8.7c1,2.24.5-2,.5-.75a3.58,3.58,0,0,0-.5.75c0,.25,0,0-.5.75.75-.5,0-.25.5-.75Zm.75,28.58c0,.75-.25.75.75,1a3.43,3.43,0,0,0-.75-1q.37.37.75-.75c-1-.25-.75.75-.75.75Zm0,4,.75-.25c-.75-.25-.75-.25-.75.25Zm.75,8.2a.24.24,0,0,0,.25-.25c-.75.75.25-.75-.75,1,.25,0,.75,0,.5-.75Zm0-15.91.25-.5c-.5.5-.5,1-1,1.24.25.25.75-1,.75-.5v-.25Zm.75,12.43c.25-.5,0-.75-.25-.5,0,.5,0,.5.25.5Zm.5,9.69-.5.75c.75,0,.75,0,.5-.75Zm1.24-17.65s.5-.25.5-.5-.25.5-.5.5,0-.25,0,0Zm1.24,15.91-1,1c1,.5,1.24.25,1-1-.25.25,0,.25,0,0Zm-.5,3h.5c0-.5-.75-.5-.5,0,.25-.25,0-.25,0,0Zm.75-19.88c.25-.5,0-.75-.25-.5,0,.25,0,.5.25.5s0-.25,0,0Zm-.25-3.23.75-.5c-1.74-1-2,1.49-2.73,2l-.25-.25c-.75,0,0,.75,0,1-.25-.5-.5-.25-.75.5.5,0,2.24-2.24,3-2.73.25-.5-.25,0,0,0Zm.75,22.37v-.75c-.25,0-.25.75,0,.75v0ZM99.91,98c.5.25.75.25.5-.25-.5,0-.5,0-.5.25v0Zm0-19.88.5-.5-1-.75.5,1.24c.5-.5,0-.5.25-.25Zm-1.49-4,2.73-2.49c-1.24-.25-3.48,1.74-3.23,2.49-.25.75.5-.75-.25.75.5-.25.5-.5.75-.75,1-1.24.25-.25.25-.25Zm3.48-3.48c0-.25-.75,0,0,0,.25-.5,0-.5.25-.25Zm-.5-3.23c1.24.5,1.49.25,1-1.24a10.81,10.81,0,0,0-1.74,1.49.91.91,0,0,0,.75-.25Zm.75-25.1.5-.5c-.5-.25-.5,0-.5.5Zm10.69-3.48c-.5,0-.5,0-.25.5.5,0,.5,0,.25-.5Zm-4.72-1.74v.75c.5,0,.5-.5,0-.75Zm-1.49,5c-.5.75.25.5,0,0Zm-.5.75a.24.24,0,0,1,.25-.25A.24.24,0,0,0,106.13,42.82Zm-1.24-9.2v.75a.37.37,0,1,0,0-.75Zm-.25,30.82V63.7l-.75.75h.75c-.25-.25-.25,0,0,0Zm-1-21.37c.25,0,0-1,0,0Zm.75-3c0,1,.25,0,0,0Zm-.75.25v.75a.37.37,0,1,0,0-.75Zm.75,32.81c.5.25.75,0,.5-.25-.5,0-.5.25-.5,0,0,.25-1.24,1.49-1.24,1.49h1.24V73.14Zm.25-25.85c.5.25.75,0,.5-.75l-.5.75Zm.5,29.58h.5c0-.5-.5-.25-.5,0Zm.5-3c.5,0,.5,0,.25-.5-.25,0-.25.25-.25.5.25.25.25,0,0,0Zm1.74,1c.5,0,.5,0,.25-.5-.5,0-.5,0-.25.5.25,0,0-.25,0,0Zm.75-20.63c.5,0,.5,0,.25-.5-.5-.25-.5,0-.25.5s0-.25,0,0Zm-.75-8.45a24.88,24.88,0,0,1,2.24-2.49c0,.25-.5.75-.5,0-.25.5-2.49,2-3,2.49h1.24c.5-.5-.5,0,0,0Zm1.49,7h.5c.25-.5-.5-.5-.5,0,.5.25.25,0,0,0Zm.5,15.91c-.25,0-.5.25-.25.75.5,0,.5-.25.25-.75C109.11,67.67,109.36,68.92,109.36,68.67Zm.5,13.67c0-.25-.25-.5-.75-.25,0,.5.25.5.75.25Zm.25-.75c0-.25-.75,0,0,0Zm1.24-22.87-.75.5c.75.25.75,0,.75-.5Zm0-23.86c0-.25-.25-.5-.75-.25,0,.5.25.5.75.25s-.25,0,0,0Zm1.49,41c0-.25-.25-.5-.75-.25.25.25.5.5.75.25,0-.25-.25,0,0,0Zm4-22.37h-.5c0,.5.5.5.5,0Zm0,10.44c-.5,0-.5,0-.25.5.25.25.5,0,.25-.5-.25,0,0,.25,0,0Zm-1.74-36.29-.5.75c.75.25.75,0,.5-.75-.25.25,0,.25,0,0Zm-.25,10.94h-.75c-.25.75.75.75.75,0Zm-1,9.44c-.5,0-.5,0-.25.5.25,0,.5,0,.25-.5Zm.5,38c0-.25-.25-.5-.75-.25,0,.5.25.5.75.25Zm1-1v-.5a.24.24,0,0,0-.25.25c-.25.25,0,.25.25.25Zm.25-44.49.5-.75c-.75-.5-1,0-.5.75-.5-.75-.75-.25-.75.5,0-.75.25-1,.75-.5,0-.25-.25,0,0,0Zm1.24,42.5c0-.25-.25-.5-.75-.25,0,.25.25.5.75.25Zm-.25-51.2c.5,0,.5,0,.25-.5-.5-.25-.5,0-.25.5Zm13.17,9.94.75-.5c-.75-.5-.75,0-.75.5Zm1,11.18c-.25,0-.5.25-.25.75.25.25.5,0,.25-.75-.5-.75,0,.25,0,0Zm-2.24-29.08c-.5-.25-.5.25-.25,1,.5,0,.5-.5.25-1-.5-1,0,.25,0,0ZM128,44.06h-.5c0,.5.5.5.5,0ZM128,59c-.5-.25-.75,0-.5.75L128,59Zm-6-28.33c.75,0,0-.25,0,0Zm.25,10.94c-.5-.25-.5.25-.25,1,.5,0,.5-.25.25-1Zm0,9.94c0,.25.25.5.75.25,0-.5-.25-.5-.75-.25s.25-.25,0,0Zm-1-26.1v.5l1-.5h-1C121.29,25.67,121.54,25.42,121.29,25.42Zm-.75,1v.5a.24.24,0,0,0,.25-.25l-.25-.25ZM119.8,36.6c-.25.5,0,.75.25.5,0-.5,0-.75-.25-.5Zm0,17.4a2.68,2.68,0,0,0-.75,1.74l1.49-1L119.8,54c-.25.5.25.25,0,0Zm-1.74,2.49c-.25.5,0,.75.25.5.25-.5.25-.75-.25-.5S118.3,56.49,118.06,56.49Zm-.25,6.71c.25-.5,0-.75-.25-.5s0,.5.25.5C117.81,63,117.56,63.2,117.81,63.2Zm.25-24.61-.5.25c.5.5.5.5.5-.25Zm.25,48c.75.25.75,0,.5-.75-.25.5-.5,1-.5.75,0,.25,0,0-.5.75.5,0,.75-.5.5-.75s.25,0,0,0Zm.75-17.65.75-.25c-.75,0-.75,0-.75.25Zm1,14.42c0-.25-.75,0,0,0Zm-.5-5.47.5,1.24.75-1.24c-.5,0-.75,0-.5-.75-.5.25.75,1-.75.75.25.75.5.25,0,0Zm1.24-15.16c.5.25.75,0,.5-.75l-.5.75Zm-.25,20.63,1-.75h-1.24l.25.75c.25-.25,0-.5,0,0Zm1-17.4a.24.24,0,0,0,.25-.25c-.5.75.25,0-.5.5.25.25,0-.5.25-.25s.25-.25,0,0ZM121,53.75h.75a4.85,4.85,0,0,0-.25-2c-.25.75-1.24,1-.5,2,.25,0,0-.25,0,0Zm1,34.55c.5,0,.5,0,.25-.5-.5,0-.5.25-.25.5.25.75,0-.25,0,0Zm1.24-1.24c.75-.75,0-.75-.75-.75l.75.75Zm2-60.4c-1,.25-1.24,1.24-1.24,2.24,1-.75,1.24-.75,1.24-2.24-1.24.25,0,.75,0,0ZM124,85.57h.75a.53.53,0,0,0-.5-.5c-.25,0-.25.5-.25.5Zm1.24-1V83.08a1.36,1.36,0,0,0-1,1.49h1c0-.5-.5,0,0,0Zm.75-6.71v-.75c-.25,0-.25.75,0,.75Zm0-5.22V71.9c-.25,0-.25.75,0,.75Zm0-20.13.25-.75a5.2,5.2,0,0,0-1,1.49c.25-.25.5-1,.75-.5.25-.75,0,.25,0-.25Zm0-9.44c.5.25.75.25.5-.25-.5,0-.75,0-.5.25Zm.75,34c0-1-.25,0,0,0Zm-.5-51.45h.5v-1l-.5,1ZM127,67.42c0,.5.25.5.5.25,0-.25-.25-.5-.5-.25Zm2,13.17.5-1.74c-1,1-2.49,1.74-2.24,3.48L129,80.6C129.24,79.85,128.49,81.09,129,80.6Zm.25-26.1.5-.75c-.75-.25-.75,0-.5.75Zm-.75-10.69c1,0,.75-.75,1.24-1.24l-1.24-.75v2c1,0,0-.5,0,0ZM130.23,59a.24.24,0,0,0,.25-.25c-.5.75.25,0-.5.5.25.25-.25-.5.25-.25.25.25-.25,0,0,0Zm.5,14.17c.25-.5,0-.75-.25-.5,0,.25,0,.5.25.5Zm32.06-46.48c-.5-.25-.75,0-.5.25s.75,0,.5-.25ZM162.54,48a.24.24,0,0,0-.25.25c.5-.75-.25,0,.5-.5-.25-.25,0,.5-.25.25Zm-1.24-3.73v1c.5.25.5-1,0-1Zm-1.24-21.13v.5l1-.5Zm.5,20.88v-.75q-.75.75,0,.75c0-.5-.25-.25,0,0Zm-.75-14.66v.75c.25,0,.25-.75,0-.75Zm0,11.93c-.25.5,0,.75.25.5,0-.25,0-.5-.25-.5Zm-.75,10.19c0,1,.25,0,0,0Zm-1.49-31.07c-.5,0-.5.25-.25.5.5,0,.5,0,.25-.5ZM156.83,13v.5a.25.25,0,0,0,0-.5Zm-.25,1a2.9,2.9,0,0,0-1.49,1.49c.5-.25,2.24-.5,1.49-1.49Zm.5,7.46c-.75,0,0,.25,0,0Zm-1.49,1.49c.5.25.75,0,.5-.75l-.5.75Zm.5,11.18v-.75q-1.12,1.12,0,.75c0-.25-.25,0,0,0Zm-2.24-8.7.5-.5c-.25-.25,0,.25-.25.25S153.6,25.17,153.85,25.42Zm-.25,10.69c-.5,0-.5,0-.25.5.5,0,.5,0,.25-.5Zm-1.49-17.89.5-.25c-.5-.25-.5-.25-.5.25Zm0,4.47h-.5c0,.5.5.5.5,0Zm-1.49,6.71c-.75.25-1,0-.75,1l.75-1c-.5,0-.25.5,0,0Zm-1.74-8.7v.75a.37.37,0,0,0,0-.75c0,.25.25,0,0,0Zm-.5,13.17v.75c.25,0,.25-.75,0-.75Zm-1-11.43c.25.25,0,.75-.25,1,.75-.75,0-.5.25-1,1,1.24.75-.75.75-.75,0,.25-.5,1-.75.75Zm.25,10.19c-.5-.25-.75,0-.5.25.75,0,.5-.75.5,0,0-.25.25-.25.75-1-1,0-.75,0-.75.75Zm-1.49,1.49.75-.25c-1-.25-1-.25-.75.25ZM145.89,50v.75q1.12-1.12,0-.75c0,.25.25,0,0,0Zm.25,11.18c-.5,0-.5,0-.25.5.5.25.5,0,.25-.5s0,.25,0,0Zm.25,2c-.5-.25-.75,0-.5.75l.5-.75Zm0-11.18c-.5-.25-.5-.25-.5.25Zm-1.24-21.37c0,.75.25,0,0,0Zm0,7-.25.5c.25-.25,1-1.24,1-1.24-.5,0-.75.5-.75.25,0,.5,0,0,0,.5Zm0,14.17v-.5c-.5-.25-.5.5,0,.5.25-.5,0-.25,0,0Zm-.5-16.4c-.5,0-.5-.25,0,0a3.54,3.54,0,0,1-1-.5c.25.25,1.24,1.24,1,1.24,0-.5-.75-.75,0-.75Zm-1,4.23c0-.5-.5-.5-.5,0ZM144.4,16a4,4,0,0,0-1,1.74c1.24.25,1-.25,1-1.74-.5.75,0,.75,0,0Zm-1.49,1.74c0,1,.25,0,0,0Zm.75,14.42-1,.5c.75,0,1,.25,1-.5Zm-2.73,7c0,.25.25.5.75.25-.25-.5-.5-.5-.75-.25Zm0,4.47c0,.25.25.5.75.25-.25-.5-.5-.5-.75-.25Zm-3,10.19c-.5-.25-.75,0-.5.75l.5-.75Zm-2-20.88c0,.25.25.5.75.25-.25-.5-.25-.5-.75-.25C135.21,33.13,136.2,32.88,136,32.88Zm-.75,12.18c-.25,1,0,1.24.75,1-.25-.25.25-1-.75-1C135.45,45.55,136.2,45.06,135.21,45.06Zm0,8.45-.75,1c.75-.25,1,0,.75-1C135,53.75,135.21,53.75,135.21,53.51Zm-1,15.91c-.5-.5-.75-.25-.75.25l.75-.25ZM133,37.6v.5l1-.5h-1c0,.25.25.25,0,0ZM133,61c-.25.75,0,.75.75.25,0-.25-.5-.25-.75-.25Zm-1-13.42v.75c.5-.25.5-.75,0-.75.25,0,.25-.25,0,0Zm0,18.64c0,.25.25.5.75.25,0-.5-.25-.5-.75-.25s.25,0,0,0Zm.5,14.66v-.5a.24.24,0,0,0-.25.25c-.25.25,0,.25.25.25-.25-.25-.25,0,0,0Zm.5-.5c0-1-.25,0,0,0s0-.25,0,0Zm0-4.47c0-.25-.25-.5-.75-.25,0,.5.25.5.75.25,0-.25-.25-.25,0,0Zm1.24-4.72c-.75,0-.5.75-.5,0,0,.25-.25.25-.75,1,0,0,1.49.5.75-.5A.49.49,0,0,0,134.21,71.15Zm.25,3.23c-.75,0-.75,0-.75.25Zm.75,5.22c.5.25.75.25.5-.25-.25-.25-.5,0-.5.25Zm0-7H136a3.15,3.15,0,0,0-1.49-.25c.5.5.25.25.5,1l.25-.5c0-.25-.75,0,0-.25ZM136,49l.75-.5c-1-.25-.75,0-.75.5Zm1,6.21c.25-.5,0-.75-.25-.5-.25.5-.25.75.25.5Zm0,22.87.75-.25c-.5-.5-.75-.25-.75.25Zm1.24-16.65c0-.25-.25-.5-.75-.25,0,.5.25.5.75.25Zm.75-1.74-.75,1c.75-.25,1,.25.75-1,0,.5.25.5,0,0Zm.75,15.91c0-.25-.25-.5-.75-.25.25.25.25.5.75.25Zm0-16.4c.5.25.75.25.5-.25-.25-.25-.5,0-.5.25s.25,0,0,0Zm.25-3.23c0,.5.25.5.75.25.25-.5,0-.5-.75-.25-.75.75.5.25,0,0Zm.5,10.69a9.91,9.91,0,0,0,1-.75,9.91,9.91,0,0,0-1,.75Zm1,13.42c0-1-.25,0,0,0Zm0-6.21c0-.25-.25-.5-.75-.25,0,.25.25.5.75.25Zm.75,5.22c.25-.5,0-.75-.25-.5,0,.25,0,.5.25.5.25-.25.25,0,0,0Zm-.75-10.69,1-.5c-.75,0-1-.5-1,.5.25-.25,0-.25,0,0Zm.5-16.16a1.94,1.94,0,0,0,2.24-1.49c-1.24-.5-1.24,1.49-2.24,1.49,1.24.5,1,0,0,0Zm1.74,3.48c0-.25-.25-.5-.75-.25,0,.5.25.5.75.25s-.25,0,0,0Zm0-1,.75-.25c-.5-.75-.75-.5-.75.25.25-.25,0-.25,0,0ZM139.93,52a19.78,19.78,0,0,0,5-5.22c-1.24-.75-4.72,4.47-5,5.22,0-.25-.75-.25-.5.25.5,0,.5,0,.5-.25Zm5.47,26.59c0-.25-.25-.5-.75-.25,0,.25.25.5.75.25.5-.5-.25,0,0,0Zm.75-4.23c.5,0,.5,0,.25-.5-.5-.25-.5,0-.25.5Zm0-4.47c.5.25.75,0,.5-.25-.75,0-.5.75-.5,0,0,.25-.25.25-.75,1,.75,0,.75,0,.75-.75Zm1-25.35h-.5l.75,2c.5-1,0-1.24-.25-2-.25,0,0,.5,0,0Zm.5,15.91c0-.25-.25-.5-.75-.25,0,.5.25.5.75.25Zm0-12.68c0-.25-.25-.5-.75-.25,0,.25.25.5.75.25Zm1,11.68c.25-.5,0-.75-.25-.5,0,.5,0,.75.25.5s-.25,0,0,0Zm1.49,9.44c-.5,0-.5.25-.25,1,.5,0,.5-.5.25-1-.25-1,0,.25,0,0Zm-.25-11.18.75-.25c-.5-.75-.75-.25-.75.25C150.12,57.73,149.87,57.48,149.87,57.73Zm.75,17.89c-.75-.5-.75,0-.75.5Zm-.25-32.31.5-1.74a6.31,6.31,0,0,0-2.49,2c-.5-.5,0-.5-.75.25,1.24.75,1-.75,2.73-.5.25-.75-.25,0,0,0Zm.5-14.42c1.24-.5,1.24,0,1.24-2-1.24,0-1.24,1-1.24,2,.5,0,0-.5,0,0Zm.75,30.57h.5c0-.75-.5-.5-.5,0Zm.5-19.14a.24.24,0,0,0,.25-.25c-.75.75.25-.75-.75,1,.5-.25,1-.25.5-.75C152.35,40.08,152.11,40.08,152.11,40.33Zm.5.75c0,.5.25.75.75.25,0-.5-.25-.5-.75-.25-1,.5.25,0,0,0Zm.5,11.18c.25-.5,0-.75-.25-.5,0,.5,0,.75.25.5Zm0-4.23c.75.25.75,0,.5-.75a.88.88,0,0,0-.5.75c0,.25,0,0-.5,1a1.88,1.88,0,0,0,.5-1c-.25-.25,0-.25,0,0Zm.5-8c0,.25.25.5.75.25,0-.25-.25-.5-.75-.25s.5,0,0,0Zm0,10.94.75-.25c-.5-.25-.5-.25-.75.25Zm0,20.88,1-.5c-.75,0-1-.25-1,.5.5-.25.25-.25,0,0Zm.75-48c.5.25.75.25.5-.25-.25,0-.5,0-.5.25s.25,0,0,0Zm.75,26.1c0-1-.25,0,0,0s.25-.25,0,0Zm.25,11.18c.5.25.75,0,.5-.75l-.5.75Zm1-13.42a.24.24,0,0,0,.25-.25c-.5.75.25,0-.5.5.25.25,0-.5.25-.25Zm.25-15.16c.75,0,0-.25,0,0Zm.5,29.33c.5.25.75,0,.5-.25s-.75,0-.5.25Zm.5-2.49c0-.25-.25-.5-.75-.25,0,.25.25.5.75.25.75-.5-.25,0,0,0ZM157.33,54c.5,0,.5,0,.25-.5-.5-.25-.5,0-.25.5.25,0,0-.25,0,0Zm.75-27.59v-.75c-.25,0-.25.75,0,.75Zm1,39c.25-.5,0-.75-.25-.5,0,.25,0,.5.25.5Zm-.5-8.45h.75a.53.53,0,0,0-.5-.5.87.87,0,0,0-.25.5Zm2.24-1v-.75a.37.37,0,0,0,0,.75Zm-.5-3.73.75-1h-1.49l.75,1c.25-.5-.25-.5,0,0Zm1.24,3c.25-.5,0-.75-.25-.5,0,.5,0,.5.25.5Zm0-33.8c0,.5.25.5.5.25,0-.25,0-.25-.5-.25,0,.25.25,0,0,0Zm.5,9.94-.5.5c.5.25.5.25.5-.5Zm0-6.46c.25-.5,0-.75-.25-.5-.25.5,0,.75.25.5ZM162.3,51l.75-1c-1,.25-1,0-.75,1,.25-.25,0-.25,0,0Zm13.42-34.55V17c.5,0,.5-.5,0-.5.25.25.25,0,0,0Zm-.5,4L176,20C175,19.46,175.22,20,175.22,20.45Zm-2,6.71a.24.24,0,0,0-.25.25c.5-.75-.25,0,.5-.5-.25-.25,0,.5-.25.25Zm-1.49,12.18c.5.25.5.25.5-.25ZM172,29.15c.25,0,0-1,0,0Zm.25,22.62h-.5c0,.5.5.5.5,0Zm0-24.11-.5.25c.5.25.5.25.5-.25Zm-1.49-11.18,1-1.24c-1,0-1,0-1,1.24Zm0,13.67c-1.49,0-1.24-.5-1.24.75.25,0,1.49-.25,1.24-.75Zm0,11.18c0-.5-.25-.5-.5-.25,0,.25,0,.5.5.25-.25-.25-.25,0,0,0ZM170,10.51V11a.24.24,0,0,0,.25-.25l-.25-.25h0c-.25,0-.25-.25,0,0Zm-.75,13.92c.25.25-.25.25,0,.5.25-.5.75-.25.75-1-.5.25-.25,1-.75.5Zm-1-4.47a13.79,13.79,0,0,0-1.49,2c1.24-.5,1-.5,1.49-2-1,.5-.5.5,0,0Zm-.5,12.68c-.5,0-.5,0-.25.5.5,0,.5-.25.25-.5Zm-.5,6.71c-.25,0-.5.25-.25.75.25,0,.25-.25.25-.75-.5-.75-.25.25,0,0Zm-1.49,8.2.25-.25s-.5,0-.25.25ZM164,37.1c.5.25.5.25.5-.25Zm-.5-13.17v.5c.5,0,.5-.75,0-.5Zm.75,18.39c-.5.25-.75.5-.75,1.49.25-.75,1-.75.75-1.49ZM164,68.42c.5.25.75.25.5-.25-.5,0-.75,0-.5.25s-.25,0,0,0Zm.5-15.16h.5c.25-.5-.5-.5-.5,0Zm.75-30.82c0,.25.75,0,0,0Zm0,22.87c0-1-.25,0,0,0Zm0-9.2v-.75c-.25,0-.25.75,0,.75ZM166,52.26c0-.25-.25-.5-.75-.25.25.25.25.25.75.25Zm-.25-5c.5-.5,0-.5,0,0,.25-.25,0-.25,0,0Zm0-18.89c.5,0,.5,0,.25-.5-.5,0-.5.25-.25.5Zm.5,38v-1c-.5,0-.5,1,0,1Zm.75-6-.75,1.24c.5,0,.75-.25.75-1.24Zm.75-.5h.5L168,59l-.25,1Zm.5-10.94c.25,0,0-1-1.24-.25l1.24,1V49c0-.5.25.25,0,0ZM169,59c.5,0,.5,0,.25-.5-.5,0-.5,0-.25.5C169.26,59.72,169,58.72,169,59Zm.5-10.44c.5-1.24,1.49-1.24.75-2.49-.75.5-.5,1-1.49,1l.75,1.49c.25-.5,0-.75,0,0Zm1,8.95-.25-.5a.24.24,0,0,0-.25.25.77.77,0,0,0,.5.25Zm0,3.48a.48.48,0,0,1,.25-.75c-.25.25-1,1.24-1,1.24.5-.25.75-.75.75-.5.25,0,0-.25,0,0s.5-.25,0,0Zm.25-4.72h.75a.53.53,0,0,0-.5-.5c-.25,0-.25.25-.25.5ZM172,66.18v-.75a.37.37,0,0,0,0,.75c.25-.25.25,0,0,0Zm.5-8a.24.24,0,0,0,.25-.25c-.5.5-.75.5-.75,1.49,0-.25.25-1.49.5-1.24Zm.25-44.49-.75.5c1,.5,1,0,.75-.5ZM173.48,49c0-.25-.25-.5-.75-.25,0,.5.25.5.75.25Zm.75,8.45c.25-.75.25-1-.25-1-.25.75,0,1,.25,1,.25-.25.25,0,0,0Zm0-20.38v-.5l-1,.5Zm0,10.19.75-.5c-.5-.5-.5,0-.5.5Zm1,8.95v-.75a.37.37,0,0,0,0,.75c.25-.25.25,0,.25,0Zm.5-.75c0-1-.25,0,0,0h0Zm0-20.13c.5.25.75,0,.5-.75l-.5.75Zm1,5.22c-.5,0-.5,0-.5.25Zm.25-25.1v.75c.25,0,.25-.75,0-.75Zm0,38c.5,0,.5,0,.25-.5-.5,0-.5.25-.25.5ZM188.39,16c0,1,.25,0,0,0Zm-.75-6.21c0,1,.25,0,0,0ZM186.9,19c-.25.5,0,.75.25.5,0-.5,0-.75-.25-.5s0-.25,0,0Zm0,5.72c-.25-.25-.5,0-.5.25.5.25.75,0,.5-.25Zm-3-10.69c0,.75.25,0,0,0Zm-3,0c0,.25.25.5.75.25-.25-.5-.25-.5-.75-.25-.25,0,0-.25,0,0Zm0,15.41h-.5c0,.5.5.5.5,0Zm0,23.86c-.5,0-.5.25-.25.5.25,0,.25-.25.25-.5ZM178.45,14l-.5.75c.5.25.75,0,.5-.75.5.25.75.25.75-.25-1,0-.5.5-.75.25Zm.75,17.4-.25-1q-.75.75,0,.75c.25-.25,0,0,.25.25Zm-1.49,1c0-1-.25,0,0,0s0-.25,0,0Zm.25,6.71c.5.25.75.25.5-.25-.5,0-.5,0-.5.25Zm.5-2.73-.25-1c.5.75.75.25.75-.5a3,3,0,0,0-1.24,1.24l.75.25c0-.5-.25-.25,0,0Zm.75.5-.5.5c.25,0,.25,0,.5-.5Zm-.5,27.34h.25c0-.5-.5-.25-.25,0Zm0-3,.5-.25c-.75-.25-.75-.25-.5.25Zm0-18.14.75-.25c-.5-.75-.75-.25-.75.25,0-.25-.25-.25,0,0Zm.75-35.54V6.78a.37.37,0,0,0,0,.75C179.45,7.28,179.2,7.53,179.45,7.53Zm.5,52.19c-.5.75.25-.25-.5.5.25.25,0-.25.25-.25s.5-.25.25-.25Zm0-29.08c.25,0,0-1,0,0Zm.25-9.94c0-.5,0-.5-.75-.25,0,.25.5.25.75.25.25-.25-.25-.25,0,0Zm.75,41.75c0-.25-.25-.5-.75-.25,0,.5.25.5.75.25Zm.5-.75c0-.25-.25-.5-.75-.25.25.5.25.5.75.25.75-.25-.25,0,0,0Zm0-45.23c0,.25.75,0,0,0Zm0,33.8c.5,0,.5,0,.25-.5-.5-.25-.5,0-.25.5S181.43,50,181.43,50.27Zm1-14.66c0-.25-.25-.5-.75-.25,0,.5.25.5.75.25Zm0-20.13.75-.25c-.5-.5-.75-.25-.75.25Zm.75,40.26c0-.75-.25,0,0,0Zm0-23.11h.5c0-.5-.75-.5-.5,0Zm.75,22.87v-.75a.37.37,0,0,0,0,.75Zm.5-30.57a.24.24,0,0,0,.25-.25,3.43,3.43,0,0,0-.75,1c.25.25.25-1,.5-.75Zm.25,13.17c0,.25.25.5.75.25,0-.5-.25-.5-.75-.25Zm.25,15.66h.5l-.25-1-.25,1Zm1.49-9.2h.5c0-.5-.5-.25-.5,0Zm0-13.92c.5,0,.5,0,.5-.25-.5,0-.75.5-.75.25,0,.25.25,0-.25,1,.5-.5,0-.5.5-1,.25,0,0,.25,0,0Zm.75,2.24a.24.24,0,0,0,.25-.25c-.5.75.25,0-.5.5.25.25,0-.5.25-.25Zm.5-8.95c.5,0,.5,0,.25-.5-.5-.25-.5,0-.25.5s0-.25,0,0Zm.75,18.89c.25-.5,0-.75-.25-.5s0,.5.25.5ZM188.64,61h.5c0-.25-.5-.25-.5,0Zm.5-22.62V37.6c-.75.25-.75,1,0,.75Zm1,2c-.5,0-.5.25-.25.5s.5,0,.25-.5c-.25,0,0,.25,0,0Zm0,24.11V63.7a.37.37,0,0,0,0,.75c0-.25-.25,0,0,0Zm0-15.66c.25-.75,0-.75-.75-.25,0,.25.5.25.75.25Zm.25-34.8c.25.25.5,0,.25-.25-.5.75.25,0-.5.5.25,0,.25,0,.25-.25Zm.25,49.71V63c-.25,0-.25.75,0,.75Zm.75-28.08-.75.25C191.38,36.11,191.38,36.11,191.38,35.61Zm.5-7.21c0-.5-1,0,0,0,0-.25-.25,0,0,0Zm.5-12.92c1,1,.5-.75.5-.75a3.58,3.58,0,0,0-.5.75c0,.25,0,0-.5.75.75-.5.25-.25.5-.75Zm.75,43.25c.25-.5,0-.75-.25-.5-.25.5,0,.5.25.5,0-.25-.25,0,0,0Zm-.25-12.92c.25,0,.5-.25.25-.75-.5,0-.5.25-.25.75s0-.5,0,0Zm-.25-11.43h.5l-.25-1-.25,1Zm.5-8.7q.37.75.75-.75-1.12-.37-.75.75c-.25-.25-.75,0-.5.25.5,0,.5-.25.5-.25Zm.75,31.81c.25-.5,0-.75-.25-.5-.25.5,0,.75.25.5Zm.75-1.24h.5c0-.75-.5-.5-.5,0,.25,0,0-.25,0,0Zm1.24-15.41c-.75-.25-.75,0-.75.25Zm1,8-.75.5c1,.25.75,0,.75-.5Zm.25,8a.24.24,0,0,0,.25-.25c-.5.75.25,0-.5.5.25.25,0-.5.25-.25.5.25.25,0,0,0Zm.5-17.65c-.75-.5-.75,0-.75.5Zm3.23-8.7c0,.25.25.5.75.25,0-.5-.25-.5-.75-.25S201.07,30.39,200.82,30.39ZM200.57,14c0,.75.25,0,0,0s0-.25,0,0Zm-.75.75c0,.25.75,0,0,0ZM198.33,37.1c0,1,.25,0,0,0Zm.75,11.18v-.75c-1,0-.5.25-.75-.5-.25.5.5,1.24.75,1.24.25-.25-.25-.25,0,0Zm0-1.49c0-.25-.25-.5-.75-.25.25.5.5.5.75.25Zm0-5c0-.25-.25-.5-.75-.25.25.25.5.5.75.25Zm0,12.68h.5c.25-.5-.5-.5-.5,0Zm.75-13.92c0,.25.75,0,0,0Zm.5,4.72c-.5,0-.5,0-.5.5Zm0-10.44c.25.25.5,0,.25-.25-.5.75.25,0-.5.5.25.25.25.25.25-.25s.25.25,0,0Zm1,21.62-.75.5c1,.5,1,0,.75-.5Zm0-12.18c-.75-.25-.75,0-.75.25ZM202.06,20c0,.25.75,0,0,0Zm.25,12.43c-.5,0-.5.25-.25,1,.5.25.5,0,.25-1Zm0,23.36-.75.25c.75.25,1,0,1-.25Zm0-36.29h.5c0-.5-.5-.5-.5,0h0Zm.75,12.68v-.75a.37.37,0,0,0,0,.75c.25-.25.25,0,.25,0Zm0-5.22v-.75c-.5.25-.5.75,0,.75.25-.25.25,0,.25,0ZM212.75,11c-.5,0-.5.25-.25.5.5,0,.5,0,.25-.5.25,0,.25.25.25,0ZM212,6.53v.75a.37.37,0,0,0,0-.75c.25.25.5,0,.25,0Zm-.5-3H211c0,.5.5.25.5,0Zm-6.21-.5-.75,1c.75-.25,1-.25.75-1C205,3.3,205.29,3.3,205.29,3.05Zm-1.24,51c0-.75-.25,0,0,0Zm.25-29.33.25.5a.24.24,0,0,0,.25-.25c0-.25-.25-.25-.5-.25Zm1,13.92-.75.5c1,.25,1-.25.75-.5Zm.5-8.95c.25-.5,0-.75-.25-.5-.25.5-.25.75.25.5,0-.25-.25,0,0,0ZM206,55.49c.5,0,.5,0,.25-.5-.25,0-.25,0-.25.5.25,0,0-.25,0,0Zm0-17.89.25.5a.24.24,0,0,0,.25-.25c0-.25-.25-.5-.5-.25ZM206,52c.5,0,.5-.25.25-.5s-.25,0-.25.5c.25-.25,0-.5,0,0Zm-.5-27.84H207l-.75-1.49a1.77,1.77,0,0,0-.75,1.49c.25,0,0-.25,0,0Zm1.49-2,.5-.25c.25-.25-.5-.25-.5.25.25-.25,0-.25,0,0Zm1-14.42c.25-.5,0-.75-.25-.5s0,.75.25.5Zm0,38.77c.75.25,1,.25.75-.25-.5-.25-1-.25-.75.25.25-.25,0-.25,0,0Zm.25-4.72c.5,0,.5-.25.25-.5s-.5,0-.25.5,0-.5,0,0Zm.5-25.1c.75.25.75,0,.5-.75-.5.25-.25,1-.5.75a.24.24,0,0,0-.25.25s.25-.5.25-.25Zm.5-10.94-.5.5c.5.25.75,0,.5-.5Zm.5,19.14.5-.5a9.91,9.91,0,0,0-1,.75C209,25.42,209.52,25.42,209.77,24.92Zm.5,26.35c.5-.5.75-1,.25-1.49-1,.25-1,.75-.25,1.49.5-1-.25-.5,0,0Zm1.49-43c.25-.75,0-.75-.75-.25,0,.25.25.25.75.25Zm0,40.26,1-.5c-.75,0-1-.25-1,.5ZM213.25,16c.25-.75,0-.75-.75-.25a.91.91,0,0,0,.75.25Zm.75-2.49c.5,0,.5-.25.25-.5-.5-.25-.5,0-.25.5Zm.75,33.8c0-1-.25,0,0,0ZM220,3.8l-.5.25c0,.25.5.25.5-.25ZM220,20l-.75.25c.5.75.75.25.75-.25Zm-.75,8.45H220a.24.24,0,0,0-.25-.25c-.25,0-.5,0-.5.25ZM220,56.74c0-.75-.75-.75-.75,0s.75.75.75,0Zm-.75-24.85c-.5,0-.5,0-.25.5.5,0,.5,0,.25-.5Zm-.5,16.4c-.5,0-.25.75,0,.5v-.5Zm0-7.7c.25,0,0-1,0,0-.25,0-.25-.25,0,0Zm0-8c-.5,0-.5,0-.25.5.5,0,.5-.25.25-.5C218.47,32.63,218.71,32.88,218.71,32.63Zm-2-15.41a.24.24,0,0,0-.25.25c.5-.75-.25,0,.5-.5-.25-.25.25.5-.25.25Zm-.5-6.46c-1,.75-1.49,0-.75,2l.75-2C215.73,11,216,11.25,216.23,10.76Zm0,7.21s-.5.25-.5.5.25-.25.5-.5ZM215.48,50l-.75.25c.75.25,1,.25.75-.25Zm0-16.4.5-.5C215.48,33.13,215.48,33.13,215.48,33.62ZM217,48c.75.25,1,0,.75-1-1.24,1-2,.75-1.24,2.49L217,48c.25,0-.25.75,0,0Zm1-34.55c.25-.5,0-.75-.25-.5s0,.5.25.5Zm.75,46.73H220c0-1.49-1,0-1.24,0-.5,0,0,0-.5.75.75-.5,0-.25.5-.75Zm.75-46.73c.5.25.75,0,.5-.75l-.5.75Zm2-4.47-.25.75c.75,0,.5,0,.25-.75,0,.5.25.5,0,0Zm0,17.4H221c0,.5.5.5.5,0Zm-.75,11.43c0-.75-.25,0,0,0Zm0-6c.75-.25,1,0,.75-1l-.75,1c.5,0,.5-.5,0,0ZM257.24,8c.75.5.75,0,.75-.5Zm0,43.74c-.75-.75-1.49-2-1.49.5l1.24-.75s.25.5.25.25Zm-1,1.49c0-.5-.25-.5-.5-.25,0,.5.25.5.5.25Zm0-15.41c0,.5.25.5.5.25.25-.5,0-.5-.5-.25ZM257,24.18c.75,0,0-.25,0,0Zm0-12.92.25.5a.24.24,0,0,0,.25-.25.77.77,0,0,0-.5-.25h0c0,.25.25,0,0,0ZM256.24,9c.75.25.75,0,.75-.25Zm.5,19.63c-1.74,0-1.24,1-1.49,2.49a6.62,6.62,0,0,0,1.49-2.49c-.25,0,.25.25,0,0Zm-2-17.89c0,1,.25,0,0,0Zm0,11.68v.5c.5,0,.5-.5,0-.5.25.25.25,0,0,0ZM254,21.2c0-.75-.25-.75-.5,0Zm-.75-14.42c-.25.5,0,.75.25.5,0-.5,0-.5-.25-.5Zm.25,5.72a.24.24,0,0,0-.25.25c.5-.75-.25,0,.5-.5-.25-.25,0,.5-.25.25-.5-.25,0,.25,0,0Zm-.25,3.73c.25,0,.5-.25.25-.75-.5,0-.5.25-.25.75.25.75,0-.25,0,0Zm0,8.45c-.25,0,0,.75,0,0Zm-.25-3-.75.75c.75-.25,1,0,.75-.75-.25.25.25.25,0,0Zm-.5-15.41c.5,0,.5-.25.25-1-.5,0-.5.25-.25,1,.5,1,0-.25,0,0Zm0-5c0,.5.25.5.75.25,0-.5-.25-.5-.75-.25-.75.5.25.25,0,0Zm-.75,7c0,.25.25.5.75.25,0-.5-.25-.5-.75-.25,0,.25.25,0,0,0Zm0,14.91c-.5,0-.5.25-.25.5.5,0,.5,0,.25-.5Zm0,9.69-.75.25c.5.5.75.25.75-.25Zm-1.24-22.37L250,10c.25.25,1.24,1,1,1,0-.5-.5-.75-.25-.75-.25,0,.25,0-.25.25C250.28,10.26,250.78,10.51,250.53,10.51Zm-.75,21.13c.75.5.5.5.5,1.49a2.48,2.48,0,0,1,1-1.24c-.25-.25-.5-.5-.25-1l-1.24.75c.25.25.5-.25,0,0Zm.25-4.23-.5,1c.75.25,1,0,.5-1,.5.75.75,0,.75-.5,0,.75-.25,1-.75.5,0,.25.25,0,0,0Zm0-2.24v.5a.24.24,0,0,0,.25-.25l-.25-.25Zm.25-11.93-.75.25c.5.75.75.25.75-.25ZM248.54,6l-.75,1c.75-.25,1,0,.75-1C248.29,6.28,248.54,6.28,248.54,6Zm.75,6h-.75a.24.24,0,0,0,.25.25c.25.25.5,0,.5-.25Zm-.75,3.48c0-.25-.25-.25-.5-.25s0,.5.5.25Zm-1-2.49c-.25.5,0,.75.25.5s0-.5-.25-.5ZM247,5c-.25.5,0,.75.25.5,0-.5,0-.5-.25-.5Zm0,2.49c-.25,0,0,1,0,0,.25,0,.25.25,0,0Zm-.75,1.24-.75.25c.5.75.75.5.75-.25-.25.25,0,.25,0,0Zm-1.49-1.24c0,1,.25,0,0,0Zm-3.23,8.7V17a.37.37,0,1,0,0-.75Zm-1.24-5.47.75-.5c-1-.25-1,.25-.75.5Zm.25,22.37c-.5,0-.5.25-.25,1,.25.25.5-.25.25-1-.25,0-.25.25,0,0Zm-2-29.82-.5.25c0,.25.5.25.5-.25Zm-1.49-.75v.5c.5,0,.5-.5,0-.5Zm-4.47,0c0,.25.25.5.75.25-.25-.5-.5-.5-.75-.25Zm-.75-.5h-.75c0,.5.5.5.75,0-.5,0-.25.25,0,0Zm-.75,18.14c1-.5,0-3,0,0C231.64,20,231.14,19.7,231.14,20.2Zm2.73,0-3.23,4c1.74.75,2.73-1.24,3.73-2.24-.5-.5-.25-1-.5-1.74C232.88,21.44,233.88,20.7,233.88,20.2Zm-1.74,8-.25-.5a.24.24,0,0,0-.25.25c0,.25.25.25.5.25,0-.25-.25,0,0,0Zm-1.49-25.1-.5.25c0,.5.5.25.5-.25C230.4,3.3,230.64,3.3,230.64,3.05Zm0,21.37c-.25.25-1.24.75-1,1.49,1.49-.25,1-.25,1-1.49-.5.5,0,.5,0,0ZM230.4,6c-.25,0-.5.25-.25.75.25,0,.5-.25.25-.75-.5-.75,0,.25,0,0Zm-.5,11.68c-.5,0-.5,0-.5.25.5,0,.75-.5.75-.25,0-.25-.25,0,.25-1-.5.75,0,.5-.5,1Zm-1.24-9.44c0,1,.25,0,0,0Zm-.75-1.74c-.5-.25-.75,0-.5.25s.5,0,.5-.25Zm-1,18.64c-.25-.5-.75-.25-.75.25l.75-.25Zm-.75-4v.75a.37.37,0,0,0,0-.75C226.17,21.44,226.42,21.2,226.17,21.2Zm0-10.19-.75,1c.75-.25,1,0,.75-1C225.92,11.25,226.17,11.25,226.17,11Zm-.75-8.7-.75,1c.75-.25,1,0,.75-1C225.18,2.55,225.43,2.55,225.43,2.31Zm-1,7.7h-.5c0,.5.75.5.5,0Zm-.5-3.23-.75.25c.5.75.75.5.75-.25C223.69,7,223.93,7,223.93,6.78Zm-1-1.74v.5c.5,0,.5-.75,0-.5Zm-.5,13.67v.75c.25,0,.25-.75,0-.75Zm.25,19.88c0-.25-.75,0,0,0Zm.5,15.66c.25-.5,0-.75-.25-.5s0,.75.25.5Zm.25,1.49c.5-.5-.25-.25,0,0Zm.25-.5-.25.25S223.93,55.25,223.69,55.25Zm-.5-12.18h.5c0-.5-.5-.5-.5,0Zm.5-26.84v-.75l-1,.5,1,.25Zm0-7c0-.25-.25-.5-.75-.25.25.5.5.5.75.25Zm0,7.7c-.25.75,0,.75.75.25,0-.25-.25-.25-.75-.25Zm.25,19.88c0-.75-.25,0,0,0Zm1.24,5c0-1.24-2.24,0,0,0Zm-.75-13.67c.5,0,.5-.25.25-.5s-.5,0-.25.5.25-.25,0,0Zm.25,7.7c-.25,0,0,.75,0,0Zm0-12.92c.75.25.75,0,.5-.75-.5.5-.5,1-.5.75l-.5.75c.25,0,.5-.5.5-.75s.25,0,.25,0ZM226.17,51c-.5,0-.5,0-.5.5Zm0-21.13c0-.5,0-.5-.75-.25.25.5.5.5.75.25Zm1,25.35c.5.25.75,0,.5-.75-.5.5-1.49,1-1.49,1.49-.75.5,1-1.24,1-.75Zm.5-1.24c.5,0,.5,0,.25-.5-.5,0-.5.25-.25.5Zm1.24-1.49c0-.25-1,0,0,0Zm1.49-.5c.5-.5-.75-.5-.75-.5s.25,0,.75.5c0-.25-.25-.25,0,0Zm-1-2.24,1-.5c-.75-.25-1-.5-1,.5.25-.25,0-.25,0,0Zm.75-7c.25-1.74,1.74-1,1.49-2.73a32.55,32.55,0,0,1-3.23,3c0-.25,1.74-.25,1.74-.25C230.15,42.07,229.65,42.82,230.15,42.82Zm.25-5.72c0,.5.25.75.75.25.25-.5,0-.5-.75-.25Zm1,5c-.25.5,0,.75.25.5s0-.5-.25-.5Zm1,15.41.25-.75c-.5.75.25.5-.25.75-1-2-.5,2.24-.75,1,.25-.25.5-1,.75-.5.25-1,.25,0,0-.5.25-.25.25.25,0,0ZM231.64,47l1-.5c-.75,0-1-.25-1,.5Zm1.74-1.24v-.5c-.5-.25-.5.5,0,.5,0-.25-.25,0,0,0Zm-.75-12.68c.5,0,.5.25.75-.25-.25,0-.5,0-.25-.75.25-.25.5,0,.25.75,1.24-1.49,0-.5.5-1a.24.24,0,0,1,.25.25c1.74-1.74,0-.75,0-2.73a2,2,0,0,0-1,1.49c.25-.25.25.25.25.25-.75-1-1.49,1.49-2.49,1.49.75.75,1,.75,1,2a1.77,1.77,0,0,0,.75-1.49c.25-.25,0,.25,0,0Zm1.24,23.61V56c-.25,0-.25.75,0,.75Zm.25-22.37h.5l-.25-1-.25,1Zm.75,9.44v-.75c-.5.25-.5.75,0,.75Zm.25,7.46.5-.25c0-.5-.5-.25-.5.25Zm.25-6.21a.24.24,0,0,0,.25-.25c-.5.75.25,0-.5.5.25.25,0-.5.25-.25Zm-.25-16.9h.5l-.25-1-.25,1Zm1.24,25.35.5-.75c-.5-.25-.75,0-.5.75-.5-.75-.75-.25-.75.5.25-.75.5-.75.75-.5Zm0-3.73c0,.5.5.25.5,0Zm0-29.82,1.24-.75c-1-1-1.49-.75-.75-.25l-1.24.5c.5.25.25.75.25,1.24l.5-.75Zm.75,11.43c.5,0,.5,0,.25-.5-.5,0-.5.25-.25.5,0,.25-.25,0,0,0Zm.75-4-.5.75c.75.25.75,0,.5-.75-.25.5,0,.5,0,0Zm.75,2.49c0-.5,0-.5-.75-.25.25.5.5.5.75.25ZM237.85,13a1.68,1.68,0,0,0,1.49-1c-1,0-1.49-.75-1.74.75-.25,0-1.24.75-1.24,1A19.87,19.87,0,0,1,233.13,17c.5,0,1.24.5,1.49.25.75-.5-.25-1,1-1,0-1.49,2.24-2,2.24-3.23C238.6,13.24,237.85,13.24,237.85,13Zm1.49,3.23c-.5,0-.5.25-.25.5.5.25.5,0,.25-.5,0,.25.25.5,0,0Zm0,32.31V47c-.5.25-.5,1.49,0,1.49Zm.75-20.63-.75.25C240.09,28.4,240.09,28.4,240.09,27.91Zm.5,29.58a.24.24,0,0,0,.25-.25c-.5.75.25,0-.5.5.25.25,0-.5.25-.25Zm.25-22.37a.48.48,0,0,1,.25-.75c-.25.25-1,1.24-1,1.24.75,0,.75-.5.75-.5.25.25.25-.25,0,0,.25.5.25-.25,0,0ZM241.58,20c.25.25,0,0,.25-.25s-1,.5-1,1c-4.47,3.23,1-1.24.75-.75Zm.25,13.67c.5.25.75,0,.75-.25Zm.5,21.62c-.5.75,0,0-.5.5.25.25,0-.25.25-.25S242.57,55.49,242.33,55.25Zm.25-8,.5-.75c-.75-.25-1,0-.5.75.25-.25,0-.25,0,0Zm1.49-4c.25-.25,0-.5-.25-1.24l-1.49,2c.5-.25.25.25.25.25-.5-.5,0-.5-.75.25.75.75,1.24.75,1.74-.5.5-1.74-.25,0-.25-.25.25-.75-.5.75.75-.5Zm.5-30.32-.75.5c1,.5,1,0,.75-.5Zm.5,17.15c-.5,0-.5.25-.25.75.25,0,.25-.25.25-.75-.25.25,0,.25,0,0Zm.5,27.84c-.75,0-.75,0-.75.25Zm-.75-16.65c1,.25,1.24,0,1-1-.75-.25-1,.25-1,1,.25,0,0-.75,0,0Zm1.49,1.49.5-.75c-.5-.25-.75,0-.5.75Zm-.5-5.72c3.48-.5-.5-1,0,0-.25.5,0-.25-.5,1,.5-.75,0-.5.5-1Zm1.74,2.73c-.5.75,0,0-.5.5.25.25,0-.25.25-.25s.5,0,.25-.25Zm.25-6.71v.75c.5-.5,1.49-.5,2-.75-1-1.24-1-.75-2,0Zm1.74,2.24c-.75,0,0,.25,0,0ZM248,35.11c.5-.75-.25-.25,0,0Zm.5-.75-.25.25s.5,0,.25-.25Zm.25,21.37c.25-.5,0-.75-.25-.5,0,.5,0,.75.25.5.25,0,0,.25,0,0Zm.75-12.68c0-.75-.25,0,0,0s0,.25,0,0Zm1.24,8.7c0-.25-.25-.5-.75-.25.25.5.5.5.75.25.25,0,0,.25,0,0Zm0-10.19c-.75-.25-.75,0-.75.25ZM253,55c0-.25-.25-.5-.75-.25.25.5.5.5.75.25.25.25,0,.25,0,0Zm.75-22.12s-1.24-1-1.24.75c-.75,0-.75.5-.75,1.24-1-.5-.5-1-1.49-.75,0,.25.25.25.75.25-.5,2-2.49,2.49-2.24,4.47a39.55,39.55,0,0,0,5-6Zm.25-5.72c1,0,1.24-.5,2-1.24-1.74-.25-1.49-.25-2,1.24.5,0,.25-.5,0,0Zm.75,26.59v1c.5,0,.5-1,0-1,.25.5.25,0,0,0ZM257,57l1.24-.75L257,55c0,1.24-.25.75.25,1.24-.25.25-.5,0-.25-.25l-1.24.75c1.24,1,0,1.24-1,1.24,1.49,1,1.24.25,2.24-1,.5,0-.25.25,0,0Zm6.46-42.25c-.5,0-.5.25-.25,1,.5,0,.5-.25.25-1-.5-1,0,.5,0,0Zm0,4.72c-.25,0,0,.75,0,0Zm0,10.44c-.75,0-1-.25-1,.5l1-.5c-.5.25-.25.5,0,0ZM263,20l-.5.25c0,.5.5.25.5-.25,0,.25.25.5,0,0Zm-2-17.4h-.5c0,.5.5.25.5,0Zm0,14.91-.75.25c.5.5.75.25.75-.25-.25.25,0,.25,0,0Zm-.5,8.2-.25-1c-.75.75-.5,1,.25,1,0-.25-.25,0,0,0Zm0-5c-.5,0-.5,0-.25.5.25,0,.25-.25.25-.5-.25,0-.25.25,0,0Zm-.5-4.47-.75.25c0,.25.25.5.5.25s.25-.25.25-.5Zm-.25,5c-.25,0-.5.25-.25.75.5,0,.5-.25.25-.75-.25-.75-.25.5,0,0ZM260,35.11c0-1-1-1-1,0h1c0-.25-.25,0,0,0Zm-.5-1.49c1,0,1.74.5,1.49-.75l-1.49.75c.75,0,.5-.25,0,0Zm1,13.17.75-.25c-.75,0-.75,0-.75.25Zm0,5.72c.25-.5,0-.75-.25-.5-.25.5,0,.5.25.5Zm.75,2.49.25-.75c-.5.75,0,.25-.25.75-1-.75-.75,1-.75,1s.5-1,.75-.5c.25-1.24,0-.25,0-.5Zm1.24-39.52c-.25.25-1.24,2.73.25,1.74-.75-.75.5-1.24-.25-1.74ZM262,50h.75a.24.24,0,0,0-.25-.25c-.25,0-.5,0-.5.25Zm1.24,9.44c0-.25-.25-.5-.75-.25.25.5.25.5.75.25Zm.25-4.23.5-.75c-.75-.25-.75,0-.5.75C263.45,55,263.2,55,263.45,55.25Zm6.71-52.94v.75a.37.37,0,1,0,0-.75Zm-2.73,7c0,.5.25.5,1,.25,0-.5-.25-.5-1-.25,0,.25.5,0,0,0Zm-.5,11.93c-.5,0-.5,0-.5.25.5,0,.75-.5.75-.25,0-.25-.25,0,.25-1-.5.75,0,.5-.5,1Zm-2,2c-.25.5,0,.75.25.5,0-.5,0-.75-.25-.5Zm.25,30.32c-.75,0-1,0-.75.25Zm-.25-25.35,1-.75c-.75,0-1-.25-1,.75C265.19,27.91,264.94,27.91,264.94,28.15Zm1.24-3.23c0-.5-.25-.5-1-.25,0,.5.25.5,1,.25C267.18,24.18,265.94,24.92,266.19,24.92Zm.5,33.55.5-.75c-.75-.25-1,0-.5.75C266.68,58.23,266.43,58.23,266.68,58.48Zm-.5-21.62c.75,0,1,.25.75-.75l-.75.75C266.68,36.85,266.68,36.36,266.19,36.85Zm0-6c.25.25.75-.5,1-1-1,.25-.5.5-1,1Zm1.74-6a.24.24,0,0,0,.25-.25c-.25.5,0,.5-.75,0l-1,1.74h1.49c0,3.48-.25-1.74,0-1.49Zm2.24-7.46-2,1.24h2V17.47c-.75.25,0,.5,0,0ZM268.67,61v-.5c-.5,0-.25.5,0,.5Zm.75-37.78h1c0-.75-.25-1-1-.5v.5c.5-.25,0-.25,0,0ZM292.78,47c0-.25,0-.5-.25-.25.5.5,0,.75,1,.5-.25-.5-.5-.5-.75-.25Zm-.25,8.45c-.25.5,0,.75.25.5s0-.75-.25-.5,0-.25,0,0Zm0-4.23c.75,0,0-.25,0,0Zm.25-29.82c-.5.75.25.25,0,0Zm-.25.25c-.5.5,0,.5,0,0Zm0,26.59-.5.25c0,.5.5.25.5-.25Zm-.5-5.72c.25,0,0-.75,0,0ZM292,8c-.5,0-.5.25-.25.5.5,0,.5,0,.25-.5Zm-1,46.73c.75-.25,1,0,.75-1l-.75,1c.5-.25.25-.5,0,0Zm.75,2L291,57c.5.25.75.25.75-.25-.25,0,0-.25,0,0ZM291,53.51c.5,0,.5-.25.25-.75-.5,0-.5.25-.25.75Zm.75-35.29c-1.24,0,0,1.74,0,0-.75,0,0,.25,0,0Zm-.5,20.88c0-.25-.25-.5-.75-.25,0,.5.25.5.75.25Zm-1-29.08v.5c.5,0,.25-.75,0-.5Zm0,39.27c0,.25.75,0,0,0ZM290,44.81a.24.24,0,0,0-.25.25c.5-.75-.25,0,.5-.5-.25-.25,0,.5-.25.25s-.25,0,0,0Zm0,4.72c-.25,0-.5.25-.25.75.25,0,.25-.25.25-.75-.5-.75-.25.25,0,0Zm-4.23-33.06v.75a.37.37,0,0,0,0-.75Zm0,15.41c0,.25.25.5.75.25,0-.5-.25-.5-.75-.25Zm-1-25.6c-.25.5,0,.75.25.5s0-.5-.25-.5Zm.25,11.43c-.25,0-.5.25-.25.75.5,0,.5-.25.25-.75-.25-.75,0,.25,0,0Zm0,2.49-.5.75c.75,0,.75-.25.5-.75-.25.25,0,.25,0,0Zm-1-14.66v.75a.37.37,0,0,0,0-.75ZM282.59,20.2v.75c.25,0,.25-.75,0-.75Zm0,2.49v.75c.25,0,.25-.75,0-.75Zm-.25-17.4h-.5c0,.5.5.25.5,0-.25,0,0,.25,0,0Zm-.25,5c-.25,0,0,.75,0,0v0Zm-.25,7h-.5c-.25.5.5.25.5,0-.25.25,0,.25,0,0ZM280.6,6.28V7c.75,0,.75-1,0-.75Zm0,5c-.25.75,0,.75.75.25-.25-.25-.5-.5-.75-.25s.25.25,0,.25Zm-.75,1.24c-.5,0-.5.25-.25.5.25,0,.5-.25.25-.5v0Zm-.25,26.1.75-.25c-.75,0-.75.25-.75.5ZM277.87,5l.75-.5c-1,0-.75.25-.75.75Zm-.5,9.94v.75a.37.37,0,1,0,0-.75v0Zm-1-10.44a1.49,1.49,0,0,1-.25,1c.75-.75.25-.5.25-1,1.24,2.24.75-2,.75-.75-.25.25-.25.75-.75.75h0v0Zm.25,11.93c-.75,0,0,.25,0,0v0Zm-2.49,19.39v.75a.37.37,0,0,0,0-.75v0Zm-3-14.66c.5.25.75,0,.5-.25,0-.5-.5,0-.5.25v0Zm.75.75c0-.75-.25,0,0,0s0,.25,0,.25Zm.75,6.46c0-.75.25-.75.75-1.24-.25-.25-1.24,1.74-.75,1.24,0,0-.25.25,0,.25Zm0,22.12V51l1-.5h-1c0,.5.25.25,0,.25Zm1.49,6.21c-.75-.5-.75,0-.75.5Zm.75-7.7c-.25-.25.25-.25,0-.5-.25.5-.75.25-.75,1,.5-.5.25-1,.75-.5v0Zm0-19.63c0-.5,0-.5-.75-.25.25.5.5.5.75.25,0,0-.25.25,0,.25Zm0-5c0-.5,0-.5-.75-.25.25.25.5.5.75.25s-.25.25,0,.25Zm0,10.44c.5.25.75,0,.5-.25-.25,0-.5,0-.5.25.25.25,0,.25,0,.25ZM275.63,12c0,1,.25,0,0,0s.25.25,0,.25Zm1,21.87c0-.5-1,0,0,0v0ZM277.37,53c-.75-.25-.75,0-.75.5Zm-1.49-30.07c.75.25,1.49-.5,2-1.24-1.49.25-1.24.25-2,1.24C276.38,23.18,276.13,22.69,275.88,22.94Zm2.24-12.43c.25-.5,0-.75-.25-.5s0,.5.25.5Zm.75,9.94-.5.5c.75.25.75,0,.5-.5Zm.75,32.06a.24.24,0,0,0,.25-.25c-.25.25-.5.75-.75,1,.25,0,.25-1.24.5-.75Zm.5,8,.75-.25c0-.5-.75-.5-.75.25,0-.25-.25-.25,0,0Zm1-7.46v-.75c-.25,0-.25.75,0,.75Zm1-15.41c.25-.5.75-.75,1-.5l-1-1a3,3,0,0,1-1.24,1.24c.5,0,1-.25,1.24.25ZM283.58,60c-.75-.25-.75,0-.75.5Zm1.49-2c.25-.5,0-.75-.25-.5s0,.5.25.5Zm0-5.72-.75.5c.75.25.75,0,.75-.5Zm0-18.39c.75-.5,0-.5-.25-1.24a22.4,22.4,0,0,0-1.24,2.24c-.5-.5,0-.5-.75.25,1,.5,2.73-1,2-1.49,0,0,.5,0,.25.25Zm.75,22.62c0-1-.25,0,0,0Zm0-4.72v-1c-.5,0-.5,1,0,1Zm.75-7v-1c-.5,0-.5,1,0,1Zm.25,14.91h.5l-.25-1-.25,1Zm.5-11.93c.75.25.75,0,.5-.75a2.55,2.55,0,0,0-1.24,1.49c1,0,.5-1,.75-.75Zm.75-20.63c-.75-.25-.75,0-.75.25Zm0-10.19c.25-.5,0-.75-.25-.5s0,.75.25.5.25,0,0,0Zm4.72,42.25c0-.75,1-2.49.5-3a61.54,61.54,0,0,1-4.72,6.46c.25.5.5.75,1,.5A5.92,5.92,0,0,1,291,60.46a.24.24,0,0,1,.25.25l1.49-1.49c0-.5-.5.5,0,0Zm.75,4.72c.5-.75-.25-.25,0,0s0-.25,0,0Zm.5-.75a.77.77,0,0,0-.25.5s.5-.5.25-.5ZM294.27,6V5.29a.37.37,0,1,0,0,.75ZM295,44.81c0,.5.5.25.5-.25l-.5.25Zm1.24,6.71-.75.25c.75,0,.75,0,.75-.25Zm-.5,4c.5.25.75,0,.5-.25s-.75,0-.5.25,0-.25,0,0ZM296,5.79a.24.24,0,0,0,.25-.25c-.5.75.25,0-.5.5.25.25,0-.5.25-.25s0-.25,0,0Zm37.28,17.4c-.5-.25-.75,0-.5.25.5,0,.5,0,.5-.25Zm-1,20.63c.5.25.75,0,.5-.75l-.5.75Zm.5,4.72c-.25-.5-.75-.25-.75.25l.75-.25Zm0-33.06-1,.75c.75,0,1,.25,1-.75-.25.25,0,.25,0,0Zm-1.24,18.89v-.5a.25.25,0,1,0,0,.5h0c0-.25-.25,0,0,0Zm-1-22.62.75-.5C330.31,11,330.56,11.25,330.56,11.75Zm0,19.39h.75a.37.37,0,0,0-.75,0Zm.25,23.61v-1c-.5,0-.25,1,0,1Zm0-29.08c-.5,0-.5.25-.25.75.5,0,.5-.25.25-.75s0,.25,0,0Zm-.75,25.85.75-.5c-1-.25-1,0-.75.5Zm-.25-39.27V13c.25,0,.25-.75,0-.75-.25.25-.25,0,0,0Zm-.75,20.88h.75c-.25-.5-.75-.5-.75,0,0-.25-.25-.25,0,0Zm.25,12.68c-.5,0-.5.25-.25.75.5,0,.5-.25.25-.75-.25,0-.25.25,0,0Zm-.75-27.59a1.28,1.28,0,0,0-.75,1.74h0l1.24-1.49-.5-.25Zm-1.24,2.73c-.5-.25-.75,0-.5.75l.5-.75Zm-1,19.88c1.49-.5,1.74-.75,2-2.24a3.53,3.53,0,0,0-2,2.24Zm.5,5.72.5-.5c-.75,0-.75,0-.5.5Zm-1.24-24.11c0,.25.25.5.75.25-.25-.5-.5-.5-.75-.25Zm.25,25.35c0-.5-.5-.25-.5.25l.5-.25Zm-.75-2.73c0,1,.25,0,0,0Zm-.75,4.23.75-.5c-.75-.25-.75,0-.75.5Zm.25,1.24c-.25,0-.5.25-.25.75.5,0,.5-.25.25-.75-.5-.75,0,.25,0,0Zm-.25-26.35-.5.25c-.25.5.5.25.5-.25-.25.25,0,.25,0,0Zm-1,22.87c0,.25.75,0,0,0Zm.25,3.23c-.25,0,0,.75,0,0ZM322.6,15c-.5,0-.5,0-.5.25a.92.92,0,0,0,.75-.5c0-.25-.25,0,.25-1-.5,1,0,.75-.5,1.24-.25,0,0-.25,0,0Zm.5,36.29v-.5a.25.25,0,1,0,0,.5h0c0-.25-.25,0,0,0Zm-.75.5c-.5,0-.5.25-.25,1,.5,0,.5-.25.25-1Zm-.25-27.59c-.5,0-.5.25-.25,1,.5,0,.5-.25.25-1-.5-1,0,.25,0,0Zm-1.49-1.49c0,1,.25,0,0,0Zm0,3.73.75-.5c-1-.5-1-.25-.75.5Zm-1-9.44c.25.25,0,.75-.25,1,.75-.75.25-.5.25-1,1,1,.75-1,.75-.75s-.25,1-.75.75Zm-2.49,14.91a.24.24,0,0,0-.25.25c.5-.75-.25,0,.5-.5,0-.25.25.5-.25.25Zm-.5-23.11-.75.25c.5.75.75.25.75-.25-.25.25,0,.25,0,0Zm0,16.16-.75,1c.75-.25,1,0,.75-1-.5.25-.25.25,0,0Zm-.75,6.71c-.5-.25-.75,0-.5.25s.75.25.5-.25Zm-.75-10.19v.75a.37.37,0,0,0,0-.75Zm0,5c-.25,0,0,1,0,0Zm-.75-13.17c0,1,.25,0,0,0s0,.25,0,0Zm-.25,14.66-.75.25c.5.5.75.25.75-.25ZM312.91,8.27c-.75.25-1,0-.75,1l.75-1c-.5.25-.5.5,0,0Zm0,24.11c-.25,0,0,1,0,0Zm-.25-2.24c0-.25-.25-.25-.5-.25s0,.5.5.25Zm-2-12.43.75-.25c-1-1-.75-.25-1.74-.25l1,1.24v-.75c.25,0,0,.25,0,0Zm.75,32.56c-.25,0-.5.25-.25.75.25,0,.25,0,.25-.75-.5-.5-.25.5,0,0Zm-1-7.7.25.5a.24.24,0,0,0,.25-.25c-.25-.25-.25-.25-.5-.25Zm1-34.8c-.75.25-1,0-.75,1l.75-1c-.75.25-.5.5,0,0Zm-3.48,3c1.74-.5,1.74-.5,1.74-2Zm1,5.47c-.25,0,0,1,0,0Zm0-3c-.5-.5-.75-.25-.75.25l.75-.25Zm-3.23,0-.5.25c0,.25.75.25.5-.25Zm-.5,3.73c-.5,0-.5.25-.25.75.25,0,.25-.25.25-.75Zm.5,15.16c-.25.5-.75.75-1,1.24,1.24.25,1.49-.25,1-1.24-.25.25,0,.25,0,0Zm0,5.47c0-.5-.25-.5-.5-.25,0,.5.25.5.5.25ZM303.22,7.28l-.5,1c1-.25.5-.25.5-1C303,7.77,303.22,7.77,303.22,7.28Zm-.5,3.48.75-.5c-1-.5-1,0-.75.5Zm-1.49,1.49h-.5c0,.5.5.5.5,0-.25,0,0,.25,0,0Zm-.5,8.45c-.5,0-.5.25-.25,1,.5,0,.5-.25.25-1-.25,0-.25.5,0,0Zm-1,22.87-.5.25c0,.5.5.25.5-.25ZM298.25,7.28c0,.25.25.5.75.25-.25-.25-.5-.5-.75-.25s0,.25,0,0ZM299,12.5c-.75.25-1,0-.75,1l.75-1c-.5.25-.5.5,0,0ZM297.75,59a.24.24,0,0,0,.25-.25c-.5.75.25,0-.5.5.25.25,0-.5.25-.25Zm-.25-5.72c0,.5.5.25.5-.25l-.5.25ZM299,64.44V63.7c-.25,0-.25.75,0,.75,0-.25-.25,0,0,0ZM299,63V62.2c-.25,0-.25.75,0,.75,0-.25-.25,0,0,0Zm-.75-12.43,2.24-3.23c-1,0-3.48,1.74-3.23,3.23h1c-.25,0,0,.75.25.75,0-1,0-.5-.25-.75.5-1-.25,0,0,0ZM300.73,61c0-.25-1,0,0,0Zm-.25-18.39.5,1c1.24-1,2-1,1.74-2.73l-2.24,1.74c0,.25.5-.5,0,0Zm.75,15.91v-.75a.37.37,0,0,0,0,.75Zm.75,1.74c.5,0,.75,0,.5-.5-.25.25-.5.25-.5.5V60c0,.25-.25.25-.75,1,.75,0,.75,0,.75-.75Zm.75-3.48c-.75,0-.75,0-.75.25Zm0-18.39c.5,0,.5-.25.25-.75-.5,0-.5.25-.25.75ZM303,25.67c.5,0,.5,0,.5-.25-.5,0-.75.5-.75.25,0,.25.25,0-.25,1,.75-.75,0-.5.5-1Zm.5,11.93c0-1-.25,0,0,0Zm.25,17.89.5-.75c-.75-.25-1,0-.5.75Zm0-21.13.5-.25c0-.25-.75-.25-.5.25Zm0-11.43.5-1c-.75-.25-1,0-.5,1-.5-.5-.75-.25-.75.25.75-.25.25-.75.75-.25Zm.5-14.17h0c.25-.25,0,0,.25-1-.25.25-1,1.24-1,1.24.25,0,.25-.25.75-.25Zm.25,56.17c.25,0,.25-.25.25-.5-.5.75.25,0-.5.5.25.5,0-.25.25,0Zm.5-22.37a3.45,3.45,0,0,0,1.24-2.49l-2,2.49H305c1.24-1.24-.25,0,0,0ZM305.7,63l.75-.25c-.25-.25-.75-.25-.75.25Zm1-43.74v-.75a.37.37,0,1,0,0,.75Zm.5,3.23c.5,0,.5-.25.25-.75-.5,0-.5.25-.25.75Zm-.5-7.7h.75a.24.24,0,0,0-.25-.25c-.25,0-.5,0-.5.25Zm-.5-2.49h1.24c.25-1,.25-1.49-.5-1.49l-.75,1.49c.5.25.5-.5,0,0Zm1.74,5.22c-.5,0-.5,0-.5.5Zm0,11.93c1.24,0,1.74-1,2.49-2-1,.5-2,.5-2.49,2,.5,0,.5-1.49,0,0Zm1,14.91c-.25,0-.5.25-.25.75.25,0,.25-.25.25-.75Zm-.25,21.37.75.75c.5-.25.5-.75-.25-1.49l-.5.75c1,.75.25-.25,0,0Zm3.23-2.49c.75-.5,0-.5-.25-1.24-.25.5-1.24,2.24-1.24,2.24-.5-.5,0-.5-.75.25.5.25,2,.5,1.74-1,0,.25.25,0,.5-.25,0,.25-.25,0-.25-.25s.25,0,.25.25c1-.75.25,0,0,0Zm0-8.45v1c.5,0,.25-1,0-1,0,.5.25,0,0,0Zm.5-10.69c0-.25-.25-.5-.75-.25.25.5.5.5.75.25Zm0,5.22c.5,0,.5-.25.25-.75-.25,0-.25.25-.25.75.5,0,.25-.25,0,0Zm2,17.89c-.75,0-.5-1-1.24-.5.25.25.5,1,1.24.5Zm-.25-2,.75-.25c-.5-.5-.75-.25-.75.25Zm0-23.86c1.49.25,1.49-.5,1.49-1.74l-1.49,1.74c.75.25.75-.5,0,0Zm1.24,16.4h.5l-.25-1-.25,1Zm1.24-24.85c-.75-.25-.75,0-.75.5Zm0,5.47c.75,0,1,.25,1-.5l-1,.5c.5,0,.5-.25,0,0Zm1,20.13c.5.25.75,0,.5-.75-.5.5-.25,1-.5.75-.25,0-.25,0-.25.25h0l.25-.25Zm0-32.06c.5.25.75,0,.5-.75-.75.5-.25,1-.5.75-.25,0-.25,0-.25.25h0c0,.25.25-.25.25-.25Zm.75,10.44c.5.25.75,0,.5-.25-.5,0-.75,0-.5.25Zm.5-12.18s.5-.25.5-.5-.25.5-.5.5Zm.25,10.94c.25.5.75.25.75-.25l-.75.25Zm.5,5.72c-.25.5,0,.75.25.5,0-.5,0-.75-.25-.5Zm1,25.85c-.75-.25-.75,0-.75.25Zm0-10.44,1-1c-.25-.5-.5-.5-1-.25a.24.24,0,0,1,.25.25c-.25-.5,0-.25-.75-.25,1,1.49.75.5,0,1.74.25.25,1,.5.5-.5Zm.75-17.65c.25.5.75.25.75-.25l-.75.25ZM322.11,62l-.5.5c.5.25.5.25.5-.5Zm.5,8.2a2.82,2.82,0,0,0,.75-2,13.79,13.79,0,0,0-1.49,2ZM323.35,53l.25.5a.24.24,0,0,0,.25-.25.87.87,0,0,0-.5-.25Zm3.23,12.18c.5-1.24-1.74.5-1.74.5l-1.24,1.74a3.48,3.48,0,0,0,3-2.24Zm.5-1,.5-.25c0-.5-.5-.75-1-.75h-.25c.5.25.75.5.75,1,.25,0,0-.25,0,0Zm.5-3.48c-.5,0-.5,1,0,1v-1ZM327.33,56c.25,0,.5-.25.25-.75-.5,0-.5.25-.25.75Zm0-11.68.75,1,.75-1.24c-.5,0-1.49,0-1.49.25Zm1.24,9.44c-.5,0-.5.25-.25,1,.5.25.5-.25.25-1-.25,0,0,.5,0,0Zm-.25,17.89.5-.75c-.75-.25-.75,0-.5.75.25-.25,0-.25,0,0Zm2.49-3.48c-.25-.25-.25-.5.25-1,1-.5-1.49,2-.25,1.74,0-.5-.5-.75,0-.75Zm-.25-7a1.7,1.7,0,0,0,1.74-1.74h0c-1.24,0-1.24,1.49-2,.75a14.33,14.33,0,0,1-1.24,2.24c-.5-.5,0-.5-1,.25.75.75,1.24.5,1.74-.5.5-1.74-.25,0-.25-.25.5-.75-.25,1,1-.75.25,0-.25.5,0,0Zm1,3.23.75-.25c-.5-.5-.75-.75-.75.25Zm1.74,5.72c.25,0,.25-.25.25-.5-.5.75.25,0-.5.5,0,.5-.25-.25.25,0,.25.25-.25.25,0,0Zm.75-6c0-1.24-2.24.25,0,0Zm-.25-6.71c-.75,0,0,.25,0,0ZM333.54,51c.25,0,0-1,0,0Zm.25-23.86c.75.25.75,0,.5-.75-.25.5-.5,1-.5.75l-.25,1c0-.25.5-.75.25-1s0,.25,0,0Zm3.48.75c-.5-.25-.75,0-.5.25.5,0,.75,0,.5-.25Zm-1.74,39.77c0-.25-1,0,0,0ZM335,48.78v.5a.25.25,0,1,0,0-.5Zm.5-15.66a.24.24,0,0,0,.25-.25c-.5.75.25,0-.5.5.25.25,0-.5.25-.25s-.25,0,0,0Zm.5,6.21c0-.25-.75,0,0,0Zm.25,15.41h.5l-.25-1-.25,1ZM337,32.38l.5.25a1.2,1.2,0,0,0-1.49-.5c.25.25.75,0,1,.25Zm.75-2c0-.25-.75,0,0,0,0,.25-.25.25,0,0Zm1.24-2c1.24,0,2-.75.75-1.74L339,28.4c.25,0,.25-.75,0,0Zm1,.25c-.5,0-.5.25-.25.75.25,0,.5-.25.25-.75s0,.25,0,0Zm-.75.75c-.5,0-.5.25-.25.75.5,0,.5-.25.25-.75-.25.25,0,.5,0,0ZM339,38.84l.75-.5c-1-.25-.75.25-.75.5Zm1,25.35-.5.5c.25,0,.25,0,.5-.5Zm0-15.41c.25,0,0-1,0,0-.25,0-.25-.25,0,0Zm0-1.49c.5,0,.5-.25.25-1-.5,0-.5.25-.25,1-.25,0-.25-.25-.25,0Zm.25-15.16c0,.5.5.25.5-.25l-.5.25h0Zm0,23.61.5-.25c0-.5-.5-.25-.5.25,0-.25-.25-.25,0,0Zm4.47-5-.5.25c-.25.25.5,0,.5-.25Zm-.25-23.36v.5a.24.24,0,0,0,.25-.25l-.25-.25h0c-.25.25-.25,0,0,0Zm-.25,33.3.75-.25c-1.24-.25-1.24-.25-.75.25Zm.5-34.8c0-.25-.25-.5-.75,0q0,.37.75,0c-.25-.25-.5-.25,0,0Zm-1-3v-.5a.24.24,0,0,0-.25.25l.25.25ZM343,21.2l.75-.5C342.74,20.2,342.74,20.7,343,21.2Zm0,23.36c0,.25.25.5.75,0q0-.37-.75,0ZM343,62l-.5.25c0,.5.5.25.5-.25-.5,0-.25.25,0,0Zm-1-27.34a.24.24,0,0,0-.25.25c.5-.75-.25,0,.5-.5-.25-.25.25.5-.25.25-.25-.25,0,.25,0,0Zm-.5,13.67c0,.25.25.5.75,0-.25-.25-.25-.25-.75,0ZM344,76.62c.25-.5,0-.75-.25-.5-.25.5,0,.75.25.5-.25,0-.25.25,0,0Zm.5-.5c0-1-.25,0,0,0Zm-.5-5.47a9.19,9.19,0,0,0,1.24-2.73c-1.49.5-3,3-4,4.47C342.24,72.89,343.23,71.65,344,70.65Zm1.24-28.83c0-2.49-1.24,0,0,0-.25-.5-.25,0,0,0Zm0,12.92.5-.75c-.75,0-.75.25-.5.75Zm0-5,.5-.25c0-.25-.5-.25-.5.25ZM346,63.94c0-.75-.25,0,0,0Zm41.51-28.33-.5.25c0,.25.5.25.5-.25Zm0,6.71-.75.25c.5.5.75.25.75-.25Zm-.5-3c-.5,0-.5.25-.25.75.25,0,.25-.25.25-.75-.25,0,0,.25,0,0Zm-2-5.72v.5c.5.25.5-.5,0-.5Zm-.5,2.24c0,1,.25,0,0,0ZM383,37.1c0,.5,0,.5.75,0-.25-.25-.25-.25-.75,0,0,.25.25,0,0,0Zm0,15.66c-.5,0-.5.25-.25.75.5,0,.5-.25.25-.75Zm-.5-19.63c-.5,0-.5.25-.25,1,.25,0,.5-.25.25-1-.5-1-.25.5,0,0Zm0,20.38c-.25,0,0,1,0,0-.25,0-.25.25,0,0Zm-1.74-18.39-.25,1c.75,0,.5-.25.25-1-.25.5,0,.5,0,0ZM380,55.49l-1,.75a4.23,4.23,0,0,1,1.74.25c-.75-.75-1-.5-.5-2-.5.75,0,.5-.25,1s-.25,0,0,0ZM379.27,51c.5,0,.5,0,.5-.75Zm0-20.88-.25,1c.5,0,.25-.25.25-1-.5.75-.25.75,0,0Zm0,8.95-.75,1c.75-.25.75,0,.75-1-.5.5-.25.5,0,0Zm-1,8.2v1c.5.25.5-1,0-1Zm.25,4.72c-.25,0,0,1,0,0-.25,0-.25.25,0,0Zm-.25-12.92c-.5-.25-.75,0-.5.25s.5,0,.5-.25-.25,0,0,0Zm0,18.64c-.25-.25-.75.5,0,0ZM378,58m0,0c-.5.5,0,.25,0,0-.25,0-.25.25,0,0Zm-.75,4.72-.5,1c1.24,0,3-2.73,4.23-4.47a39.16,39.16,0,0,1,3-3.73c-1.24,0-2,1-2,2.49-.5.75-1.24.25-2,1.24-.25.5-2.24,4-2.73,3.48C377.28,63,377.53,62.7,377.28,62.7Zm1,8c-.25-.5-.75-.25-.75.25l.75-.25Zm-1.74-41.51v.5c.5,0,.5-.75,0-.5Zm.25,12.92c-.25,0-.5.25-.25.75.5,0,.5-.25.25-.75-.25-.75,0,.25,0,0ZM376,29.89c0,.25.75,0,0,0Zm.25,10.94c-.5,0-.5.25-.25,1.24.5-.25.5-.5.25-1.24-.25-.25,0,.25,0,0Zm-1-13.67-.75.25c.25.5.75.25.75-.25Zm-3.23,40.51c-.5,0-.75.25-.5.75.5-.5.25-1,.5-.75.25,0,.25,0,.25-.25h0l-.25.25Zm-.75-3.73.75-.5c-.75-.25-.75.25-.75.5Zm2.49,10.44c-.5,1-1.49,1.49-1.74,2.73,1.49,0,2-1.49,2.73-2.73h-1c-.5,1,.25,0,0,0Zm-.75-10.69s.5-.25.5-.5-.25.5-.5.5Zm1-1.24.75-.25c0-.5-.75-.5-.75.25.25-.25,0-.25,0,0Zm1-10.94-.5.75c.75,0,.75,0,.5-.75Zm-.75-21.13-.25.25c.5-.75-.25,0,.5-.5-.25-.5,0,.25-.25.25Zm0,2.49c-.5,0-.75.25-.5.75.5-.5.25-1.24.5-.75.25,0,.25,0,.25-.25h0c0-.25-.25.25-.25.25Zm-1.24-1,.5-.75c-.5,0-.5,0-.5.75Zm.5,17.4-.5.25c0,.25.5.25.5-.25Zm0,2-.75.25c.5.5.75.25.75-.25Zm-1.49-14.42c0,1,.25,0,0,0s0,.25,0,0Zm-1,1.74-.25.25c.5-.75-.25,0,.5-.5-.25-.25,0,.25-.25.25Zm.25,1.74-.75.25c.5.5.75.25.75-.25Zm0,11.68s-.5.25-.5.5.25-.25.5-.5,0,.25,0,0ZM370.08,37.6c-.5,0-.5.25-.25.75.25-.25.5-.25.25-.75-.25-.75,0,.25,0,0Zm-.75,20.13a1.49,1.49,0,0,0-.25,1L372.81,54a10,10,0,0,0-3.48,3.73Zm1.49,11.43q0,.75.75,0a.47.47,0,0,0-.75,0Zm0-3.23.25,1c.5-1,.5-1.24-.25-1Zm-2.49-39,.75-.5c-1-.25-1,.25-.75.5Zm-.75,14.17.75-.5c-1-.5-.75,0-.75.5Zm0,17.4.5-.25c0-.25-.5-.25-.5.25Zm.5,11.43s-.5.25-.5.5.25-.25.5-.5,0,.25,0,0Zm-.5-24.36c0,.25.25.25.5,0s-.25-.5-.5,0Zm-.75-20.88c-.5,0-.5.25-.25.75.25,0,.5-.25.25-.75-.25.25,0,.5,0,0Zm-1,.75c0,1,.25,0,0,0s.25.25,0,0Zm.25,3.73c-.5,0-.5.25-.25.75.5,0,.5-.25.25-.75Zm-.25-5.22-.75,1c.75-.25.75,0,.75-1-.25.5,0,.5,0,0Zm-7-.5-.5.25c0,.5.5.25.5-.25Zm-.75,23.36c0,1,.25,0,0,0s0,.25,0,0Zm-.5-21.87c-.5,0-.5.25-.25.75.5-.25.5-.5.25-.75Zm.25,10.19h-.5l.25,1,.25-1Zm-1.24,1-1,.75c.75,0,1,.25,1-.75-.25.25.25.25,0,0Zm-1.49,1.49v.75a.37.37,0,1,0,0-.75c0,.5.25.25,0,0Zm-.25,6.71c-.25-.25-.5,0-.25.25.5-.75-.25,0,.5-.5-.25-.25-.25-.25-.25.25Zm.25,17.4c-.5-.25-.75,0-.5.25s.5,0,.5-.25Zm-.25-4c.25,0,.25-.25.25-.75-.25,0-.5.25-.25.75Zm-2.73-26.59c0,.25.25.5.75,0,0-.25-.25-.5-.75,0Zm0,7.7c.75.25.75,0,.75-.25Zm.75,6.71h-.75c.25.5.75.5.75,0-.25.25,0,.25,0,0Zm-.75.75.75,1c0-.5-.25-1-.75-1Zm.75,7.21h-.75c.25,1,.75,1,.75,0-.25.25,0,.5,0,0Zm-1,1.74c0,.25.75,0,0,0Zm-.25-15.41c-.5,0-.5.25-.25.75.25,0,.25-.25.25-.75-.25-.75-.25.25,0,0Zm-.5-3.73c-.5-.25-.75,0-.5.25s.75.25.5-.25,0,.25,0,0Zm0,21.37-.5.5c.5,0,.5,0,.5-.5Zm0,9.2a4.29,4.29,0,0,0-.75,1c.25-.25.25-.25-.25.75.5-.75,0-.25.25-1,1.24,2.24.75-2,.75-.75-.25.25,0,.5,0,0Zm-1.24-22.62c1,.25.75,0,.75-.5Zm-.75,22.12v1c.5,0,.5-1,0-1Zm0,4-.5.75c.25.25.75,0,1-.25s0-.75-.25-1q-.75.37,0,.75c0,.25-.25.25-.25-.25-.25.5-.25.25,0,0Zm-1-49.71v.75c.25,0,.25-.75,0-.75Zm0,23.36v.75c.25,0,.25-1,0-.75ZM346.71,19c-.5,0-.5.25-.25.75.25-.25.5-.5.25-.75Zm-.5,54.68.5-.25c0-.5-.5-.25-.5.25.25-.25,0-.25,0,0Zm.5-23.86V49c.25.25.75,0,.5-.25-.5,0-.5.75-.5,0,0,.25-.25.25-.75,1h.75c0-.25-.25,0,0,0Zm.75,27.84q0-.75-.75,0,0,.37.75,0C348,77.12,347.21,77.61,347.46,77.61Zm-.75-54.93,1-.75c-.75,0-1-.25-1,.75.25-.25,0-.25,0,0Zm.75,18.14.5-.5c-.5,0-.5,0-.5.5Zm.25,24.11c0,.25.25.5.75,0q0-.37-.75,0c0,.25.25,0,0,0Zm3,8.2c1-.25.25-.5,1.49,0,.5-1-2.73-2.24-2.49.5.25-.25.25,0,.25.25-.5-.5-1,0-1.74.25.75.5,1,.5,1,1.24q.75-1.49,1.49,0c.75,1.74-.25-1.74,0-2.24Zm2.24,4.47v-.5c-.75,0-2.73.5-1.49,1.74ZM353.17,57v-.5c-.5-.25-.25.5,0,.5Zm0-23.36c0,.5.25.5,1,0,0-.25-.25-.25-1,0-.75.75.5,0,0,0Zm.25,2.73c.5,0,.25,1.24,1.24.75-.5-.25-.25-1.24-1.24-.75Zm.75,8.95c-.25-.25-.25-.25-.25.25,0,.75,0,0,.25-.25Zm-.5,16.4c0-1-.25,0,0,0s0-.25,0,0Zm0-15.66c.5-.75-.25-.25,0,0s0-.25,0,0Zm1,19.14-.75.25c.5,0,.75,0,.75-.25Zm-.25,4.72c1,0,1,0,.75-.5Zm.75,4.47c-.5-.25-.75,0-.5.75l.5-.75Zm-.75,2.73c.75-.25,1,0,.75-1l-.75,1c.5-.5.25-.75,0,0Zm1-17.4c0-1-.25,0,0,0Zm.25-9.2a.24.24,0,0,0,.25-.25c-.5.75.25,0-.5.5.25.25-.25-.5.25-.25.25.25-.25,0,0,0Zm.5-6.71c.75.25.75-.25.5-.75-.25.5-.5,1-.5.75l-.25,1c0-.25.5-.75.25-1Zm-.25-2.49c0,1,.25,1.24,1,1.24a2.48,2.48,0,0,0-1-1.24c-.25.75.25.25,0,0Zm1.49,38.52-.25,1c.75,0,.25-.25.25-1-.25.5,0,.5,0,0Zm0-3v1c.5,0,.5-1,0-1,0,.5.25,0,0,0Zm.25,5.72c0-.25-.75,0,0,0Zm.75-.75c0-.75-.25,0,0,0Zm0-22.37v-.75a.37.37,0,0,0,0,.75c0-.25-.25,0,0,0Zm0-6.21c-1,0-1,0-.75.5Zm0-15.16a1.2,1.2,0,0,0,1.49.5c-.25-.25-1.24-.25-1.49-.5Zm1.24,13.17-.5.25c0,.25.5.25.5-.25Zm-.75,23.36v-.75c-.25,0-.25.75,0,.75Zm.75-3.48c0-.5,0-.5-.75,0a.47.47,0,0,0,.75,0c.25-.25-.25,0,0,0Zm1-23.36a1.94,1.94,0,0,0-.75,1c.25-.25.25-.25-.25.75,0,0,.5-1,.25-1Q361,48.91,360.63,47.79Zm0-10.44c-.5.75.25,0-.5.5,0,0,.75-.5.5-.5Zm0-.75c.25,0,.5-.25.25-.75-.5,0-.5.25-.25.75.25.75-.25-.25-.25,0Zm.25-5c0-2.24,1.49-1.24,1.74-3.48a10.59,10.59,0,0,0-3,2.73s-2,2-.5,2c0-.25-.75,0-.5.5.5-.5.75-.5.5,0a11.48,11.48,0,0,1,1.74-1.74c-.25-.5-.75.5,0,0Zm.75-5c0,.5,0,.5.5,0a.34.34,0,0,0-.5,0Zm1,16.16v-1c-.5.25-.5,1.24,0,1-.25-.25-.5,0,0,0Zm-.25,11.93h-.75V55l.75-.25c-.75,0-.75.25,0,0Zm0,5.22c0-.25-.25-.5-.75,0q0,.37.75,0h0Zm0-2.73c-.25-.25,0-.75.25-1-.5.75,0,.5-.25,1-1-2.24-.75,2-.75.75.5-.25.5-1,.75-.75h0c-.25,0-.25-.25-.25,0Zm.75,5.72c.25-.5,0-.75-.5-.5.25.5.25.75.5.5-.25-.25-.25,0-.25,0Zm0-26.59c0-.5,0-.5-.75,0a.47.47,0,0,0,.75,0c-.25-.25-.5,0-.25,0Zm0-4.47c0-.25-.25-.5-.75,0a.47.47,0,0,0,.75,0h0Zm-.25-5.47c.25-.75.5-.5,1-.5-.5-.5-1-.5-1-1.24l-1,1,1,.75c0-.25-.5-.25,0,0Zm1,60.15c.25,0,.25-.25.25-.5-.25.25-.5.75-.75,1,.25.5.25-.75.5-.5Zm.5-31.81c-.5,0-.5,0-.5.75Zm.5-20.38c0-.5,0-.5-.75,0q0,.37.75,0c.5-.25-.5,0-.25,0Zm0-3.23.5-.25c0-.25-.5-.25-.5.25Zm1.24,44.24.5-.25c-.25-.25-.75-.25-.5.25Zm1-23.86c0-.25-.25-.5-.75,0q0,.75.75,0c.5-.5-.5.25,0,0Zm0,10.19c.25.25.25.25.75,0v-.25l-.75.25Zm2.24,18.64c-1.74.25-1.49.75-1.74,2.49.5-.5,1-1.24,1.49-1.74Zm.25-5.22c.25-.25.25-.25.25-.5-.25.25-1,1.24-1,1.24.5-.5.75-.5.5,0a1.09,1.09,0,0,1,.25-.75c.25.25-.25,0,0,0Zm.5-9.2.75-.5c-1.24-.25-1,0-.75.5Zm0,1.74c0-.75-.25,0,0,0s0,.25,0,0Zm8.7,24.11c.5-.75-.25-.25,0,0s-.25,0,0,0Zm.25-.5c.5-.5,0-.25,0,0ZM380,90h.5c0-.5-.5-.25-.5,0Zm-4.72-6.21,6.21-7.46c-1.74-.75-10.94,11.68-11.43,14.17,1.74-1.24,5.22-4.23,5.22-6.71C377.28,81.59,375.29,84.57,375.29,83.83Zm6.21,9.2.5-.25c0-.5-.5-.25-.5.25.25-.25,0-.25,0,0Zm.75-17.4c.5-1,.25-1.49-.25-1.24-.25,1-.25,1.49.25,1.24Zm2-3.23a.53.53,0,0,0-.5.5v-.25c0,.25-.25.25-.75,1-.25,0,1.74,0,.75-.75,0,0,.5-.25.5-.5Zm.25,25.35c0-1-.25,0,0,0Zm-.25-8c1,0,1.24.25,1-1l-1,1c.5-.25.25-.5,0,0ZM386,56.49h0c.25-.25,0,0,.25-1-.25.25-1,1.24-1,1.24a.91.91,0,0,1,.75-.25Zm0,24.61h.5c0-.5-.5-.25-.5,0Zm.75-7c0-.75-.25,0,0,0Zm.75,2c0-.5,0-.5-.75,0a.47.47,0,0,0,.75,0Zm-.5-7.46c.75,0,.75-.25.5-.75-.5.5-.75,1-.5.75l-.5,1a1.88,1.88,0,0,0,.5-1Zm.25-13.92c.5,0,.5-.25.25-.75-.25.25-.5.5-.25.75.25,0,0-.25,0,0Zm.5,4.47v-.75c-.25,0-.25.75,0,.75Zm-.25-20.88h.75c0-.5-.75-.25-.75,0Zm1,40.26c.25-.5,0-.75-.25-.5-.25.5,0,.75.25.5Zm6.71-35c0,.75.25,0,0,0Zm0,37.53c-.25-.5-.75-.25-.75.25l.75-.25Zm-.75-5.22c.75,0,0-.25,0,0Zm0-31.56c0,.25.75,0,0,0Zm-.5,28.83q0,.37.75,0a.47.47,0,0,0-.75,0Zm-1.49-6c0,.75.25,0,0,0s-.25-.25,0,0Zm-1-4.23-.25,1c.75,0,.5-.25.25-1-.25.5,0,.5,0,0ZM390,39.84l.5-.75c-.5-.25-.5-.25-.5.75Zm-.75,13.92c0,.25.25.5.75,0q0-.75-.75,0ZM390,65.44l-.75.25c.5.5.75.25.75-.25Zm-.5,33.06h.5l-.25-1-.25,1Zm0-24.85h.5v-.25c-.5-.25-.75,0-.5.25ZM390,48l.75-.25c-.25-.5-.75-.25-.75.25Zm.75,49.46v-.75c-.25,0-.25.75,0,.75Zm.75-26.59c-.75.5-.25,1-.75.75v.5h0c.25.25,0-.5.25-.25.25-3.23.75,2.73.5-1Zm0,17.89c1,.25.75-.25.75-.5ZM392.2,95c.25.25.5-.25.25-.25-.75,1,.25-1-.75,1,.5.25.75,0,.5-.75-.25-1,0,.25,0,0Zm0,8.7h.5c0-.5-.5-.25-.5,0Zm.75-59.65c-.5,0-.5.25-.25.75.5,0,.5-.25.25-.75s0,.25,0,0Zm-.25,30.32v.5a.24.24,0,0,0,.25-.25c0-.25,0-.25-.25-.25C392.69,74.63,392.94,74.38,392.69,74.38Zm.5,14.42.5-.25c0-.25-.75-.25-.5.25Zm.5-11.93-.75.5c1,.25.75-.25.75-.5Zm-.75-24.36c.5,0,.75-.25.5-.75-.5.5-.25,1-.5.75h0l-.25.25a.24.24,0,0,0,.25-.25Zm1.24,49.21q0-.37-.75,0c.25.25.25.25.75,0Zm0-10.94q0,.75.75,0,0-.37-.75,0c.25.25.5,0,0,0Zm1,13.17c0-.25-.75,0,0,0,.25,0,0,.25,0,0Zm1.74-37.28q0,.37.75,0c-.25-.5-.25-.5-.75,0-.75.5.25,0,0,0Zm.5,16.65c-.25,0-.25.25-.25.75.5,0,.5-.25.25-.75Zm-.75-4.23c-1-.25-.75,0-.75.5Zm.25,14.17c.25.5.75.25.75-.25l-.75.25Zm.25,2.73c.5,0,.5-.25.25-.75-.25,0-.25.25-.25.75Zm1.74-22.37v.75c.5,0,.5-1,0-.75,0,.25.25,0,0,0Zm-.25,2.24c0,.5,1,.5,1-.25l-1,.25Zm.5,8.7q0,.75.75,0,0-.75-.75,0Zm0,14.17.75-.25c-.25-.5-.75-.25-.75.25Zm25.1-16.4c0-.25-.25-.25-.5,0s.25.5.5,0c.25,0,0,.25,0,0ZM424,58v.75a.37.37,0,0,0,0-.75c.25.5.25.25,0,0Zm-.5,7.46c0,.5,0,.5.75,0a.47.47,0,0,0-.75,0c-.25.25.25.25,0,0ZM421.27,80.1c.25,0,.25-.25.25-.75-.5,0-.5.25-.25.75Zm.25,4.72c-.25,0-.5.25-.25.75.25,0,.5-.25.25-.75-.5-.75,0,.25,0,0Zm-.25-14.91c.5,0,.25-.75,0-.5v.5Zm-.75,7.7.75-.5c-.75-.5-.75-.25-.75.5Zm.75,13.17c-.75,0-.75.25-.5.75.25-.5.5-1,.5-.75l.25-1c0,.25-.5.75-.25,1s0-.25,0,0Zm0,14.42-.5.25c-.25.5.5.25.5-.25Zm-.5-6.46c.25,0,0-1,0,0Zm-.25,18.64H420c0,.5.5.25.5,0Zm-.75-46.23v.75c.25,0,.25-.75,0-.75Zm0,2.49c0,.25.75,0,0,0-.25-.25,0-.25,0,0Zm-2.24-16.4c-.25.25.75,2,.75.25,0,.25-.25,0-.25-.25-.25-.25.75-.75.25.25,1-.5,1.24-1.24.5-2-.5,1-.5.5-.25,1-.25.25-.25-.25-.25-.25l-.75,1Zm1.74,47.47c-.25,0,0,.75,0,0Zm-.75-30.07c-.5,0-.5.25-.25.75.5-.25.5-.5.25-.75Zm-.75,18.14-.25-.75c-.25,0-.25.75.25.75-.25-.25-.25,0,0,0Zm0-26.35c-.5,0-.5.25-.25.75.25-.25.5-.5.25-.75ZM417,52.76c-.25.25-.25.25-.25.5.5-.75-.25,0,.5-.5-.25-.5,0,.25-.25,0Zm0,51.94-.25-.5c-.25,0-.25.75.25.5Zm-1-28.58c.75,0,1-.5.5-1.24-.75,0-.75.5-.5,1.24.25,0,0-.25,0,0Zm.5,3.23c0-.5-.5-.25-.5.25l.5-.25Zm0-11.43h-.75c.25.75.75.75.75,0ZM415.81,94v.75c.25,0,.25-.75,0-.75Zm-.75-29.82c0,1,.25,0,0,0s.25.25,0,0Zm.5,10.44-.75.25c0,.75.75.5.75-.25-.25.25,0,.25,0,0Zm-.25,6.46h-1v.25l1-.25c-.5,0-.5.25,0,0Zm-2.24-26.84c.5,0,.5,0,.5-.75Zm-.5-1.49-.25,1c.75,0,.5-.25.25-1C412.58,53.26,412.82,53.26,412.58,52.76Zm.25,3.48c-.5,0-.5.25-.25.75.5,0,.5-.25.25-.75.25,0,.25.25,0,0Zm-1.24,8.2c-.25.25-.25.25-.25.5.5-.75-.25,0,.5-.5-.25-.5.25.25-.25,0-.25-.25.25,0,0,0Zm-1.74-6.21c0,.25.25.5.75,0q-.37-.75-.75,0c-.75.5.25,0,0,0Zm-.75-2.49c-.25.25-.25.25-.25.5.5-.75-.25,0,.5-.5-.25-.5,0,.25-.25,0s.25,0,0,0Zm.25,10.94-.75-.5c.25,1,.5.75,0,2,.75,0,2.24-.75,1.49-2l-.75.5c0-.25.5-.25,0,0Zm-2.73,5.22c0-.25-.25-.25-.5,0-.25.5,0,.5.5,0Zm-.5-7c-.5,0-.5.25-.25.75.5,0,.5-.25.25-.75Zm-1,10.69c-.5,0-.5.25-.25.75.5-.25.5-.5.25-.75Zm0,22.87-.25,1c.75,0,.5-.25.25-1,0,.5.25.5,0,0Zm-1-23.86c-.5,0-.5,0-.5.5a.92.92,0,0,0,.75-.5c0-.5-.25,0,.25-1-.5.5,0,.25-.5,1,0-.25.25-.25,0,0Zm0,26.1c0-.25-.25-.25-.5,0s.25.25.5,0,0-.25,0,0Zm-.75-15.91-.25,1c.75,0,.5-.25.25-1,0,.5.25.5,0,0Zm0-35c.25,0,.25-.25.25-.75-.5,0-.5.25-.25.75.25,0,.25-.25,0,0Zm-1.74-6v.75a.37.37,0,0,0,0-.75c.25.25.25,0,0,0Zm.25,26.59h-.5c0,.5.5.5.5,0ZM400.4,45.3c-.25.75-.25,1.24.25,1,.25-1,0-1.24-.25-1,.25,0,.25-.25,0,0Zm0,17.65c.25,0,.5-.25.25-.75-.5,0-.5.25-.25.75.25.75.25-.25,0,0Zm.25,8.7c-.25,0-.5.25-.25.75.25,0,.5-.25.25-.75-.5-.75,0,.25,0,0Zm0,8.95c-.5,0-.5.25-.25.75.25-.25.5-.5.25-.75,0-.25.25,0,0,0Zm0,2.49c-.25,0-.25.25-.25.75.25,0,.5-.25.25-.75Zm0,8.95v-.75a.37.37,0,0,0,0,.75Zm.25-3q0-.37-.75,0c.25.25.25.5.75,0Zm.25-40.76v-.75c-.25,0-.25.75,0,.75.25-.25.25,0,0,0Zm.75,55.18q0-.75-.75,0c.25.5.25.5.75,0Zm0-.75h.5c0-.5-.5-.25-.5,0,.5-.25.25-.25.25-.25Zm1-33.06c.25-.5,0-.75-.25-.5s-.25.5.25.5c.25-.25.25,0,.25,0Zm0-24.36c0,.25.25.5.75,0-.25-.25-.25-.5-.75,0h0Zm.5,59.65-.25,1c.5,0,.25-.25.25-1,.25.25.5.25.25-.25Zm0,3,.75-.25c-.25-.5-.75-.25-.75.25.5-.25.25-.25.25-.25Zm.75-3.23.75-.5c-.5-.5-.5,0-.5.25Zm1,1.74v-.75a.37.37,0,0,0,0,.75l.25-.25Zm0,2.24h.5c0-.5-.75-.5-.5,0l.5-.25Zm.5-5.72q0-.75-.75,0,0,.75.75,0c.75-.5.25-.25.5-.25Zm0-17.89c0,.5,0,.5.75,0h-.75c.5,0,.75-.25.25-.25Zm0,20.13.75-.5c-.5-.5-.75,0-.75.5.75-.25.5-.25.5-.25Zm1,6.21v-.5c-.5-.25-.5.5,0,.5l.5-.25Zm0-37.28c.25-.5,0-.75-.25-.5-.25.5-.25.75.25.5l.5-.25Zm0-3c1.49-.75,1.24-.75,1.24-2.49a2.18,2.18,0,0,0-1.24,2.49c1-.5.5-.75.5-.25Zm.5,19.39c-.25,0,0,1,0,0,.5-.25.5,0,.5-.25Zm0,20.13v-.75a.37.37,0,0,0,0,.75c.5-.5.5-.25.5-.25Zm1,3.73v-1c-.75.25-.5,1.24,0,1,.5-.5.5-.25.5-.25Zm.5-28.08c.25,0,0-.75,0,0l.5-.25Zm0,21.37c1,.25.75-.25.75-.5Zm.5-23.61-.75.25c.25.5,1,.5,1.49.25-.25-.5-.5.5-.75-.5a1.09,1.09,0,0,0,.75-.25Zm-.5-2.49s.5-.25.5-.5-.25.25-.5.5.75-.25.75-.25Zm2-2.24c-1-.25-.75,0-.75.5Zm-.5,26.59c-.25,0-.25.25-.25.75.5,0,.5-.25.25-.75-.25-.75.75,0,.75-.25Zm-1.49,7,.75-.25-.75-.75v1c.75-.25.75-.5.75-.25Zm4-4.23c1-2.24-1.74-2.49-.75-1.74-.5.75-2,3.23-2,3.23a14.85,14.85,0,0,1,2.73-1.49c1.24-1.49.25,0,.75-.25Zm-2-24.85c.25,0,0-1,0,0,.75-.25.75-.5.75-.25Zm.25,11.68c0,.5.5.25.5-.25l-.5.25s.75-.5.75-.25Zm.75-.75h.75c-.25-.5-.75-.25-.75,0,.75-.25.5-.25.5-.25Zm1.49-13.42V80.6a.37.37,0,0,0,0,.75c.5-.5.5-.25.5-.25Zm-1-12.68c.5,1.24.75-.5.25-1.24-.5.75-.75.75-1.49.25a40.22,40.22,0,0,1-2.49,4.47c-.25-.5,0-.25-.75-.25,1,1,1,.5,2.24.75-.5-.5-.25,0-.75-.25,0-1,1-1.24,1-1.74.5-1.24,1.24-2,2-2,1,.75.5-.25.5-.25Zm1.24-16.9c0,.5.25.5.5,0,0-.25-.25-.25-.5,0-.5.5.75-.25.75-.25Zm.5,23.61c-.5,0-.5,0-.5.75Zm0,33.06c1.24-1.49.5-1,1-2.73-1-.5-1,2-1,2.73,1.24-1,.75-1,.75-.25Zm.75,7.21v-1c-.5,0-.5,1,0,1,.75-.75.5-.25.75-.25Zm1.49,7q0-.75-.75,0,0,.75.75,0c.75-.5.5-.25.75-.25Zm1-1.24v-.5c-.5,0-.5.75,0,.5.5-.5.5-.25.5-.25Zm-3.23-10.19a6.43,6.43,0,0,0,3.23-4.72c-1,0-3,3.73-3.23,4.72,2.24-1.24,1-1.74.75-.25Zm3.48-7.46c1-.5,1-1.24.25-2-1,.75-1,1.24-.25,2,1-.5.5-.75.75-.25ZM420,121.85l1.49-.25-.75-1.49a8,8,0,0,0-2.49,4.23,3,3,0,0,0,1.74-2.49c1-.25.75,0,.75-.25Zm1.49-27.59L422,94c0-1-.5.5-.5-1-1.24.25-1.49,1-.5,2l.5-.75c1-.25.5,0,.75-.25Zm0-9.94.75-.25c-.5-.5-.75-.5-.75.25l.75-.25Zm.75-14.42c-1-.25-.75,0-.75.5Zm0-8.45c.25-.25.25-.25.25-.5-.25.25-2.49,1.74-1.24,1.49,0,0,.75-1.24,1-1s.5-.25.5-.25Zm1,51.7c.75,0,.75-.25.5-.75a.88.88,0,0,0-.5.75l-.25,1c-.25-.25.25-1,.25-1l.5-.25Zm3-47q-.37,1.12.75,0a.47.47,0,0,0-.75,0c-.25.25.75-.25.5-.25ZM424.51,57c-.25.5,0,.75.25.5,0-.5,0-.75-.25-.5s.75-.25.5-.25Zm.25,16.16c-.25,0-.25.25-.25.75.5,0,.5-.25.25-.75-.25-.75.5,0,.5-.25Zm-1-.5.75-.25c-.25-.5-.75-.25-.75.25.75-.25.5-.25.5-.25Zm1,27.84c.25-.5,0-.75-.25-.5,0,.5,0,.5.25.5.5-.5.5-.25.5-.25Zm-.5-13.42h1c-.25-.75-1-.5-1,0,.75-.25.5-.25.5-.25ZM426,88.55q.37-1.12-.75,0a.47.47,0,0,0,.75,0c.5-.5.5-.25.5-.25ZM427,99c-1-.25-.75.25-.75.5Zm.5-33.8,0,0c.5-.5,0-.25,0,0,.75-.25.5-.5.5-.25Zm-.25-7,.5-.25c0-.25-.5-.25-.5.25.75-.25.5-.25.5-.25ZM430,81.59l-.5.25c0,.25.5.25.5-.25l.5-.25Zm-1-19.14v.75a.37.37,0,0,0,0-.75c.5,0,.75-.25.5-.25Zm.25,22.62,1.24-.25c-.25-1-.75-1-1.24.25C429.48,85.07,429.48,84.82,429.23,85.07Zm.75-1.49h.5c0-.5-.5-.5-.5,0,.25,0,0-.25,0,0Zm1.24-5.72c.5,0,.5-.25.25-.75-.25,0-.25.25-.25.75.25,0,0-.25,0,0Zm1,4.23c.25-.75.25-1-.25-1-.25,1-.25,1.24.25,1Zm0-11.18c.25-.5,0-.75-.25-.5s0,.5.25.5ZM434,77.37c.5,0,.5,0,.5-.75Zm1.24.25-1.24,1c.25,1,1.24,0,1.24-1-.75.5,0,.5,0,0Zm-2.49-1.24c-.25.5,0,.75.25.5s0-.75-.25-.5Zm.75,3-1,1.74h1.24l-.25-1.74c-.5.75,0,.75,0,0ZM433.2,91a22.4,22.4,0,0,0,2.24-2.49c-1.74.75-2.24.5-2.24,2.49,1-.75,0-.75,0,0Zm3-16.4h.5v-.25c-.5,0-.75.25-.5.25Zm4.47-4.47v.75a.37.37,0,0,0,0-.75Zm-1.74,3c.5,0,.5-.25.25-1-.25,0-.5.5-.25,1,.25,0,0-.25,0,0ZM440.66,89c.5,0,.75-.25.5-.5-.75.25-.5.75-.5.25,0,.25-.25.25-.75,1,.75,0,.75,0,.75-.75Zm1.49-11.68c0-.25-.75,0,0,0Zm.5,5.22v-.75c-.25,0-.25.75,0,.75Zm-.5-5.72c.5.25.75,0,.5-.5a.53.53,0,0,0-.5.5c.25-.25,0-.25,0,0Zm3-2.24v-1c-.75.25-.75,1.24-1,2,.5-.75,0-.75,1-1,0-.5-.25,0,0,0Zm.5,6.71q0-.75-.75,0c.25.25.25.5.75,0Zm0-6c-1-.25-.75.25-.75.5Zm.25-2.73c.25-.5,0-.75-.25-.5s0,.5.25.5Zm4.47,5.47c-.25,0-.25.25-.25.75.5,0,.5-.25.25-.75Zm0-3.48c-.5-.25-.75,0-.5.5.5-.25.5-.25.5-.5Zm-3,10.69c0-.25-.75,0,0,0Zm.25-7.21.5-.25c-.5-.25-.5-1-.25-1.49l.25-.25c-1-.75-.75,1.49-.5,2Zm2.24,5.22.5-.25c0-.75-.5.25-.75-.75-.5.25.25.5-.75,1,0,.75.5-.25.75.75.25,0,.25-.25.25-.75.25-.25,0,.25,0,0Zm1.24-2V80.6c-1,0-1,1,0,.75Zm6.46,3.23h.75c0-.75-.75-.5-.75,0ZM255.5,30.39c0,.25.25-.5,0,0Zm103.39,8.2Zm85.5,36.29ZM380,55.25Zm0,1,55.92,11.43c0-.25.25-.75-.25-.75,0,.5,0,1,.25.75ZM276.87,61c-.5-.25-.5.25,0,0ZM232.38,32.63c0-1.74-1.49,0,0,0C232.38,32.38,232.14,32.63,232.38,32.63Zm1.74-1.74c-.25.25.25.5.25.25-.5-.5-.25,0-.25-1q-.75.37,0,.75Zm-1.49,1c-.5-.5-.5,0,0,0ZM351.19,72.64c0-1.74-1.49,0,0,0C351.19,72.39,350.94,72.64,351.19,72.64Zm-2.24,1.24v.75q.75-.37,0-.75c0,.25.25.25,0,0Zm1.49-1c.5.25.25-.25,0,0ZM78,111.91l.25.5c.25-.75,0-.75-.25-.5ZM243.82,43.07c.5.5.5-.25,0,0Zm86,17.89c0,.5.5.25.75.25,0-.5-.5,0-.75-.25Zm-93.2-46.73-.25-.5c-.25.75-.25,1,.25.5Zm-.25.25h-.75q.37.75.75,0ZM256.49,57h.75q-.37-.75-.75,0ZM148.88,42.57c-.25.25,0,.5.25.75h0c.25-.75.25-1-.25-.75C148.88,42.82,149.12,42.57,148.88,42.57ZM249,32.88c-.75-.5-.25.25,0,0S248.79,32.88,249,32.88ZM409.59,70.41c0,.5,0,.5.25.75.25-.75.25-.75-.25-.75ZM418,102.47c.5-.75,0-.25,0,0Zm-182.43-83c0,.5,0,.5.75.25,0-.25-.5-.25-.75-.25S235.86,19.7,235.62,19.46Zm-4,14.42h.75q-.37-.75-.75,0C231.89,33.87,231.89,33.62,231.64,33.87Zm0-1.24c-.5,0-.25.5,0,0Zm52.44,1.24c0,.25-.25.75.25.75,0-.25.25-.75-.25-.75ZM97.43,79.35c0,.25-.25.75.25.75C97.68,79.85,97.92,79.35,97.43,79.35ZM451.1,76.12v.75q.75-.37,0-.75Zm-88.48-50.7.25.5c.25-1,.25-1-.25-.5ZM238.6,12h-.75q.37.75.75,0ZM120.79,78.11c-.5,0-.5.5,0,0ZM168,48.78c.5.5.5,0,0,0C168.26,49,168.26,48.78,168,48.78Zm254,45c.25.5.25-.25,0,0ZM234.12,16.22V17c.25-.25.25-.25,0-.75ZM80.28,97.75l-.5.25c.75.5,1,.25.5-.25ZM411.83,67.92l.25.5c.25-.75.25-1-.25-.5.25.25.25,0,0,0Zm1-.25v.75q.75-.37,0-.75ZM169.75,47l.25.25c0-.25,0-.25-.25-.25ZM281.84,36.6c-.25.5,0,.75.25.75,0-.5,0-.5-.25-.75S282.34,36.6,281.84,36.6Zm7.21,25.6c0,.25.25.5.75.25s-.25-.5-.75-.25ZM98.42,78.36c0,.5.5.25.75.5C98.92,78.36,98.67,78.61,98.42,78.36ZM289.8,61.46c-.25.5,0,.75.25.75a.91.91,0,0,0-.25-.75c-.25.25.25,0,0,0Zm120,8.7c0,.5,0,.5.75.25a.48.48,0,0,0-.75-.25C409.59,70.41,410.09,70.16,409.84,70.16ZM251,31.63a.91.91,0,0,0-.75.25c.75.25.75.25.75-.25Zm198.58,51.2c0,.5,0,.5.25.25.5,0,.25,0-.25-.25ZM170.75,47c0-1.74-1.74,0,0,0C170.75,46.8,170.5,47,170.75,47Z"/></g><path d="M117.56,160.38h1a4.68,4.68,0,0,1,5,4.23v.25a4.72,4.72,0,0,1-1.24,3.23L111.1,179.52v.25a12.48,12.48,0,0,1,3-.5c4.47,0,7,2.73,7.21,8.45v1.49c.25,4.23,1,5.47,4.47,5.47a50.29,50.29,0,0,0,10.69-1.24,2.24,2.24,0,0,0,1.24-.25,3.4,3.4,0,0,1,3.48,3.48h0a3.28,3.28,0,0,1-2.73,3.48,55.18,55.18,0,0,1-12.68,1.49c-7.7,0-11.43-3.23-11.93-11.68v-1.49c0-2.49-1-3.48-2.49-3.48a11.34,11.34,0,0,0-7.21,3.23A129.54,129.54,0,0,0,92.46,199.9a3.54,3.54,0,0,1-3,1.49,3.61,3.61,0,0,1-3.73-3.48,4.59,4.59,0,0,1,1.24-3l25.35-26.84v-.25l-17.4,3H94.2a3.55,3.55,0,0,1-3.48-3.48h0a3.34,3.34,0,0,1,3.23-3.48Zm1.49-10.19a3.73,3.73,0,0,1,2.73,3.48,3.61,3.61,0,0,1-3.48,3.73h0a3.15,3.15,0,0,1-1.49-.25,109.14,109.14,0,0,0-12.92-3.23,3.29,3.29,0,0,1-3.23-3.23,3.82,3.82,0,0,1,3.73-3.73h.75A66.61,66.61,0,0,1,119.05,150.19Z" style="fill:#221714"/><path d="M185.91,178.77a32.08,32.08,0,0,1,19.39-7.21c10.44,0,16.9,5.72,16.9,13.17,0,10.19-8.45,17.65-24.61,19.63h-.5a3.61,3.61,0,0,1-3.48-3.73,3.71,3.71,0,0,1,3.23-3.48c13.17-1.49,17.65-6.46,17.65-12.18,0-3.48-2.73-6.71-9.2-6.71a27.71,27.71,0,0,0-20.63,10.19,4.35,4.35,0,0,1-3.48,1.74,3.88,3.88,0,0,1-4-3.73v-1c.75-5,2.24-13.67,4.23-22.87a3.33,3.33,0,0,1,3.73-2.73,3.24,3.24,0,0,1,3.73,3v1c-1.24,6-2.49,10.94-3,14.91Zm20.38-27.34a4.07,4.07,0,0,1,2.49,3.73,3.61,3.61,0,0,1-3.48,3.73h0a4.68,4.68,0,0,1-2-.5c-3.48-1.49-7.21-3-10.94-4.23a3.43,3.43,0,0,1-2.49-3.23,4.25,4.25,0,0,1,3.73-4,2.24,2.24,0,0,1,1.24.25,63.19,63.19,0,0,1,11.43,4.23Z" style="fill:#221714"/><path d="M274.64,165.35a8.69,8.69,0,0,1,5.47-2,7.71,7.71,0,0,1,5.47,2.24,168.35,168.35,0,0,0,29.08,20.13,4.35,4.35,0,0,1,2.49,3.73,4.14,4.14,0,0,1-4,4.23,4.2,4.2,0,0,1-2.49-.75,169.89,169.89,0,0,1-28.58-21.13,2.67,2.67,0,0,0-3.48-.5l-.25.25c-3.23,2.49-8.45,6.71-12.92,10.44a3.74,3.74,0,0,1-2.73,1,3.82,3.82,0,0,1-3.73-3.73,4.25,4.25,0,0,1,1.74-3.23C265.44,172.31,270.41,168.33,274.64,165.35ZM294,160.87a2.75,2.75,0,0,1,3-2.49,1.77,1.77,0,0,1,1.49.75,37.45,37.45,0,0,1,5.22,5.72,2.37,2.37,0,0,1,.5,1.74,2.76,2.76,0,0,1-2.73,2.73,2.61,2.61,0,0,1-2.24-1.24,54.62,54.62,0,0,0-5-5.72c.25-.25,0-.75-.25-1.49Zm6.71-5.22a2.55,2.55,0,0,1,2.73-2.49,2.82,2.82,0,0,1,2,.75,36,36,0,0,1,5.22,5.47,2.82,2.82,0,0,1,.75,2,2.55,2.55,0,0,1-2.73,2.49,2.61,2.61,0,0,1-2.24-1.24,54.42,54.42,0,0,0-5-5.47A1.77,1.77,0,0,1,300.73,155.66Z" style="fill:#221714"/><path d="M370.08,171.56a24.43,24.43,0,0,1,8.45-1.74c10.44,0,17.15,5.72,17.15,14.91,0,11.68-8.45,19.14-21.37,19.14-9.2,0-14.91-4.72-14.91-10.69,0-5,3.23-8.45,9.2-8.45,6.46,0,10.94,4.23,12.92,10.94A11.24,11.24,0,0,0,388,184.73c0-4.72-3.73-8.45-10.19-8.45s-13.42,2.24-21.62,8.7a3.74,3.74,0,0,1-2.73,1,3.82,3.82,0,0,1-3.73-3.73,4.25,4.25,0,0,1,1.74-3.23,149.69,149.69,0,0,0,22.62-22.62c-3.23.5-7.7,1-10.94,1.24-.25,0-2,.25-3,.25a3.07,3.07,0,0,1-3.23-3.48v-.25a3.52,3.52,0,0,1,3.23-3.48h0c5.47-.25,12.43-1.24,18.89-2.24a4.73,4.73,0,0,1,5.47,4v.25a5.23,5.23,0,0,1-1.24,3.23,156.86,156.86,0,0,1-13.17,15.66Zm4.47,25.6c-1.24-4.23-3.23-6.46-6-6.46a2.35,2.35,0,0,0-2.49,2.49c0,2.24,2.49,4,7.7,4Z" style="fill:#221714"/><path d="M145.64,107.94l-4.23-10.69" style="fill:none;stroke:#221714;stroke-linecap:round;stroke-miterlimit:10;stroke-width:1.33000004291534px"/><path d="M134.71,112.41,130.23,102" style="fill:none;stroke:#221714;stroke-linecap:round;stroke-miterlimit:10;stroke-width:1.33000004291534px"/><path d="M124.27,117.63l-5.22-10.19" style="fill:none;stroke:#221714;stroke-linecap:round;stroke-miterlimit:10;stroke-width:1.33000004291534px"/><path d="M156.58,104,152.85,93" style="fill:none;stroke:#221714;stroke-linecap:round;stroke-miterlimit:10;stroke-width:1.33000004291534px"/><path d="M167.52,100.48,164.28,89.3" style="fill:none;stroke:#221714;stroke-linecap:round;stroke-miterlimit:10;stroke-width:1.33000004291534px"/><path d="M178.7,97.5,176,86.31" style="fill:none;stroke:#221714;stroke-linecap:round;stroke-miterlimit:10;stroke-width:1.33000004291534px"/><path d="M189.88,95l-2.24-11.18" style="fill:none;stroke:#221714;stroke-linecap:round;stroke-miterlimit:10;stroke-width:1.33000004291534px"/><path d="M201.07,93l-1.74-11.43" style="fill:none;stroke:#221714;stroke-linecap:round;stroke-miterlimit:10;stroke-width:1.33000004291534px"/><path d="M212.5,91.53,211.26,80.1" style="fill:none;stroke:#221714;stroke-linecap:round;stroke-miterlimit:10;stroke-width:1.33000004291534px"/><path d="M223.93,90.54l-.75-11.43" style="fill:none;stroke:#221714;stroke-linecap:round;stroke-miterlimit:10;stroke-width:1.33000004291534px"/><path d="M235.37,90l-.25-11.43" style="fill:none;stroke:#221714;stroke-linecap:round;stroke-miterlimit:10;stroke-width:1.33000004291534px"/><path d="M246.8,90,247,78.61" style="fill:none;stroke:#221714;stroke-linecap:round;stroke-miterlimit:10;stroke-width:1.33000004291534px"/><path d="M258.23,90.54,259,79.11" style="fill:none;stroke:#221714;stroke-linecap:round;stroke-miterlimit:10;stroke-width:1.33000004291534px"/><path d="M269.67,91.53l1.24-11.43" style="fill:none;stroke:#221714;stroke-linecap:round;stroke-miterlimit:10;stroke-width:1.33000004291534px"/><path d="M281.1,93l1.74-11.43" style="fill:none;stroke:#221714;stroke-linecap:round;stroke-miterlimit:10;stroke-width:1.33000004291534px"/><path d="M292.28,95l2.24-11.18" style="fill:none;stroke:#221714;stroke-linecap:round;stroke-miterlimit:10;stroke-width:1.33000004291534px"/><path d="M303.47,97.5l2.73-11.18" style="fill:none;stroke:#221714;stroke-linecap:round;stroke-miterlimit:10;stroke-width:1.33000004291534px"/><path d="M314.65,100.48l3.23-11.18" style="fill:none;stroke:#221714;stroke-linecap:round;stroke-miterlimit:10;stroke-width:1.33000004291534px"/><path d="M325.84,104,329.56,93" style="fill:none;stroke:#221714;stroke-linecap:round;stroke-miterlimit:10;stroke-width:1.33000004291534px"/><path d="M336.52,107.94l4.23-10.69" style="fill:none;stroke:#221714;stroke-linecap:round;stroke-miterlimit:10;stroke-width:1.33000004291534px"/><path d="M347.46,112.41,352.18,102" style="fill:none;stroke:#221714;stroke-linecap:round;stroke-miterlimit:10;stroke-width:1.33000004291534px"/><path d="M357.9,117.63l5.22-10.19" style="fill:none;stroke:#221714;stroke-linecap:round;stroke-miterlimit:10;stroke-width:1.33000004291534px"/><path d="M141.17,27.41a2.21,2.21,0,0,1,3,1.74v.25c0,.5.5,3,.75,4.23,3,15.91,7,19.39,8.95,18.89,1-.25,2-1.24,2.24-4.72a2.42,2.42,0,0,1,2-2.49,2.56,2.56,0,0,1,3,1.74v1c-.5,6.46-3,9.2-6,9.69-6.46,1.24-12.18-6-15.41-23.11-.5-2-.5-3.48-.75-4.72A2.45,2.45,0,0,1,141.17,27.41Zm37.78,12.43c.25.25.25.5.5,1a2.73,2.73,0,0,1-2,3h0a2.5,2.5,0,0,1-2.73-1.24,38,38,0,0,0-10.19-10.69,2,2,0,0,1-1-1.49,2.33,2.33,0,0,1,2-2.73,3.69,3.69,0,0,1,2.24.5,31.61,31.61,0,0,1,11.18,11.68Z" style="fill:#fff"/><path d="M216.48,18.21l3-.25c2.73-.25,5.22-.25,7.46-.25A2.45,2.45,0,0,1,229.4,20a2.22,2.22,0,0,1-2,2.49h-.25c-1.74,0-3.73.25-5.72.25l-4.47.25a27.53,27.53,0,0,0,.5,4.72,76.36,76.36,0,0,0,8.45-1.24h.25a2.26,2.26,0,0,1,2.49,2h0a2.68,2.68,0,0,1-2,2.49,86.41,86.41,0,0,1-8.95,1.24l.75,6a40.17,40.17,0,0,1,11.93,4.23,3,3,0,0,1,1.74,2.49,3,3,0,0,1-2.49,3c-.5,0-1.24,0-1.49-.5a55,55,0,0,0-8.7-4v.25c.25,5-4,7.7-9.2,8-5.72.25-9.44-2.24-9.94-6.46s3-7.21,9.44-7.7h3.73c-.25-1.74-.5-3.23-.75-5l-2.73.25c-2.73.25-5.47.25-7.21.25a2.23,2.23,0,0,1-2.24-2.24,2.28,2.28,0,0,1,2.24-2.49h7l2.49-.25c-.25-1.74-.25-3.23-.5-5-4,.25-7.7.75-10.94,1a2.7,2.7,0,0,1-2.73-2.24A2.7,2.7,0,0,1,200.32,19c3.23-.25,7-.75,10.94-1L211,13.24a2.72,2.72,0,0,1,5.22-.5h0Zm-2.24,25.6v-1a12.06,12.06,0,0,0-4.23,0c-3.48.25-4.47,1.49-4.47,2.73s1.24,2.24,4.23,2S214.24,45.8,214.24,43.81Z" style="fill:#fff"/><path d="M257.24,47.79A2.52,2.52,0,0,1,254.75,49a2.35,2.35,0,0,1-2.49-2.49,3.53,3.53,0,0,1,.5-1.49,75.27,75.27,0,0,0,8-17.65,37.23,37.23,0,0,0-5.47.5h-.5a1.9,1.9,0,0,1-2-2.24v-.25A2.23,2.23,0,0,1,255,23.18l7.46-.75c.75-2.73,1.24-5.72,1.74-8.45a2.25,2.25,0,0,1,2.73-2.24c1.49.25,2.49,1.24,2.24,2.73h0v.25l-1.49,7.46h2.49c6,.25,8,3,7.46,10.19a52.85,52.85,0,0,1-1.74,10.94c-1.74,5.22-4,7-8.45,6.71a12.47,12.47,0,0,1-3-.5,2.22,2.22,0,0,1-2-2.49,2.35,2.35,0,0,1,2.49-2.49h.5a8.46,8.46,0,0,0,2.49.25c1.74,0,2.49-.25,3.48-3a43.82,43.82,0,0,0,1.74-9.94c.25-4.23-.5-5.22-2.73-5.47h-3.48A105.31,105.31,0,0,1,257.24,47.79ZM292,30.89a3.15,3.15,0,0,1,.25,1.49,2.55,2.55,0,0,1-2.73,2.49h0a2.62,2.62,0,0,1-2.49-2,45.87,45.87,0,0,0-6-9.94,2.32,2.32,0,0,1,0-3.23,1.93,1.93,0,0,1,2-.5,3.07,3.07,0,0,1,2,1,46.25,46.25,0,0,1,7,10.69Z" style="fill:#fff"/><path d="M317.63,39.34a20.88,20.88,0,0,1,13.92-2.24c7.21,1.24,10.69,6.21,9.69,11.18-1.24,7-8,10.94-19.14,9.94h-.5a2.53,2.53,0,1,1,1-5c8.95.75,12.68-2,13.42-6,.5-2.24-1-5-5.22-5.72A20.43,20.43,0,0,0,315.4,45.8a4.2,4.2,0,0,1-2.49.75,2.57,2.57,0,0,1-2.24-3h0c0-.25,0-.25.25-.5,1-3.23,3.23-8.95,5.72-14.91a2.83,2.83,0,0,1,3-1.49,2.64,2.64,0,0,1,2.24,2.49c0,.25,0,.25-.25.5-1.49,4-3,7.21-4,9.69ZM335,23.68a2.48,2.48,0,0,1,1,2.73,2.58,2.58,0,0,1-3,2h0a1.9,1.9,0,0,1-1.24-.5c-2.24-1.49-4.47-3-6.71-4.23a2.18,2.18,0,0,1-1.24-2.49A2.81,2.81,0,0,1,327.08,19c.25,0,.5.25.75.25A43.45,43.45,0,0,1,335,23.68Z" style="fill:#fff"/></g></g></svg>