<?xml version="1.0" encoding="utf-8"?>
<!-- Generator: Adobe Illustrator 21.0.0, SVG Export Plug-In . SVG Version: 6.00 Build 0)  -->
<svg version="1.1" id="レイヤー_1" xmlns="http://www.w3.org/2000/svg" xmlns:xlink="http://www.w3.org/1999/xlink" x="0px"
	 y="0px" viewBox="0 0 500 500" style="enable-background:new 0 0 500 500;" xml:space="preserve">
<style type="text/css">
	.st0{opacity:0.5;fill:#C7C7C7;}
	.st1{display:none;}
	.st2{display:inline;}
	.st3{fill:#4D4D4D;}
	.st4{fill:#F3B294;}
	.st5{opacity:0.1;fill:#221714;}
	.st6{fill:#E4D1BC;}
	.st7{fill:#FFFFFF;}
	.st8{fill:#717171;}
	.st9{fill:#E4E0DF;}
	.st10{fill:#7EACB7;}
	.st11{fill:#C0C1C1;}
	.st12{fill:#DAE19B;}
	.st13{opacity:0.15;fill:#040000;}
	.st14{fill:#A0A1A1;}
	.st15{fill:#474747;}
	.st16{fill:#AFAEAF;}
	.st17{fill:#C2C2C1;}
	.st18{fill:none;}
	.st19{fill:#E8E8E8;}
	.st20{fill:#F4F4F4;}
	.st21{fill:#292F2F;}
	.st22{fill:#353B3C;}
	.st23{fill:#F3F2F2;}
	.st24{fill:#807B6C;}
	.st25{fill:#E6E6E6;}
	.st26{fill:#D3D4D4;}
	.st27{fill:#D5D5D6;}
	.st28{fill:#C6C6C6;}
	.st29{fill:#EEB75B;}
	.st30{fill:#E7A833;}
	.st31{fill:#EFEFEF;}
	.st32{fill:#99D1D6;}
	.st33{opacity:0.1;fill:#040000;}
	.st34{fill:#F5F5F6;}
	.st35{fill:#D7D7D8;}
	.st36{fill:#42351C;}
	.st37{fill:#E57474;}
	.st38{opacity:0.12;fill:#FFFFFF;}
	.st39{opacity:0.7;fill:#FFFFFF;}
</style>
<rect class="st0" width="500" height="500"/>
<g class="st1">
	<g class="st2">
		<g>
			<path class="st3" d="M125,410.5c-2.1,2.9-4.4,5.9-6.9,8.4l-4.5-2c5.5-5.2,14.2-15.9,18.1-28.7c3.4,0.8,6,1.7,6,2.7
				c0,0.4-0.6,0.8-1.6,0.8c-0.1,0-0.4-0.1-0.6-0.1c-1.2,2.8-3.3,7.3-6.2,12.2h0.7c1.1,0.1,1.6,0.4,1.6,0.8c0,0.5-0.8,1.1-2,1.5
				l-0.3,44.8h-4.9L125,410.5z M130.9,433.4c9.3-6.2,17.4-18.4,20.7-26h-17.1v-4.3h18.1v-9.3c0,0,0-3-0.1-5.1
				c0.4,0.1,3.2,0.1,5.5,0.4c0.8,0.1,1.3,0.5,1.3,0.9c0,0.4-0.6,0.9-2.1,1.2c-0.1,1.3-0.1,3.2-0.1,3.2v8.7h20v4.3h-19
				c4.1,8.6,13.9,20.6,22,25l-5.4,3c-10-8.8-16.3-20.5-17.9-23.5c0.1,7,0.4,17.3,0.4,20v1.2H168v4.2h-10.9v13.6h-4.5v-13.6h-10.8
				v-4.2h10.8v-1.2c0-2.2,0.1-12,0.3-19.1c-2.1,4.7-7.6,14.7-17.1,23.4L130.9,433.4z"/>
			<path class="st3" d="M188.6,445.5c0.4-1.1,2.2-7.1,2.5-17.7l3.3,0.2c-0.1,1.8-0.5,12.1-2.1,18L188.6,445.5z M199.7,444
				c1.2,0.1,3.9,0.3,5.3,0.3c5.1,0,5.7-5.1,5.7-17.7c0-1,0-1.9,0-2.8h-14.9v2.1h-3.8v-35.2h22.8v3.7h-8.5v6h7.6v3.6h-7.6v6h6.7
				l-0.5-0.3c12.6-6.7,18.7-20.1,19.1-21.2c4.4,1.1,4.8,1.3,4.8,1.8c0,0.4-0.6,0.7-1.6,0.7c0,0-0.1,0-0.1,0l-0.1,0.1
				c2.2,3.3,9.1,12.2,19.5,17.2l-4.6,2.9c-2.5-1.5-4.7-3.3-6.7-5.1v2.9h-8v5.4h13.5v18.1h-3.9v-2.5h-9c1.8,5.3,6.7,13.7,18.8,16.4
				l-4.8,3.7c-9.4-3.6-13.9-10.7-16-16c-2.7,8.1-9,13.8-17.7,16.7l-4.2-3.2c10.2-2.5,17-8.1,18.9-17.5h-7.7v3.3H219v-18.9h12.1v-5.4
				H224v-2.7c-2,2-4.4,4-7.1,5.7l-3.2-1.8v3.4h-7.3v6.5h8.4c0,0.4,0,0.8,0,1.3c0,6.5-0.5,17-1.1,19.7c-1.8,6.7-5.2,7.7-11.1,7.7
				L199.7,444z M202.7,400.4v-6h-6.8v6H202.7z M202.7,410v-6h-6.8v6H202.7z M202.7,420.3v-6.5h-6.8v6.5H202.7z M196.1,441
				c0.1-0.5,0.3-3.3,0.3-6.8c0-1.9-0.1-4.1-0.3-6.2l2.7-0.3c0.1,0.6,0.6,6.6,0.6,10.7c0,0.7-0.1,1.3-0.1,1.9L196.1,441z
				 M201.7,439.2c-0.1-0.7-0.2-6.2-1.5-11.6l2.4-0.5c0.1,0.7,1.7,7.4,1.9,11.1L201.7,439.2z M206.6,436.7c-0.1-0.6-0.6-4.6-2.2-9.8
				l2.3-0.8c0.1,0.6,2,5.8,2.4,9.5L206.6,436.7z M231,426.5c0.1-0.8,0.1-1.6,0.1-2.5V418h-8.3v8.5H231z M242.1,405.4
				c-4.3-4.1-7.6-8.4-9.2-10.7c-1.6,2.7-4.3,6.7-8,10.7H242.1z M244.5,426.5V418H235v8.5H244.5z"/>
			<path class="st3" d="M263.9,403.3c-0.1-0.1-0.1-0.2-0.1-0.3c0-0.1,0.1-0.3,0.3-0.3c0.1,0,0.1,0,0.1,0c1.7,0.1,3.3,0.2,5,0.2
				c3.3,0,6.6-0.3,9.9-0.6c4.4-0.5,9.5-0.9,14.7-1.3c-0.1-3.6-0.3-7-0.6-9.4c5,0,7.4,0.1,7.4,1.1c0,0.6-0.7,1.1-2,1.3
				c-0.1,1.5-0.2,3.9-0.3,6.7c4.8-0.3,9.8-0.4,14.4-0.4c2.2,0,4.2,0,6.2,0.1l-0.2,5.2c-4.7-0.6-9.5-0.8-14.3-0.8
				c-2.1,0-4.1,0.1-6.2,0.1c-0.1,4.6-0.1,9.4-0.1,12.3c2.4,3.2,2.8,7.4,2.8,9.6c0,8.1-6.2,16.9-19.3,21.7c-2.5-1.5-5.6-3.4-6.1-3.6
				c3.4-0.7,19.6-5,20.9-16.9c-1.6,2.7-4.2,4.8-8.4,4.8c-6.4,0-9.7-5.3-9.7-9.4c0-5.5,4.3-10.6,10.7-10.6c1.9,0,3.6,0.4,5,1.1
				c0-0.8,0-1.5,0-2.3c0-2,0-4.1-0.1-6.3c-5.7,0.4-10.9,1.1-15.6,1.8c-4.5,0.7-8.9,1.4-13.3,1.5L263.9,403.3z M289.1,416.7
				c-5.4,0-6.2,4.3-6.2,5.8c0,2.6,1.7,5.5,5.3,5.5c5.1,0,6-4.8,6-9.3C293,417.5,291.4,416.7,289.1,416.7z"/>
			<path class="st3" d="M331.4,429c-0.2-0.1-0.3-0.2-0.3-0.3c0-0.1,0.1-0.3,0.2-0.4c4.3-4,8-6.9,10-8.8c5.8-5.3,20.1-19.8,20.1-20.4
				c0-0.1-0.1-0.1-0.2-0.1s-0.3,0.1-0.6,0.1c-5.7,2.3-11.9,3.9-17.2,3.9c-0.5,0-1-0.1-1.5-0.1l-1.8-4.5c-0.1-0.1-0.1-0.3-0.1-0.4
				s0.1-0.2,0.3-0.2c0.1,0,0.1,0,0.2,0c1.5,0.2,3.1,0.3,4.7,0.3c5.9,0,11.9-1.3,17.9-3.2c0.7-0.2,0.9-0.7,1.4-0.7c0.9,0,5,3.4,5,3.8
				c0,0.4-0.8,0.6-1.5,1.2c-5,4.2-20,18.7-19.8,18.7c0.1,0,0.4-0.1,0.6-0.2c5.7-2.6,11.1-2.8,13-2.8c9,0,16.3,5,16.3,12.8
				c0,10.3-10.6,18.6-23.2,18.6c-8.6,0-15.5-3.9-15.5-9c0-4.6,4.6-6.7,8.9-6.7c6.8,0,10.9,4.3,10.9,9.7c0,0.4-0.1,0.7-0.1,1.1
				c10.3-2.3,13.5-9.5,13.5-13.2c0-7.4-5.7-9.5-11.7-9.5c-14,0-21.4,8.5-25,12.7L331.4,429z M354.4,440.4c0-2.1-0.8-6-6.7-6
				c-3,0-4.1,1.5-4.1,2.9c0,2.6,4.3,4.7,9.8,4.7c0.3,0,0.6,0,0.8,0C354.3,441.4,354.4,440.9,354.4,440.4z"/>
		</g>
	</g>
	<g class="st2">
		<rect x="89.8" y="37.2" class="st4" width="320.3" height="320.3"/>
		<path class="st5" d="M370,194L324,148.1l-12.6-12.6c-1.7-0.5-3.5-0.8-5.4-0.8h-34.6c-2.5,0-4,0-4,0v9.8c0,0,5.4,0,12.7,0l8.8,18.4
			h-32.6l-24.5-24.5l0.1-4.7h-54.7l0.2,21.8l22-2.7l7.4,15.4l-12.2,27.2c-4.9-1.6-10.2-2.5-15.7-2.5c-13.7,0-26.2,5.6-35.2,14.6
			c-9,9-14.6,21.5-14.6,35.2c0,8.2,2,16,5.6,22.8l21.4,21.5l70.6,70.6h183.6V234.2L370,194z"/>
		<g>
			<g>
				<circle class="st6" cx="179.3" cy="242" r="41.9"/>
				<circle class="st7" cx="179.3" cy="242" r="41.9"/>
				<path class="st8" d="M214.5,206.7c-9-9-21.5-14.6-35.2-14.6c-13.7,0-26.2,5.6-35.2,14.6c-9,9-14.6,21.5-14.6,35.2
					c0,13.7,5.6,26.2,14.6,35.2c9,9,21.5,14.6,35.2,14.6c13.7,0,26.2-5.6,35.2-14.6c9-9,14.6-21.5,14.6-35.2
					C229.1,228.2,223.5,215.7,214.5,206.7z M203.4,266c-6.2,6.2-14.6,10-24.1,10c-9.4,0-17.9-3.8-24.1-10c-6.2-6.2-10-14.6-10-24.1
					c0-9.4,3.8-17.9,10-24.1c6.2-6.2,14.6-10,24.1-10c9.4,0,17.9,3.8,24.1,10c6.2,6.2,10,14.6,10,24.1
					C213.3,251.4,209.5,259.8,203.4,266z"/>
			</g>
			<path class="st6" d="M367.8,240.5c0,19.8-16.1,35.9-35.9,35.9c-19.8,0-35.9-16.1-35.9-35.9c0-19.8,16.1-35.9,35.9-35.9
				C351.7,204.5,367.8,220.6,367.8,240.5z"/>
			<g>
				<path class="st7" d="M373.8,240.5c0,23.1-18.8,41.9-41.9,41.9c-23.1,0-41.9-18.8-41.9-41.9c0-23.2,18.8-41.9,41.9-41.9
					C355.1,198.6,373.8,217.3,373.8,240.5z"/>
				<circle class="st9" cx="179.3" cy="242" r="30.3"/>
				<circle class="st9" cx="331.9" cy="240.5" r="30.3"/>
				<path class="st8" d="M367.1,205.3c-9-9-21.5-14.6-35.2-14.6c-13.7,0-26.2,5.6-35.2,14.6c-9,9-14.6,21.5-14.6,35.2
					c0,13.7,5.6,26.2,14.6,35.2c9,9,21.5,14.6,35.2,14.6c13.7,0,26.2-5.6,35.2-14.6c9-9,14.6-21.5,14.6-35.2
					C381.7,226.8,376.1,214.3,367.1,205.3z M356,264.6c-6.2,6.2-14.7,10-24.1,10c-9.4,0-17.9-3.8-24.1-10c-6.2-6.2-10-14.6-10-24.1
					c0-9.4,3.8-17.9,10-24.1c6.2-6.2,14.7-10,24.1-10c9.4,0,17.9,3.8,24.1,10c6.2,6.2,10,14.6,10,24.1
					C365.9,249.9,362.1,258.4,356,264.6z"/>
			</g>
			<path class="st10" d="M337.3,239.8l-49.2-103c-1.2-2.5-4.1-3.5-6.6-2.3c-2.4,1.2-3.5,4.1-2.3,6.6l10.1,21.2h-73.8l-12.1-25.4
				c-1.2-2.5-4.1-3.5-6.6-2.3c-2.5,1.2-3.5,4.1-2.3,6.6l12.7,26.5L175,239c-0.1,0.3-0.2,0.6-0.3,0.9l-0.2,1c-0.4,1.5,0,3,0.9,4.2
				c0.9,1.2,2.4,1.9,3.9,1.9h68.9c0.3,0,0.7,0,1-0.1c0,0,0,0,0,0c0.4-0.1,0.7-0.2,1-0.4c0.1,0,0.2-0.1,0.3-0.2
				c0.3-0.1,0.5-0.3,0.7-0.5c0.1-0.1,0.2-0.1,0.3-0.2c0.3-0.3,0.5-0.6,0.8-0.9c0,0,0,0,0,0l43.9-68l32.2,67.5
				c1.2,2.5,4.1,3.5,6.6,2.3C337.5,245.2,338.5,242.3,337.3,239.8z M248.8,231.9L220.3,172h67.2L248.8,231.9z M240.4,237h-53.7
				l26-57.9L240.4,237z"/>
			<polygon class="st8" points="177.8,154.8 232.1,148.2 232.3,133 177.6,133 			"/>
			<g>
				<path class="st11" d="M281.8,134c-3.9,0-7.4,0-9.9,0c-2.5,0-4,0-4,0v9.8c0,0,16.6,0,30.5,0V134C292.9,134,286.9,134,281.8,134z"
					/>
				<path class="st8" d="M321.1,140.9c-1.6-2-3.7-3.8-6.2-5c-2.5-1.2-5.4-1.9-8.5-1.9c-2.5,0-5.2,0-8.1,0v9.8c2.9,0,5.6,0,8.1,0
					c1.7,0,3,0.3,4.1,0.9c1.6,0.8,2.9,2.2,3.9,4c1,1.8,1.5,4,1.5,6.2c0,1.5-0.3,2.9-0.7,4.1c-0.4,1.2-1.1,2.2-1.8,2.9l7,7
					c1.9-1.9,3.2-4.2,4.1-6.6c0.9-2.4,1.3-4.9,1.3-7.5C325.8,150,324.3,145,321.1,140.9z"/>
			</g>
		</g>
	</g>
</g>
<g class="st1">
	<g class="st2">
		<g>
			<path class="st3" d="M185.8,446.7c19.6-1.5,22.9-10.7,23.3-18.1l0.1-1.2h-6.2v4h-4.3v-40.6h38.2v39.9h-4.5v-3.2h-6.2
				c-0.1,3.5-0.1,10.4-0.1,13.1c0,0.6,0,1.1,0,1.1c0.1,2.9,1.5,3.7,6.1,3.7c8.5,0,10.8-1.2,11.4-12.8l4.8,3.8
				c-1.3,12.3-6.6,13.6-15.8,13.6c-5.7,0-11.1-0.6-11.1-7.2c0,0,0-0.1,0-0.1l0.1-15.1h-7.2c0,0.5-0.1,1-0.1,1.3
				c-0.4,8.6-5.3,20.1-24.3,22.3L185.8,446.7z M232.4,401.3v-6.4h-29.4v6.4H232.4z M232.4,412.1v-6.5h-29.4v6.5H232.4z M232.3,423.3
				l0.1-6.9h-29.4v6.9H232.3z"/>
			<path class="st3" d="M260.7,429c-0.2-0.1-0.3-0.2-0.3-0.3c0-0.1,0.1-0.3,0.2-0.4c4.3-4,8-6.9,9.9-8.8
				c5.8-5.3,20.1-19.8,20.1-20.4c0-0.1-0.1-0.1-0.2-0.1c-0.1,0-0.4,0.1-0.6,0.1c-5.7,2.3-11.9,3.9-17.2,3.9c-0.5,0-1-0.1-1.5-0.1
				l-1.8-4.5c-0.1-0.1-0.1-0.3-0.1-0.4s0.1-0.2,0.3-0.2c0.1,0,0.1,0,0.2,0c1.5,0.2,3.1,0.3,4.7,0.3c5.9,0,11.9-1.3,17.9-3.2
				c0.7-0.2,0.9-0.7,1.4-0.7c0.9,0,5,3.4,5,3.8c0,0.4-0.8,0.6-1.5,1.2c-5,4.2-20,18.7-19.8,18.7c0.1,0,0.4-0.1,0.6-0.2
				c5.7-2.6,11.1-2.8,13-2.8c9,0,16.3,5,16.3,12.8c0,10.3-10.6,18.6-23.2,18.6c-8.6,0-15.5-3.9-15.5-9c0-4.6,4.6-6.7,8.9-6.7
				c6.8,0,10.9,4.3,10.9,9.7c0,0.4-0.1,0.7-0.1,1.1c10.3-2.3,13.5-9.5,13.5-13.2c0-7.4-5.7-9.5-11.7-9.5c-14,0-21.4,8.5-25,12.7
				L260.7,429z M283.6,440.4c0-2.1-0.8-6-6.7-6c-3,0-4.1,1.5-4.1,2.9c0,2.6,4.3,4.7,9.8,4.7c0.3,0,0.6,0,0.8,0
				C283.5,441.4,283.6,440.9,283.6,440.4z"/>
		</g>
	</g>
	<g class="st2">
		<rect x="89.8" y="37.2" class="st12" width="320.3" height="320.3"/>
		<path class="st13" d="M410.2,196v161.5h-138L229.7,315v-69.3h7.9v-12.2c-11-2.1-21.2-6.4-30.1-12.5c-2-1.3-4-2.8-5.8-4.3
			c-2.1-1.7-4.1-3.5-6-5.4l8.7-8.7l-20.4-36.7l21.6-73.7l97.7,11.5l7.4-7.4l7.1,7.1l5.4,5.4L410.2,196z"/>
		<path class="st14" d="M317.7,103.5c-2.1-3.3-4.4-6.4-6.9-9.4c-14.2-11.5-32.2-18.4-51.8-18.4c-1.4,0-2.8,0-4.2,0.1
			c-30.1,1.5-56,19.3-69,44.6c-0.4,0.7-0.8,1.5-1.1,2.2c-5.1,10.7-8,22.7-8,35.4c0,20.2,7.3,38.7,19.3,53c0.1,0.1,0.2,0.2,0.3,0.3
			c11.6,9.4,25.8,15.7,41.4,17.7h0c3.4,0.4,6.9,0.6,10.4,0.6c2.2,0,4.5-0.1,6.7-0.3c5-0.4,9.9-1.2,14.5-2.5
			c22-5.9,40.5-20.6,51.1-40.3c0.4-0.6,0.7-1.3,1-2c5.7-11.2,8.9-23.8,8.9-37.3C330.3,131.2,325.7,116.2,317.7,103.5z M189.7,147.4
			c0-32.2,26.1-58.3,58.3-58.3c2.2,0,4.5,0.1,6.7,0.4c14.8,1.7,27.8,8.9,37.1,19.5c0,0,0.1,0.1,0.1,0.1c0,0,0,0,0,0
			c0.6,0.7,1.3,1.5,1.9,2.3c0.3,0.3,0.5,0.7,0.7,1c1.2,1.4,2.2,2.9,3.1,4.5c5.5,8.9,8.6,19.3,8.6,30.5c0,29.9-22.6,54.6-51.6,58h0
			c-2.2,0.3-4.4,0.4-6.7,0.4c-13.1,0-25.2-4.4-35-11.7c0,0-0.1-0.1-0.1-0.1c-1.1-0.8-2.2-1.7-3.2-2.7c-0.4-0.3-0.8-0.7-1.2-1.1
			C197,179.6,189.7,164.3,189.7,147.4z"/>
		<path class="st15" d="M310.5,96.4c-0.2-0.3-0.4-0.5-0.6-0.8c-14.1-11.5-32.2-18.3-51.8-18.3c-1.2,0-2.3,0-3.4,0.1
			c-29.8,1.2-55.6,18.3-69,43c-0.4,0.7-0.8,1.5-1.1,2.2c-5.6,11.1-8.8,23.7-8.8,37c0,15.7,4.4,30.3,12,42.7c2.4,3.2,5,6.2,7.8,9
			c1.9,2,3.9,3.7,6,5.4c1.9,1.5,3.8,2.9,5.8,4.3c9.1,5.1,19.3,8.5,30.1,9.7h0c3.1,0.4,6.3,0.6,9.6,0.6c2.5,0,5.1-0.1,7.5-0.4
			c5-0.4,9.9-1.3,14.5-2.7c22.3-6.2,40.7-21.5,51.1-41.6c0.4-0.6,0.7-1.3,1-2c5.2-10.8,8.1-22.9,8.1-35.7
			C329.5,129,322.4,110.7,310.5,96.4z M316.4,159.6c0,28.4-20.3,52-47.2,57.2c-3.6,0.7-7.3,1.1-11.1,1.1c-1.2,0-2.3,0-3.4-0.1
			c-6-0.4-11.8-1.6-17.1-3.6h0c-10.1-3.8-18.8-10.2-25.3-18.5c-0.1-0.2-0.3-0.4-0.4-0.5c-1.2-1.6-2.3-3.2-3.3-4.9
			c-0.3-0.4-0.6-0.9-0.8-1.3c0,0,0-0.1-0.1-0.1c-5-8.6-7.9-18.6-7.9-29.2c0-31.1,24.3-56.5,54.9-58.2h0c1.1-0.1,2.2-0.1,3.4-0.1
			c13.1,0,25.2,4.3,34.9,11.6c0.2,0.1,0.4,0.3,0.5,0.4c1.4,1.1,2.8,2.3,4.1,3.5c2.2,2.1,4.3,4.3,6.1,6.6c0,0.1,0.1,0.1,0.1,0.2
			C311.8,133.5,316.4,146,316.4,159.6z"/>
		<path class="st16" d="M269.3,208.9v54.5h-31.7v-54.5c0.6,0.2,1.3,0.4,1.9,0.5c0.3,0.1,0.6,0.2,0.9,0.2c0.4,0.1,0.7,0.2,1.1,0.2
			c0.4,0.1,0.9,0.2,1.4,0.3c0.2,0,0.4,0.1,0.5,0.1c0.5,0.1,1,0.2,1.5,0.2c0.1,0,0.1,0,0.2,0c0.4,0.1,0.7,0.1,1.1,0.2
			c0.1,0,0.3,0,0.4,0c0.4,0.1,0.8,0.1,1.3,0.1c0.3,0.1,0.7,0.1,1,0.1c0.1,0,0.2,0,0.3,0c0.4,0,0.8,0.1,1.2,0.1c0.2,0,0.5,0,0.7,0h0
			c0.8,0,1.6,0.1,2.4,0.1h0.1c0.4,0,0.8,0,1.2,0h0.7c0.3,0,0.5,0,0.7,0h0.2c0.7,0,1.4-0.1,2.1-0.2c0.4,0,0.7-0.1,1.1-0.1
			c0.4,0,0.7-0.1,1-0.1c0.2,0,0.4,0,0.6-0.1c0.4,0,0.7-0.1,1.1-0.2c0.1,0,0.2,0,0.3,0c0.2,0,0.5-0.1,0.7-0.1h0.2c0,0,0,0,0,0
			c0,0,0,0,0.1,0c0.3,0,0.5-0.1,0.8-0.2c0.1,0,0.1,0,0.2,0c0.3,0,0.6-0.1,0.8-0.2c0.1,0,0.2,0,0.2-0.1c0.1,0,0.1,0,0.2,0
			c0.3,0,0.5-0.1,0.8-0.2c0.3,0,0.6-0.1,0.9-0.2c0.2,0,0.4-0.1,0.7-0.2c0.1,0,0.2-0.1,0.3-0.1C268.7,209.1,269,209,269.3,208.9z"/>
		<path class="st17" d="M269.3,236.2v54.5h-31.7v-54.5c5.1,1.4,10.3,2.2,15.9,2.2C258.9,238.4,264.3,237.6,269.3,236.2z"/>
		<path class="st18" d="M311.8,152.8c0-13.6-4.7-26.1-12.5-36c-10.4-13.3-26.5-21.9-44.6-22.3v116.6
			C286.3,210.4,311.8,184.6,311.8,152.8z"/>
		<path class="st18" d="M195.1,152.8c0,19.1,9.2,36.1,23.4,46.7c9.7,7.3,21.8,11.6,34.9,11.6c0.4,0,0.9,0,1.3,0V94.5
			c-0.4,0-0.8,0-1.3,0C221.2,94.5,195.1,120.6,195.1,152.8z"/>
		<path class="st19" d="M323.1,108.9c-2.1-3.3-4.4-6.5-6.9-9.4c-14.9-17.5-36.8-28.6-61.4-29c-0.4,0-0.9,0-1.3,0
			c-45.4,0-82.3,36.9-82.3,82.3c0,18.6,6.2,35.8,16.7,49.6c2.4,3.2,5,6.2,7.8,9c1.9,2,3.9,3.7,6,5.4c1.9,1.5,3.8,2.9,5.8,4.3
			c8.9,6.1,19.1,10.4,30.1,12.5h0c5.1,1,10.4,1.5,15.8,1.5c0.4,0,0.9,0,1.3,0c5-0.1,9.8-0.6,14.5-1.5c37.9-7.3,66.5-40.7,66.5-80.8
			C335.8,136.7,331.1,121.6,323.1,108.9z M295.8,112.7c0.6,0.6,1.2,1.3,1.8,1.9c0.6,0.7,1.2,1.4,1.7,2.1c1,1.3,2,2.7,2.9,4.1
			c0.6,0.9,1.2,1.8,1.7,2.8c0.1,0.2,0.3,0.4,0.4,0.6c0.4,0.6,0.7,1.2,1,1.9c0.6,1,1.1,2.1,1.5,3.1c0.3,0.6,0.6,1.2,0.8,1.9
			c0.3,0.7,0.6,1.5,0.9,2.3c0.2,0.4,0.3,0.9,0.4,1.4c0.3,0.7,0.5,1.5,0.7,2.2c0.1,0.4,0.3,0.8,0.3,1.2c0.2,0.7,0.4,1.5,0.5,2.2
			c0.2,0.7,0.3,1.4,0.4,2.1c0.2,0.9,0.3,1.8,0.4,2.7c0.1,0.8,0.2,1.7,0.3,2.5c0.1,0.8,0.1,1.7,0.2,2.5c0,0.8,0.1,1.7,0.1,2.5
			c0,1.2,0,2.3-0.1,3.5c-0.1,1.8-0.3,3.6-0.6,5.4c-0.2,1-0.3,1.9-0.5,2.9c0,0,0,0.1,0,0.1c-0.2,0.9-0.3,1.7-0.6,2.6
			c0,0.1,0,0.1,0,0.2c-0.2,0.9-0.4,1.7-0.7,2.6c-0.2,0.8-0.5,1.6-0.8,2.3c-1.3,3.7-2.9,7.2-4.9,10.4c-0.1,0.1-0.1,0.2-0.2,0.4
			c-0.4,0.7-0.8,1.3-1.2,2c-0.1,0.1-0.2,0.3-0.3,0.4c-0.3,0.4-0.6,0.8-0.9,1.2c-0.3,0.4-0.6,0.8-0.9,1.2c-0.5,0.7-1,1.4-1.6,2
			c-0.1,0.1-0.2,0.2-0.2,0.3c-0.6,0.7-1.2,1.3-1.7,2c-0.7,0.7-1.3,1.4-2.1,2.1c-0.6,0.6-1.2,1.2-1.8,1.7c-0.2,0.2-0.4,0.3-0.5,0.5
			c-0.7,0.6-1.4,1.2-2.2,1.8c-0.1,0.1-0.2,0.2-0.3,0.3c-0.5,0.4-1,0.8-1.5,1.1c-0.8,0.6-1.7,1.2-2.6,1.8c-0.6,0.4-1.3,0.9-2,1.2
			c-0.2,0.1-0.4,0.3-0.6,0.4c-0.7,0.4-1.5,0.9-2.3,1.3c-0.5,0.3-1.1,0.6-1.6,0.8c-1.1,0.5-2.2,1-3.3,1.5c-0.7,0.3-1.4,0.6-2.2,0.8
			c-0.4,0.2-0.7,0.3-1.1,0.4c-0.4,0.1-0.7,0.3-1.1,0.4c-0.2,0.1-0.4,0.2-0.7,0.2c-0.3,0.1-0.5,0.2-0.8,0.3c-0.2,0.1-0.3,0.1-0.4,0.2
			c-0.1,0-0.1,0-0.2,0.1c-0.3,0.1-0.6,0.2-0.9,0.2c-0.1,0-0.2,0.1-0.3,0.1c-0.2,0.1-0.4,0.1-0.7,0.2c-0.3,0.1-0.6,0.2-0.9,0.2
			c-0.3,0.1-0.5,0.1-0.8,0.2c-0.1,0-0.1,0-0.2,0c-0.1,0-0.2,0-0.2,0.1c-0.3,0.1-0.5,0.1-0.8,0.2c-0.1,0-0.1,0-0.2,0
			c-0.3,0.1-0.5,0.1-0.8,0.2c0,0,0,0-0.1,0c-0.1,0-0.2,0-0.2,0h-0.1c-0.2,0.1-0.4,0.1-0.6,0.1c-0.1,0-0.2,0-0.3,0
			c-0.4,0.1-0.7,0.1-1.1,0.2c-0.2,0-0.4,0-0.6,0.1c-0.4,0-0.7,0.1-1,0.1c-0.4,0-0.7,0.1-1.1,0.1c-0.7,0.1-1.4,0.1-2.1,0.2h-0.2
			c-0.3,0-0.5,0-0.7,0h-0.7c-0.4,0-0.8,0-1.2,0h-0.1c-0.8,0-1.6,0-2.4-0.1h0c-0.2,0-0.5,0-0.7,0c-0.4,0-0.8,0-1.2-0.1
			c-0.1,0-0.2,0-0.3,0c-0.4,0-0.7,0-1-0.1c-0.4,0-0.9-0.1-1.3-0.1c-0.5-0.1-1-0.1-1.5-0.2c-0.1,0-0.1,0-0.2,0c-0.5,0-1-0.1-1.5-0.2
			c-0.2,0-0.4-0.1-0.5-0.1c-0.5-0.1-1-0.2-1.4-0.3c-0.2,0-0.4-0.1-0.5-0.1c-0.2,0-0.4-0.1-0.5-0.1c-0.3,0-0.6-0.1-0.9-0.2
			c-0.6-0.1-1.3-0.3-1.9-0.5h0c-0.2-0.1-0.4-0.1-0.7-0.2c-0.7-0.2-1.5-0.4-2.2-0.7c-1.5-0.5-2.9-1-4.3-1.7c-1-0.4-1.9-0.8-2.9-1.3
			c-0.8-0.4-1.6-0.8-2.4-1.2c-0.8-0.4-1.5-0.9-2.3-1.3c-0.7-0.4-1.4-0.9-2.1-1.4c-0.7-0.5-1.5-1.1-2.2-1.6c-1.6-1.2-3.1-2.5-4.6-3.8
			c-0.4-0.4-0.9-0.8-1.3-1.2c-1-1-2-2-2.9-3c-0.7-0.8-1.4-1.6-2-2.4c0,0,0-0.1-0.1-0.1c-0.5-0.6-1-1.2-1.4-1.9
			c-0.8-1.1-1.6-2.3-2.4-3.5c-0.8-1.3-1.6-2.7-2.3-4.2c-0.5-1-1-2-1.4-3c-0.4-0.9-0.8-1.8-1.1-2.7c-0.1-0.3-0.2-0.5-0.3-0.7
			c-0.4-0.9-0.7-1.9-1-2.9c-0.2-0.8-0.5-1.6-0.7-2.4c-0.2-0.7-0.4-1.3-0.5-2c-0.6-2.6-1-5.3-1.2-8c-0.1-0.7-0.1-1.4-0.1-2.1
			c0-0.9-0.1-1.8-0.1-2.7c0-32.2,26.1-58.3,58.3-58.3h0c0.4,0,0.8,0,1.2,0h0c0.6,0,1.2,0,1.8,0.1c0.2,0,0.4,0,0.5,0
			c0.9,0,1.8,0.1,2.7,0.2c0.3,0,0.5,0,0.8,0.1c0.1,0,0.1,0,0.2,0c1,0.1,2,0.3,2.9,0.4c0.4,0.1,0.8,0.1,1.2,0.2
			c0.4,0.1,0.9,0.2,1.2,0.3c0.4,0.1,0.9,0.2,1.3,0.3c0.4,0.1,0.9,0.3,1.4,0.4c0.3,0.1,0.6,0.2,1,0.3c1.2,0.3,2.3,0.7,3.5,1.1
			c0.1,0,0.2,0.1,0.3,0.1c0.9,0.4,1.9,0.7,2.8,1.1c0.3,0.1,0.6,0.3,1,0.4c0.6,0.3,1.2,0.6,1.9,0.9c0.1,0,0.1,0.1,0.2,0.1
			c0.7,0.3,1.3,0.7,2,1c0.1,0.1,0.2,0.1,0.3,0.2c0.7,0.4,1.3,0.7,2,1.1c1.1,0.6,2.2,1.3,3.2,2.1c0.9,0.6,1.8,1.2,2.7,2
			c0.8,0.6,1.7,1.3,2.4,2c0,0,0.1,0.1,0.1,0.1c0,0,0,0,0,0c0.6,0.6,1.3,1.2,1.9,1.8c0.4,0.4,0.7,0.7,1.1,1.1
			C295.3,112.2,295.5,112.5,295.8,112.7z"/>
		<path class="st20" d="M254.7,70.5v24h-1.3c-32.2,0-58.3,26.1-58.3,58.3c0,0.9,0,1.8,0.1,2.7c0,0.7,0.1,1.4,0.1,2.1
			c0.2,2.7,0.6,5.4,1.2,8c0.1,0.7,0.3,1.3,0.5,2c0.2,0.8,0.4,1.6,0.7,2.4c0.3,1,0.6,2,1,2.9c0.1,0.3,0.2,0.5,0.3,0.7
			c0.4,0.9,0.7,1.8,1.1,2.7c0.4,1,0.9,2.1,1.4,3c0.7,1.4,1.5,2.8,2.3,4.2c0.8,1.2,1.5,2.4,2.4,3.5c0.5,0.6,1,1.3,1.4,1.9
			c0,0,0.1,0.1,0.1,0.1c0.6,0.8,1.3,1.6,2,2.4c0.9,1.1,1.9,2.1,2.9,3c0.4,0.4,0.9,0.8,1.3,1.2c1.5,1.3,3,2.6,4.6,3.8
			c0.7,0.5,1.5,1.1,2.2,1.6c0.7,0.5,1.4,0.9,2.1,1.4c0.8,0.5,1.5,0.9,2.3,1.3c0.8,0.4,1.6,0.9,2.4,1.2c0.9,0.5,1.9,0.9,2.9,1.3
			c1.4,0.6,2.8,1.2,4.3,1.7c0.7,0.3,1.5,0.5,2.2,0.7c0.2,0.1,0.4,0.2,0.7,0.2h0c0.6,0.2,1.2,0.4,1.9,0.5c0.3,0.1,0.6,0.2,0.9,0.2
			c0.2,0.1,0.4,0.1,0.5,0.1c0.2,0,0.4,0.1,0.5,0.1c0.4,0.1,0.9,0.2,1.4,0.3c0.2,0,0.4,0.1,0.5,0.1c0.5,0.1,1,0.2,1.5,0.2
			c0.1,0,0.1,0,0.2,0c0.5,0.1,1,0.1,1.5,0.2c0.4,0.1,0.8,0.1,1.3,0.1c0.3,0.1,0.7,0.1,1,0.1c0.1,0,0.2,0,0.3,0
			c0.4,0,0.8,0.1,1.2,0.1c0.2,0,0.5,0,0.7,0h0c0.8,0,1.6,0.1,2.4,0.1h0.1c0.4,0,0.8,0,1.2,0h0v24h-1.3c-5.4,0-10.7-0.5-15.8-1.5h0
			c-11-2.1-21.2-6.4-30.1-12.5c-2-1.3-4-2.8-5.8-4.3c-2.1-1.7-4.1-3.5-6-5.4c-2.9-2.8-5.5-5.8-7.8-9c-10.5-13.8-16.7-30.9-16.7-49.6
			c0-45.4,36.9-82.3,82.3-82.3C253.9,70.5,254.3,70.5,254.7,70.5z"/>
		<line class="st18" x1="254.7" y1="235.1" x2="253.6" y2="236.2"/>
		<path class="st21" d="M254.7,245.7v6.2h22.5v16.6h-22.5v55.7h17c3,0,5.4-2.4,5.4-5.4v-73H254.7z"/>
		<rect x="229.7" y="245.7" class="st22" width="25" height="6.2"/>
		<path class="st22" d="M254.7,268.5v55.7h-19.5c-3,0-5.4-2.5-5.4-5.5v-50.3H254.7z"/>
		<rect x="229.7" y="251.9" class="st23" width="25" height="16.6"/>
		<rect x="254.7" y="251.9" class="st19" width="22.5" height="16.6"/>
		<g>
			<path class="st7" d="M215.4,157.8c-2.6,0.1-5.5-3.7-5.8-10.8c-0.1-3.5,0.5-7.7,2.2-12c1.7-4.3,4.5-8.8,8.3-12.7
				c3.9-3.8,8.4-6.6,12.7-8.3c4.4-1.7,8.6-2.3,12-2.2c7,0.3,10.8,3.1,10.8,5.8c0,2.8-3.4,5.1-7.6,7.9c-4.2,2.8-9.2,6.3-13.9,10.9
				c-4.6,4.7-8.1,9.7-10.9,13.9C220.5,154.3,218.2,157.7,215.4,157.8z"/>
		</g>
	</g>
</g>
<g class="st1">
	<g class="st2">
		<g>
			<path class="st3" d="M166,408.4c-3,2.1-6.4,4.1-10.4,6l-5.2-2.7c20.1-8.3,29.4-22.4,30.3-24c4.5,0.8,5.5,1.3,5.5,1.8
				c0,0.5-0.9,0.9-1.9,1c3.2,3.5,12.7,13.4,30,19.3l-5.5,3.4c-3.6-1.5-6.9-3.3-9.9-5.2v23.1h-4.3v-1.5H184c0.6,1.8,1.8,4.6,4.3,7.4
				c2.7-0.8,11.4-3.7,17.4-7.2c0.1,0.1,3.9,4,3.9,4.7c0,0.4-0.2,0.6-0.7,0.6c-0.4,0-1.1-0.2-1.9-0.7c-3.6,1.6-11.9,4.6-15.3,5.6
				c4.6,3.4,11.8,6.2,23.1,6.2c0.3,0,0.6,0,0.8,0l-5.5,4.6c-21.9-1.5-28.6-15.9-30.4-21.2h-9.1v13c6.9-1.5,12.3-3.1,14-3.6l-0.1,4.4
				c-2.2,0.7-14.6,4.1-27.8,6.7c0.1,0.3,0.1,0.5,0.1,0.8c0,0.8-0.3,1.5-0.8,1.5c-0.9,0-3.1-5.1-3.6-6.3c4.6-0.6,9.4-1.5,13.8-2.5
				V408.4z M180,407.6v-3.5c0-0.4-0.1-2.8-0.1-4.3c1.3,0,6.9,0.4,6.9,1.4c0,0.6-0.9,1.1-2,1.2c-0.1,0.9-0.2,2.5-0.2,2.5v2.7h13.8
				c-8.4-5.5-14.2-11.7-16.4-14.2c-2.5,3.3-7.4,8.8-14.8,14.2H180z M194.8,416.6v-5.4h-24.4v5.4H194.8z M194.8,425.9v-5.7h-24.4v5.7
				H194.8z"/>
			<path class="st3" d="M224.6,425.7c-0.2-0.1-0.4-0.2-0.4-0.4c0-0.1,0.1-0.2,0.4-0.4c4.6-2.6,8.3-8.4,13.2-13.4
				c2.5-2.5,5.5-3.6,8.3-3.6c2.3,0,4.6,0.8,6.7,2.2c4.6,3.1,10.4,8.5,15.9,13.3c5.6,5,11.6,9.9,17.1,13.2l-5.7,3.6
				c-5.2-3.8-10.4-8.6-15.3-13.4c-13-12.5-15.6-14.5-18.4-14.5c-1.8,0-3.4,0.8-4.7,2.2c-3.7,3.8-8.1,11.4-12,14.2L224.6,425.7z
				 M263.5,403.7c1,0.6,6,4.1,9.2,7.7l-3.2,3.2c-2.7-3.1-5.6-6-9-8.2L263.5,403.7z M269.3,398.6c1,0.5,6.1,3.7,9.4,7.2l-3.2,3.2
				c-2.7-2.9-5.7-5.7-9.2-7.6L269.3,398.6z"/>
			<path class="st3" d="M296.3,429c-0.2-0.1-0.3-0.2-0.3-0.3c0-0.1,0.1-0.3,0.2-0.4c4.3-4,8-6.9,9.9-8.8
				c5.8-5.3,20.1-19.8,20.1-20.4c0-0.1-0.1-0.1-0.2-0.1c-0.1,0-0.4,0.1-0.6,0.1c-5.7,2.3-11.9,3.9-17.2,3.9c-0.5,0-1-0.1-1.5-0.1
				l-1.8-4.5c-0.1-0.1-0.1-0.3-0.1-0.4s0.1-0.2,0.3-0.2c0.1,0,0.1,0,0.2,0c1.5,0.2,3.1,0.3,4.7,0.3c5.9,0,11.9-1.3,17.9-3.2
				c0.7-0.2,0.9-0.7,1.4-0.7c0.9,0,5,3.4,5,3.8c0,0.4-0.8,0.6-1.5,1.2c-5,4.2-20,18.7-19.8,18.7c0.1,0,0.4-0.1,0.6-0.2
				c5.7-2.6,11.1-2.8,13-2.8c9,0,16.3,5,16.3,12.8c0,10.3-10.6,18.6-23.2,18.6c-8.6,0-15.5-3.9-15.5-9c0-4.6,4.6-6.7,8.9-6.7
				c6.8,0,10.9,4.3,10.9,9.7c0,0.4-0.1,0.7-0.1,1.1c10.3-2.3,13.5-9.5,13.5-13.2c0-7.4-5.7-9.5-11.7-9.5c-14,0-21.4,8.5-25,12.7
				L296.3,429z M319.2,440.4c0-2.1-0.8-6-6.7-6c-3,0-4.1,1.5-4.1,2.9c0,2.6,4.3,4.7,9.8,4.7c0.3,0,0.6,0,0.8,0
				C319.2,441.4,319.2,440.9,319.2,440.4z"/>
		</g>
	</g>
	<g class="st2">
		<rect x="89.8" y="37.2" class="st24" width="320.3" height="320.3"/>
		<path class="st5" d="M410.2,179.9v177.6H217.2l-49.7-49.7l0,0l-2.9-2.9c-0.5-1-0.8-2.2-0.8-3.4v-45L183,237l2.2-2.2l11.8-11.8
			l0.6-0.6l-0.2-0.2l-5.7-5.7l5.9-5.9l-12.3-12.3l-30.9-30.9l3.7-3.7L138.3,144l18.7-18.7l-19.2-19.2l8.3-8.3l8.2-8.2l0.1-0.1
			l19.2,19.2l1.2-1.3l10.4-10.4l7.2-7.2l0.3-0.3l19.8,19.8l19.8-19.8l45.6,45.6l3.5,3.5l43.8-43.8l1.6,1.6L410.2,179.9z"/>
		<g>
			<g>
				<path class="st25" d="M296.3,192.2c-5,0-7.5,0-13.1,0c-5.6,0-7.8-5-7.8-5l5-0.7h33.8V90.7c-0.3,0.1-0.5,0.2-0.8,0.3l-27,11.3
					c-3.3,1.4-5.6,4.3-6.1,7.8l-7,71.7c-0.5,2.9,0.3,5.9,2.2,8.2c1.9,2.3,4.7,3.6,7.6,3.7l15.5,0.4v106.2c0,3.2,2.6,5.8,5.8,5.8h9.7
					V192.2C307,192.2,298.9,192.2,296.3,192.2z"/>
				<path class="st26" d="M314.3,306h7.5c3.2,0,5.8-2.6,5.8-5.8v-108c0,0-6.3,0-13.3,0V306z"/>
				<path class="st26" d="M323.1,91.9c-2.6-1.7-5.8-2.2-8.8-1.2v95.7h13.3v-2.3v-4.6v-79.1C327.6,97,325.9,93.8,323.1,91.9z"/>
				<path class="st27" d="M275.5,187.1c0,0,2.2,5,7.8,5c5.6,0,8,0,13.1,0c2.6,0,10.7,0,18,0v-5.7h-33.8L275.5,187.1z"/>
				<path class="st28" d="M314.3,192.2c7,0,13.3,0,13.3,0v-5.7h-13.3V192.2z"/>
			</g>
			<g>
				<path class="st26" d="M224,86.2c-5.8,0-10.4,4.7-10.4,10.4c0,0,0,0.7,0,1.9c0,6,0,25,0,38c0,5-4,9-9,9c-5,0-9-4-9-9
					c0-15.7,0-39.2,0-39.2c0-5.8-4.7-10.4-10.4-10.4v219.8h8.6c3.2,0,5.8-2.6,5.8-5.8V187.1c2.8-0.7,5.4-1.7,7.8-2.8
					c4.7-2.1,8.8-4.9,12.2-7.9c5.1-4.5,8.7-9.6,11.1-14.3c1.2-2.4,2.1-4.7,2.8-7c0.3-1.1,0.6-2.2,0.8-3.4c0.2-1.1,0.3-2.3,0.3-3.5
					c0-7.5,0-51.8,0-51.8C234.5,90.8,229.8,86.2,224,86.2z"/>
				<path class="st25" d="M174.8,97.3c0,0,0,0.7,0,1.9c0,5.9,0,24.3,0,37.3c0,5-4,9-9,9c-5,0-9-4-9-9c0-15.6,0-39.9,0-39.9
					c0-5.8-4.7-10.4-10.4-10.4c-5.8,0-10.4,4.7-10.4,10.4c0,0,0,0.7,0,1.9c0,8.6,0,43.2,0,49.8c0,1.1,0.1,2.1,0.2,3.1
					c0.3,1.9,0.8,3.7,1.4,5.6c1.2,3.3,2.9,6.8,5.3,10.4c1.8,2.7,4,5.3,6.7,7.8c4,3.8,8.9,7.2,14.9,9.7c2,0.8,4.1,1.5,6.3,2.1v113.8
					c0,3.2,2.6,5.8,5.8,5.8h8.6V86.9C179.5,86.9,174.8,91.6,174.8,97.3z"/>
			</g>
			<g>
				<path class="st29" d="M185.2,223.1v85.5h-14.4c-1.2,0-2.4-0.3-3.4-0.8l0,0c-1.2-0.7-2.2-1.7-2.9-2.9l0,0c-0.5-1-0.8-2.2-0.8-3.4
					v-71.1c0-4,3.2-7.1,7.2-7.2H185.2z"/>
				<path class="st30" d="M199.6,223.1h-14.4v85.5h14.4c4,0,7.2-3.2,7.2-7.2v-71.1C206.8,226.3,203.6,223.1,199.6,223.1z"/>
			</g>
			<g>
				<path class="st29" d="M313.2,222.4h-14.4c-2,0-3.8,0.8-5.1,2.1c-1.3,1.3-2.1,3.1-2.1,5.1v35.6v35.6c0,2,0.8,3.8,2.1,5.1
					c1.3,1.3,3.1,2.1,5.1,2.1h14.4h1v-85.5H313.2z"/>
				<path class="st30" d="M332.7,224.5c-1.3-1.3-3.1-2.1-5.1-2.1h-13.3v85.5h13.3c2,0,3.8-0.8,5.1-2.1c1.3-1.3,2.1-3.1,2.1-5.1
					v-35.6v-35.6C334.8,227.6,334,225.8,332.7,224.5z"/>
			</g>
			<g>
				<path class="st31" d="M167.1,222.4c-4.1,0-7.3,3.3-7.3,7.3c0,4.1,3.3,7.3,7.3,7.3h18.2v-14.7H167.1z"/>
				<path class="st31" d="M203.4,222.4h-18.2V237h18.2c4.1,0,7.3-3.3,7.3-7.3C210.8,225.6,207.5,222.4,203.4,222.4z"/>
			</g>
			<path class="st31" d="M338.4,229c0,4.1-3.3,7.3-7.3,7.3h-36.3c-4.1,0-7.3-3.3-7.3-7.3l0,0c0-4.1,3.3-7.3,7.3-7.3H331
				C335.1,221.6,338.4,224.9,338.4,229L338.4,229z"/>
		</g>
	</g>
</g>
<g class="st1">
	<g class="st2">
		<g>
			<path class="st3" d="M187.9,447.3c13.2-1.7,22.6-6.9,24.4-8.3c4,2.9,4.3,3.9,4.3,4.2c0,0.4-0.3,0.6-0.8,0.6
				c-0.5,0-1.1-0.2-1.8-0.6c0,0-9.8,5.9-21.4,7.8L187.9,447.3z M194.2,391.1h53v15.1h-4.4v-1.9h-44.2v2.2h-4.4V391.1z M210.1,400.9
				v-6.2h-11.4v6.2H210.1z M200.7,408.8h39.9v30.5h-4.3v-2H205l0.1,2.2h-4.3V408.8z M236.3,417v-4.6l-31.3-0.1v4.6H236.3z
				 M236.3,425.3v-4.8H205v4.8H236.3z M236.3,433.7l-0.1-5H205v5H236.3z M226.5,400.9v-6.2h-12v6.2H226.5z M227.6,439.4
				c4.5,1.8,13,5.3,25.9,6.7l-4.8,4.2c-10.4-1.9-20-6-23.7-7.8L227.6,439.4z M242.8,400.9v-6.2h-12.1v6.2H242.8z"/>
			<path class="st3" d="M264.6,411c-0.1-0.1-0.1-0.2-0.1-0.3c0-0.1,0.1-0.2,0.3-0.2c3.4-0.6,6.4-1.5,9.7-2.7c3.9-1.3,8.8-3,13.2-3
				c9,0,13.4,6.9,13.4,16.3c0,13.5-9.1,22.1-24.2,27.3c-0.6-0.4-6.1-3.9-6.7-4.1c5.3-1.1,25.6-5.9,25.6-23.4
				c0-5.5-1.8-11.6-8.5-11.6c-3.6,0-7.7,1.7-10.4,2.9c-2.9,1.3-5.6,2.8-8.3,3.8L264.6,411z M273.4,391.3c4.7,1.2,9.5,1.8,14.7,1.8
				c2.5,0,5.2-0.1,8.1-0.4l-2.3,5.3c-1.2,0-2.3,0.1-3.5,0.1c-6.3,0-12.8-0.6-18.5-2.5L273.4,391.3z"/>
		</g>
	</g>
	<g class="st2">
		<rect x="90.1" y="37.3" class="st32" width="319.9" height="319.9"/>
		<path class="st33" d="M409.9,206.9v150.3H240l-62.6-62.6c0,0,0,0-0.1,0l-7.5-7.5c-1.1-2.2-1.8-4.6-1.8-7.3l-0.1-0.6l-15.4-90.1
			l-0.7-4.2c-0.6-0.6-1.2-1.2-1.6-1.9c-0.2-0.3-0.4-0.7-0.6-1c-0.4-0.7-0.8-1.4-1-2.2c-0.1-0.2-0.1-0.4-0.2-0.6
			c-0.1-0.2-0.2-0.4-0.2-0.7c-0.2-0.8-0.3-1.6-0.3-2.4v-30.2h35.8l38.9-40.5c0.5-0.5,1-1,1.6-1.3c0.5-0.4,1.1-0.7,1.7-1
			c2.3-1,5-1,7.4-0.1c1.2,0.4,2.2,1.1,3.2,2c3.9,3.8,4.1,10,0.3,13.9l-25.8,26.9h76l-30.1-31.4c-3.8-3.9-3.6-10.2,0.3-13.9
			c3.9-3.8,10.1-3.6,13.9,0.3l36.8,38.4l6.4,6.7H349L409.9,206.9z"/>
		<g>
			<g>
				<g>
					<rect x="173.7" y="230.5" class="st34" width="152" height="13.1"/>
				</g>
				<g>
					<g>
						<rect x="243.2" y="194.6" class="st34" width="13.1" height="83.7"/>
					</g>
					<g>
						<rect x="210.4" y="194.6" class="st34" width="13.1" height="83.7"/>
					</g>
					<g>
						<rect x="276" y="195.9" class="st34" width="13.1" height="83.7"/>
					</g>
				</g>
				<g>
					<path class="st7" d="M150.6,177.6l1.2,7.2v0.1l0.7,4.2l15.4,90.1l0.1,0.6c0,2.6,0.6,5.1,1.8,7.3c1.6,3.2,4.2,5.8,7.5,7.5
						c0,0,0.1,0,0.1,0c2.5,1.3,5.3,2,8.3,2h127.9c9.8,0,17.7-7.5,17.7-16.8l15.4-90.1l0.7-4.3l1.3-7.8H150.6z M307.7,272h-116
						l-2.4-14.1l-2.4-14.2l-2.3-13.1l-4.8-28.3h139.8l-4.8,28.3l-2.3,13.1L307.7,272z"/>
				</g>
				<g>
					<path class="st35" d="M348.8,177.6l-1.3,7.8l-0.7,4.3c-2.7,2.4-6.3,3.9-10.2,3.9H163.5c-4.3,0-8.1-1.7-10.8-4.5l-0.7-4.2v-0.1
						l-1.2-7.2H348.8z"/>
				</g>
				<g>
					<g>
						<path class="st36" d="M323,162.4c-0.5,1.5-1.3,2.9-2.6,4.1c-3.9,3.8-10.1,3.6-13.9-0.3l-12.4-13l-7-7.3l-30.1-31.4
							c-3.8-3.9-3.6-10.2,0.3-13.9c3.9-3.8,10.1-3.6,13.9,0.3l36.8,38.4l6.4,6.7l6.4,6.6C323.3,155.3,324,159.1,323,162.4z"/>
					</g>
				</g>
				<g>
					<g>
						<path class="st36" d="M236.9,119.1l-25.8,26.9l-23.8,24.8c-3.8,3.9-10,4.1-13.9,0.3c-1.2-1.2-2.1-2.6-2.6-4.1
							c-1.1-3.3-0.3-7.1,2.3-9.8l10.7-11.1h0l38.9-40.5c0.5-0.5,1-1,1.6-1.3c0.5-0.4,1.1-0.7,1.7-1c2.4-1,5-1,7.4-0.1
							c1.2,0.4,2.2,1.1,3.2,2C240.5,108.9,240.6,115.2,236.9,119.1z"/>
					</g>
				</g>
				<path class="st37" d="M351.9,145.9v30.2c0,3.8-1.8,7.1-4.5,9.3c-2,1.6-4.6,2.6-7.5,2.6H160c-3.1,0-6-1.2-8.1-3.2
					c-0.6-0.6-1.2-1.2-1.6-1.9c-0.2-0.3-0.4-0.7-0.6-1c-0.4-0.7-0.8-1.4-1-2.2c-0.1-0.2-0.1-0.4-0.2-0.6c-0.1-0.2-0.2-0.4-0.2-0.7
					c-0.2-0.8-0.3-1.6-0.3-2.4v-30.2H351.9z"/>
			</g>
			<path class="st38" d="M271.1,100.9c-3.7-3.9-10-4.1-13.9-0.3c-3.9,3.7-4.1,10-0.3,13.9l30.1,31.4h-76l25.8-26.9
				c3.8-3.9,3.6-10.1-0.3-13.9c-1-0.9-2-1.6-3.2-2c-2.4-0.9-5.1-0.9-7.4,0.1c-0.6,0.3-1.2,0.5-1.7,1c-0.5,0.4-1.1,0.8-1.6,1.3
				l-38.9,40.5h-35.8v30.2c0,0.8,0.1,1.6,0.3,2.4c0,0.3,0.1,0.5,0.2,0.7c0,0.2,0.1,0.4,0.2,0.6c0.3,0.8,0.6,1.5,1,2.2
				c0.2,0.3,0.4,0.7,0.6,1c0.5,0.6,1,1.2,1.6,1.8v0.1l0.7,4.2l15.4,90.1l21.3-21.3l-2.4-14.2h16.7l6.8-6.8l6.3-6.3l6.8-6.8v-21.6
				h19.7v1.9l1.9-1.9l8.6-8.6l5.5-5.5l10.5-10.5l31.7-31.7l6.7-6.7L271.1,100.9z M210.4,230.5h-25.7l-4.8-28.3h30.5V230.5z"/>
		</g>
	</g>
</g>
<path class="st39" d="M60.4,203.1c0,0,11.2,20.9,11.2,23c0,2.1,6.3,15.4,6.3,15.4l7.7,12.4c0,0,14,15.5,16.1,18.3
	c2.1,2.8,20.9,13.3,20.9,13.3s5.6,14.7,6.3,16.8c0.7,2.1,7,15.4,7,15.4s10.5,20.3,11.2,22.3c0.7,2.1,9.1,14.7,13.3,17.3
	c1.5,1,4.6,6.2,7.9,12.5l10.2,12c0,0,3.5-0.7,8.4-0.7c4.9,0,7.7-8.1,7.7-8.1l7.7,4c0,0,4.2-14,6.3-19.7c2.1-5.7,2.8-17.3,2.8-17.3
	s36.3-0.7,38.4,0c2.1,0.7,11.2,13.3,11.2,13.3l9.8,13.3v37.7c0,0,4.9,9.8,5.6,10.7c0.7,0.9,7,14.4,10.5,13c3.5-1.4,23.7,0,23.7,0
	l7.7,4.2H330l9.1,4.2c0,0,11.2,3.5,19.6,6.2c8.4,2.7,14.7-6.9,14.7-6.9l7,4.2l7.7,2.7c0,0,10.5-1.3,17.5,0
	c7,1.3,19.6-10.3,19.6-10.3l1.3,1.1c-1-7.1-2.4-13.3-4.1-15c-4.2-4.2-9.8-10.5-9.8-10.5s2.8-6.3,3.5-9.8s4.5-9.1,4.5-9.1
	s11.5-6.3,12.2-8.4s11.2-17.5,11.2-17.5l9.8-5.7c0,0,7-2,4.9-7.6c-2.1-5.6,3.5-14.7,0-18.2c-3.5-3.5-16.1-6.3-16.1-6.3
	s-4.2-11.4-11.2-12.7c-7-1.3-7-1.3-7-1.3s-3.5-14.7-7-20.3s-7.7-13.4-7.7-13.4s-11.9-3.4-16.8-6.2c-4.9-2.8-12.6-8.4-12.6-8.4
	l-9.1-11.2c0,0-20.3-0.7-24.4-3.5c-4.2-2.8-9.8-7-9.8-7s-7.7-11.9-10.5-14c-2.8-2.1-5.6-6.3-5.6-6.3s-4.9,4.9-11.9,4.9
	c-7,0-21.6-1.4-21.6-1.4l-18.9-18.9c0,0,2.1-7.7,0-11.9c-2.1-4.2-12.6-9.3-12.6-16.5c0-7.2,4.2-16.3,4.2-16.3s4.9-10.5,4.9-13.3
	c0-2.8,0.7-11.9,0.7-11.9s-16.1-7-22.3-11.9c-6.3-4.9-16.8-9.1-16.8-9.1s-25.8,4.9-32.8,0c-7-4.9-14-9.1-14-9.1s-7.2-4.2-11.6-5.6
	c-4.4-1.4-12.8,0-12.8,0s-2.1-3.5-10.5-10.5c-8.4-7-11.9-9.1-15.4-9.1c-3.5,0-7-4.9-7-4.9l-8.4-6.3l-15.4-9.1l-4.4-3.5
	c-2.8,1.9-5.1,2.1-5.1,2.1s3.7,17.7,5.6,21.4c1.9,3.7-8.4,16.8-17.7,26.1c-9.3,9.3-15.8,27-15.8,27s-7.5,39.2-21,52.1l9.6,8.2
	L60.4,203.1z"/>
<g>
	<g>
		<path class="st3" d="M127.1,275c7.2-4.3,11-11.6,11.8-13c0.3,0.1,2.5,1,4.3,2c0.7,0.4,1.1,0.8,1.1,1.2c0,0.4-0.6,0.8-1.7,0.8
			c-0.2,0-0.5-0.1-0.8-0.1c-1.2,1.9-5.2,7.9-9.6,11.4L127.1,275z M137.9,235.3c-1.8,1.6-3.8,3.1-5.7,4.3l-5-2.5
			c12.6-7,21.9-19.6,23.2-23.4c0.4,0.1,3.6,1.1,5.1,1.5c0.8,0.3,1.1,0.6,1.1,0.9c0,0.5-0.7,0.8-1.9,0.8c-0.1,0-0.2,0-0.4,0
			c-0.5,0.8-1.2,1.8-2,2.8h13.8c0.4,0,0.8-0.4,1.2-0.4c0.1,0,2.4,1.5,3.2,2.5c0.3,0.3,0.4,0.4,0.4,0.6c0,0.4-0.8,0.7-1.4,0.8
			c-0.8,1.2-4.5,5.7-6.7,8.3h18.9v28.6l-4.4,0.1v-1.4h-35v1.5h-4.4L137.9,235.3z M157.6,231.7c2.5-2.7,5.7-6.9,6.2-7.9h-14.6
			c-2.2,2.5-4.7,5.3-7.4,7.9H157.6z M157,243v-7.3h-14.9l0.1,7.3H157z M157,255V247h-14.8v8.1H157z M150,277c0-0.4,0-0.6,0-1
			c0-5.7-1.1-11.6-1.3-12.5l4.3-0.6c0.3,1.1,1.9,7.7,2.1,13.3L150,277z M177.2,243v-7.3h-16v7.3H177.2z M177.2,255V247h-16v8.1
			H177.2z M166.6,277c-0.9-5.6-4.2-12.1-4.9-13.2l4.1-1.1c0.6,0.8,4.6,7.6,5.7,12.9L166.6,277z M179,262c1.1,0.8,7.6,6,11.4,12
			L186,277c-3-6.2-9.4-11.8-10.6-12.8L179,262z"/>
		<path class="st3" d="M214.4,232.7c0.7,0.4,8.3,4.3,12.2,7.9l-3.3,4c-3.7-4.1-11.4-8.1-12.1-8.5L214.4,232.7z M227.5,254.1
			c-2.1,5.3-4.6,10.6-9.5,19.5c0.5,0.6,0.7,1.2,0.7,1.5c0,0.5-0.3,0.8-0.7,0.8c-0.2,0-0.4-0.1-0.7-0.2c-2.5-1.1-4.9-2.7-5.3-2.9
			c5.3-6.1,10.1-17.6,12-22.9L227.5,254.1z M218.5,216.5c0.6,0.4,7.2,4.6,10.9,8.6l-3.8,3.5c-3.5-4.6-10-8.8-10.7-9.3L218.5,216.5z
			 M227.6,262.9h19.8v-6.7h-16.8v-3.8h16.8v-6.7h-15.2V242h15.2v-7h-18.6v-3.9h18.6v-6.3h-15.1v-3.9h15.1v-1.3
			c0-0.4-0.1-2.9-0.2-5.2c1.6,0,7,0.1,7,1.3c0,0.5-0.8,1.1-2.2,1.2c-0.1,1.3-0.1,3.4-0.1,3.4v0.6h16.2v10.2h6.4v3.9h-6.4v13.3h-4.4
			v-2.6h-11.8v6.7h18.8v3.8h-18.8v6.7h21.9v4.1h-21.9v10.6h-4.5V267h-19.8V262.9z M263.7,231.1v-6.3h-11.8v6.3H263.7z M263.7,242v-7
			h-11.8v7H263.7z"/>
		<path class="st3" d="M296.8,223.9h27.8v-3.2c0,0-0.1-3-0.3-5.9c5.7,0.3,7.4,0.6,7.4,1.5c0,0.6-0.8,1.2-2.3,1.5
			c-0.1,1.5-0.1,3.5-0.1,3.5v2.6h28.5v4.5l-61-0.1V223.9z M303.9,237.7h20.6v-2c0,0,0-3.4-0.1-5.7c3.9,0.2,7.2,0.4,7.2,1.5
			c0,0.5-0.8,1.1-2.2,1.4c-0.1,1.2-0.1,3.5-0.1,3.5v1.3h21.5v17.2c0,1.8,0.1,5.3,0.1,6.3c0,0.1,0,0.1,0,0.2c0,6.4-4.8,7.9-10.1,7.9
			c-1.1,0-2.2-0.1-3.2-0.1l-3.5-5.1c2.7,0.4,4.9,0.6,6.7,0.6c3.6,0,5.3-1.1,5.3-3.8v-19h-16.8V277h-4.8v-35.1h-15.7v27.8h-4.9V237.7
			z"/>
	</g>
</g>
<g>
</g>
<g>
</g>
<g>
</g>
<g>
</g>
<g>
</g>
<g>
</g>
<g>
</g>
<g>
</g>
<g>
</g>
<g>
</g>
<g>
</g>
<g>
</g>
<g>
</g>
<g>
</g>
<g>
</g>
</svg>
