<?xml version="1.0" encoding="utf-8"?>
<!-- Generator: Adobe Illustrator 21.0.2, SVG Export Plug-In . SVG Version: 6.00 Build 0)  -->
<svg version="1.1" id="レイヤー_1" xmlns="http://www.w3.org/2000/svg" xmlns:xlink="http://www.w3.org/1999/xlink" x="0px"
	 y="0px" viewBox="0 0 1019.5 68.6" enable-background="new 0 0 1019.5 68.6" xml:space="preserve">
<g>
	<g>
		<path fill="#40708D" d="M37.8,46.8c4.8,9.1,15.3,15.7,32.5,15.7c0.8,0,1.4,0,1.4,0.2c0,0.6-6.4,2.9-8.2,4.7
			c-0.5,0.5-0.8,0.5-1.2,0.5c-8.4,0-21.8-8.7-25.9-21.1h-0.7C31.1,65.9,6.9,68.6,1.3,68.6c-1,0-1.3-0.1-1.3-0.3
			c0-0.2,0.8-0.5,1.7-0.7c15.1-2.2,26.4-10.8,29.2-20.9h-2c-4.1,0-14.5,0.2-21,0.8H7.8c-1.4,0-3.8-2.9-3.8-3.9
			c7.5,1,21,1.2,25.2,1.2h2.1c0.1-0.4,0.4-3.2,0.4-5.9c0-0.8,0-1.6-0.1-2.5c0-0.2,0-0.2,0-0.3c0-0.1,0-0.2,0.2-0.2
			c0.2,0,7.9,1.1,7.9,2.6c0,0.5-0.5,0.8-1.5,1.2c-1.4,0.5-1.4,0.1-2,4.3c0,0.2,0,0.5-0.1,0.8h18.6c0.5,0,1.1-0.3,1.3-0.7
			c2.5-3.5,3.3-4.7,4.1-4.7c1.7,0,7.1,4.9,7.1,6.3c0,0.5-0.3,1-1.6,1H37.8z M28.8,35.1c-4.1,0-14.5,0.2-21,0.8H7.8
			C6.3,35.9,4,33,4,32c7.5,1,21,1.2,25.2,1.2h3.3c0.2-3.1,0.2-4.1,0.2-8.1h-1.5c-3.8,0-10.5,0.1-16.7,0.8h-0.1
			c-1.3,0-3.4-2.9-3.4-3.8c7.1,0.9,16.6,1.1,20.6,1.1h1.1c0-2.2,0-5.9-0.2-7.8H28c-3.9,0-11,0.2-17.3,0.8h-0.1
			c-1.3,0-3.4-2.9-3.4-3.9c7.2,1,17,1.2,21.1,1.2H37c0.9-1.3,5.3-8.1,5.8-12.8C42.9,0.2,42.9,0,43.1,0c0.5,0,7.3,3.5,7.3,5.2
			c0,0.6-1,0.9-2.4,0.9c-1.1,0-1.3,0.2-2,0.8c-1.5,1.4-5.3,4.6-7.8,6.6h12.1c0.5,0,1-0.3,1.2-0.7c2.6-3.5,3.2-4.4,4-4.4
			c0.8,0,6.7,3.9,6.7,6c0,0.5-0.4,1-1.6,1H39.2c0.2,0.2,0.3,0.4,0.3,0.5c0,0.5-0.5,0.9-1.4,1.3c-0.8,0.3-1.1,0.8-1.1,6h8.7
			c0.5,0,0.8-0.3,1.1-0.7c2.4-3.1,3-3.8,3.8-3.8c1.4,0,6.5,4.2,6.5,5.4c0,0.5-0.3,1-1.5,1H37.1c0,3,0,6.2,0.1,8.1h17.6
			c0.5,0,1.1-0.3,1.3-0.7c2.5-3.5,3.3-4.7,4.1-4.7c2,0,7.1,5.2,7.1,6.3c0,0.5-0.3,1-1.6,1H28.8z M25.3,9.1c-0.8-1.9-3.1-4.8-4.8-6.4
			c-0.4-0.4-0.6-0.6-0.6-0.8c0-0.2,0.2-0.2,0.5-0.2c2.9,0,10.4,2.1,10.4,6.8c0,1.7-1.2,3-2.6,3C27.3,11.6,26.1,10.9,25.3,9.1z"/>
		<path fill="#40708D" d="M107.8,65.3c-6.6,0-16.4-3.2-16.4-22.3c0-8.3,1.7-16.7,1.7-24.9c0-3.8-0.4-7.1-2.1-9c-0.7-0.8-1-1.2-1-1.5
			c0-0.3,0.3-0.5,0.8-0.5c0.2,0,7.9,0,7.9,8c0,0.8-0.1,1.6-0.2,2.5c-0.8,5.6-3.6,17.3-3.6,26.7c0,4.4,0.4,16,13.7,16
			c6.7,0,14.9-3.3,22.3-9.7c0.6-0.5,1.1-0.8,1.4-0.8c0.2,0,0.2,0.1,0.2,0.2C132.4,51.3,121.3,65.3,107.8,65.3z"/>
		<path fill="#40708D" d="M165.8,38c-5.1,0-8.8-1.7-10.7-7.2c-0.2-0.5-0.3-1-0.3-1.3c0-0.2,0.1-0.4,0.3-0.4s0.7,0.2,1.3,0.8
			c3.8,3.1,7.1,4.2,11.1,4.2c4.5,0,8.9-1.4,10.7-2c-1.1-2.6-2.3-5.3-3.5-8c-2.1,0.5-3.2,0.8-4.9,0.8c-7.9,0-11.7-5.5-11.7-7.5
			c0-0.2,0.1-0.3,0.2-0.3c0.4,0,1,0.5,1.5,0.7c2.4,1.3,5.9,3.6,9.9,3.6c0.8,0,1.4-0.1,3.2-0.5c-2.3-4.1-5-8.1-8.4-11.4
			c-2.3-2.3-3.7-2.4-4.7-2.5c-0.6-0.1-0.9-0.4-0.9-0.8c0-0.6,1.2-2.2,3.8-2.2c4,0,6,2.4,12.4,16.1c0.7-0.3,1.4-0.6,1.8-1
			c1.4-1.1,2.9-1.8,3.8-1.8c1.5,0,1.7,1.4,1.7,1.7c0,1.4-1.7,2.9-5.6,4.4c1.2,2.7,2.4,5.3,3.6,7.8c2.7-1.1,3.8-1.8,3.8-2.6
			c0-0.7-0.5-1.6-2.2-2.9c-0.9-0.7-1.4-1.1-1.4-1.3c0-0.1,0.1-0.2,0.2-0.2c0.3,0,1.1,0.3,2.3,0.8c2.6,1.1,4.7,1.7,5.1,1.7
			c1.6,0,2.6,0.8,2.6,1.8c0,2-5,4.5-9,6c1.5,3,3.1,6,4.8,8.7c1.1,1.7,1.6,3.4,1.6,4.8c0,3.2-2.3,5.3-4.5,5.3c-1.2,0-1.4-0.8-1.8-1.4
			c-0.9-1.3-7.7-3.2-13.2-3.2c-7.3,0-9.3,4.3-9.3,6.2c0,1.8,2.3,6.9,10.8,6.9c2.1,0,4.1-0.4,5.4-0.8c0.5-0.2,0.8-0.2,1.3-0.2
			c1.7,0,3,1.2,3,2.5c0,1.8-2.6,3.2-8.3,3.2c-11.5,0-15.4-6.9-15.4-10.8c0-1.6,0.6-8.9,15.4-8.9c4.2,0,8.4,0.5,10.2,0.5
			c0.1,0,0.1,0,0.2,0c1.3,0,1.9-0.8,1.9-1.7c0-0.6-0.2-1.3-0.5-2c-1.3-2.6-2.5-5.5-3.7-8.4C175.6,37,169.7,38,165.8,38z"/>
		<path fill="#40708D" d="M226.7,24.9c0,0-8.1,0.2-12,0.8h-0.1c-1,0-3.2-3-3.2-3.9c4.7,0.8,12.2,1.1,14.7,1.1h2.4
			c0.4,0,1.2-0.4,1.6-0.8c1.8-1.8,1.8-1.8,2.2-1.8c0.7,0,5.6,3,5.6,4.6c0,0.8-0.8,1.1-1.8,1.6c-0.8,0.4-1.4,0.5-2.2,2.5
			c-10,26.6-26.7,30.7-26.8,30.7c-0.2,0-0.2-0.1-0.2-0.2c0-0.2,0.5-0.8,1.7-1.5c15.3-10.5,20.9-32,20.9-32.6c0-0.4-0.3-0.5-0.8-0.5
			H226.7z M245.9,9.9c-0.3,3.2-0.5,15.6-0.5,26.4c0,7,0.1,13.3,0.2,15.9c0.1,1.4,0.2,5.5,0.2,7.2c0,0.1,0,0.1,0,0.2
			c0,7.7-8.5,8.5-9.4,8.5c-0.5,0-0.9-0.2-1.1-0.9c-0.8-2-8.7-5.1-8.7-5.6c0,0,0.1-0.1,0.2-0.1c0.2,0,0.4,0,0.6,0.1
			c3.8,0.7,6.6,1,8.6,1c4,0,4.8-1.3,4.9-4.1c0.1-5.5,0.2-24,0.2-35.7c0-4.4,0-7.8,0-9.3c0-2.9-0.2-8.1-0.8-10.8
			c-0.1-0.3-0.2-0.5-0.2-0.5c0-0.1,0.1-0.1,0.1-0.1c0.5,0,9.3,1,9.3,2.9c0,0.4-0.3,0.8-0.9,1.2c0.8,8.7,2.4,16.2,4.8,22.6
			c8.3-5.6,12.4-9.5,13.3-12.1c0.1-0.3,0.2-0.5,0.3-0.5c0.8,0,7.5,4.7,7.5,6.5c0,0.6-0.6,0.9-1.7,0.9c-0.4,0-0.8,0-1.1-0.1
			c-0.5-0.1-0.9-0.2-1.4-0.2c-0.5,0-1.1,0.2-1.7,0.5c-3.4,1.6-10.1,4.6-14.7,6.5c5.6,13.6,14.5,21.8,24.6,26.2
			c0.5,0.2,0.6,0.3,0.6,0.5c0,0.7-6.6,0.5-8.7,2.3c-0.2,0.2-0.5,0.3-0.8,0.3c-0.2,0-0.5-0.1-0.8-0.3c-8.9-7.4-20.9-23-21.5-52.4
			C245.7,7.4,246.1,7.4,245.9,9.9z"/>
		<path fill="#40708D" d="M295.8,49.5c0-8,2.5-14.8,3.9-21.1c0.6-2.7,1.3-5.2,1.3-7.8c0-3-0.9-6.3-3.7-10.1c-0.4-0.5-0.8-1-0.8-1.2
			c0-0.4,0.9-0.4,1-0.4c2.6,0,8.4,6.8,8.4,12.1c0,2.8-1.4,5-2.9,9c-2,5-4.1,10.4-4.1,15.4c0,2.3,0.5,4.7,1.1,4.7
			c0.2,0,0.5-0.4,0.9-1.3c0.9-2.2,6.6-14.6,7.9-14.6c0.2,0,0.3,0.1,0.3,0.4c0,0.3-0.2,0.8-0.5,1.4c-4.4,9.6-6.2,18.3-6.2,21.6
			c0,1.3,0.2,2.5,0.6,3.5c0.3,0.8,0.5,1.4,0.5,2c0,1.5-0.8,2.4-1.9,2.4C298,65.6,295.8,57.1,295.8,49.5z M335.1,19.6
			c0-7.5-0.5-7.5-2.3-8.1c-1.1-0.3-1.7-0.5-1.7-1.1c0-0.5,1.5-2.3,3.2-2.3s5.3,3,5.3,5.6c0,0.5-0.1,0.9-0.2,1.4
			c1.4,0.5,4.2,1.7,5.2,2c2.9,0.8,3.9,1.3,3.9,2.9c0,4-7.8,6.3-10.2,6.9c0,1.1,0,2.3,0,3.3c0,5.8,0.2,11,0.5,14.4
			c0.1,1.7,0.2,3.6,0.2,5.4c5.6,1.7,11.7,6.1,11.7,9.3c0,1.5-0.9,2.9-2.1,2.9c-0.8,0-1.7-0.6-2.6-2c-1.8-3-4.7-5.3-7.3-6.7
			c-1.1,6.4-6.3,10.8-11.9,10.8c-5.3,0-10.1-3.9-10.1-7.9c0-4.4,6.2-7.7,13.6-7.7c1.6,0,3.2,0.2,4.9,0.5c0,0,0,0,0-3.8
			c-0.1-3.3-0.2-10.5-0.2-17.8c-1.7,0.4-3.1,0.4-3.7,0.4c-9,0-12.3-6.2-12.3-7c0-0.2,0.1-0.2,0.3-0.2c0.3,0,0.9,0.2,1.7,0.5
			c1.4,0.5,4,1.7,5.5,2.2c1.5,0.5,3.3,0.8,5.2,0.8c0.2,0,0.9,0,3.2-0.3V19.6z M328.3,51.4c-5.5,0-9.2,2.6-9.2,5c0,3,3.9,3.9,6.5,3.9
			c4.7,0,8.4-3.1,9.3-8C332.7,51.8,330.4,51.4,328.3,51.4z M338.5,23.3c5.4-1.4,5.4-3.1,5.4-3.7c0-1.2-1.3-2-4.6-3.9
			C338.6,20.9,338.5,22.8,338.5,23.3z"/>
		<path fill="#40708D" d="M375.9,65.8c-2.2-4.2-6-7.3-9.1-9.5c-0.8-0.6-1.5-1.1-1.5-1.3c0-0.1,0.2-0.2,0.5-0.2
			c3.1,0,16.3,3,16.3,9.6c0,2-1.5,3.6-3.2,3.6C377.9,68.1,376.7,67.4,375.9,65.8z"/>
		<path fill="#40708D" d="M413.7,48c0-8.4,3-15.4,4.2-21.6c0.4-1.9,0.5-3.6,0.5-5.1c0-4-1-6.6-1.7-7.8c-0.3-0.6-0.9-1.1-0.9-1.4
			c0-0.2,0.5-0.5,1.5-0.5c2.4,0,5.8,3.8,5.8,8.9c0,2.5-0.8,4.7-2,7.8c-2,4.9-4.2,10.7-4.2,15.8c0,2.9,0.7,5.1,1.2,5.1
			c0.3,0,0.6-0.3,1-1.2c2-4.5,6.3-13.9,7.5-13.9c0.2,0,0.2,0.1,0.2,0.3c0,0.3-0.2,0.8-0.4,1.4c-2.2,5.3-5.4,14.8-5.4,19.9
			c0,1.7,0.2,3.1,0.5,4.3c0.1,0.5,0.2,0.8,0.2,1.2c0,1.5-0.9,2.4-2,2.4C415.2,63.6,413.7,52.2,413.7,48z M452,60.5
			c-14.3,0-16.6-8.1-16.6-9.7c0-0.5,0.2-0.7,0.4-0.7c0.4,0,0.9,0.5,1.5,1.4c1.6,2.3,6.7,3.8,12.4,3.8c1.4,0,2.8-0.1,4.2-0.3
			c1.7-0.2,2.8-1.2,5.6-1.4c0.2,0,0.3,0,0.5,0c2.5,0,3.8,1.1,3.8,2.4C463.7,59.6,456.2,60.5,452,60.5z M447.6,26
			c-10.3,0-11.3-6.1-11.3-6.6c0-0.2,0.1-0.3,0.2-0.3c0.2,0,0.7,0.2,1.3,0.6c2.3,1.3,4.8,1.8,7.5,1.8c2,0,4.1-0.3,6.3-0.7
			c1.1-0.2,1.9-0.8,2.9-1c0.5-0.2,1.1-0.2,1.6-0.2c2.1,0,3.4,1.1,3.4,2.3C459.4,25.5,450.1,26,447.6,26z"/>
		<path fill="#40708D" d="M492,24.9c0,2-0.5,4-0.8,5.3c-0.5,2.2-0.7,4.4-0.7,6.6c0,12.7,7.6,15.1,8.8,15.1c1.2,0,2-0.7,2.4-1.4
			c1.5-2.6,3.3-7,4.7-9.9c0.8-1.7,1.3-2.3,1.4-2.3c0.1,0,0.2,0.2,0.2,0.3c0,0.6-0.2,1.7-0.5,2.6c-1.3,5.8-1.4,9.2-1.4,10.8
			c0,1.3,0.1,2.2,0.2,3.1c0,0.2,0,0.3,0,0.5c0,2.3-1.7,3.2-3.8,3.2c-2.3,0-5-1.1-7.2-2.8c-6.6-5.4-8.8-12.4-8.8-22.4
			c0-1.6,0.1-3.2,0.2-5c0.1-1.3,0.2-2.6,0.2-3.8c0-2-0.2-4-0.5-5.6c-0.1-0.4-0.2-0.7-0.2-0.9c0-0.5,0.2-0.7,0.5-0.7
			C486.8,17.4,492,18.7,492,24.9z M532.7,40.3c-0.6-7.2-5.6-13.3-11.8-14.8c-2.2-0.5-3.2-1.1-3.2-1.4c0-0.2,0.5-0.3,1.5-0.3
			c10.4,0,19.1,8,19.1,15.4c0,2.7-1.5,4.1-3,4.1C534.1,43.4,532.9,42.4,532.7,40.3z"/>
		<path fill="#40708D" d="M580.5,25.8c2.7-0.9,3.7-1,4.5-1c4.1,0,7.7,2.6,7.7,12.6c0,15.7-8.3,23.8-16,23.8c-1.1,0-2-0.2-2.8-0.5
			c-3.3-1.1-1.9-3.8-2.8-6.6c-0.4-1.3-0.6-2.1-0.6-2.6c0-0.2,0.1-0.3,0.2-0.3c0.3,0,1,0.7,2,2c1.4,1.9,3.3,3,5.3,3
			c6.4,0,10.9-10.6,10.9-20.4c0-5.1-1.2-8.7-4.4-8.7c-0.5,0-2.3,0.2-5.6,2.6c-3.6,8.6-9.6,20.6-13.9,28.5c-1.5,2.8-3.7,4.1-5.1,4.1
			c-1,0-1.7-0.5-1.7-1.7c0-1.1,0.7-2.8,2.3-5c3.6-4.9,11.1-15.8,15-24.8c-2.3,1.1-7.3,3.2-9.4,3.2c-3.5,0-5.9-2.4-5.9-5.5
			c0-2.5,0.5-2.7,0.6-2.7c0.4,0,0.9,0.7,1.4,1.4c1.1,1.4,2.8,1.7,4.7,1.7c3.8,0,7.1-0.9,10.1-2c0.2-0.7,1.4-5,1.4-8.3
			c0-2.4-0.6-4.1-2.4-4.4c-0.9-0.2-1.7-0.5-1.7-1.1c0-1.1,3.2-2.6,4.7-2.6c1.1,0,3.9,0.4,3.9,4.7c0,2.1-1.2,6.6-2.4,9.8L580.5,25.8z
			 M611.6,45.4c-0.5-0.3-1.4-0.4-2.7-0.4c-1.1,0-2.5,0.1-4.1,0.1c-1.7,0-2.3-0.2-2.3-0.4s0.9-0.5,2.2-0.8c5.3-1.1,8.4-2.3,8.4-6.4
			c0-5.8-6-7.7-9.9-9.3c-1.7-0.6-2.5-1-2.5-1.2c0-0.1,0.4-0.2,1-0.2c10,0,16.6,5.3,16.6,11.8c0,3.8-2.3,7-5,7
			C612.5,45.8,612,45.6,611.6,45.4z"/>
		<path fill="#40708D" d="M652.7,41.4c-0.1,1.3-0.3,4.6-0.3,6.8c0,4.6,0.8,9.6,1.7,13.4c0.2,0.8,0.3,1.6,0.3,2.2
			c0,2.1-0.9,3.2-2,3.2c-1.3,0-2.9-1.7-3.2-5.2c-0.2-2.5-2.4-7.7-3.9-10.8c-1.9,3.7-2.7,6.3-3.3,8.1c-1,3.2-3.1,5-4.5,5
			c-0.8,0-1.3-0.5-1.3-1.7c0-2.6,4.3-10.1,7.5-14.6c-1.5-2.8-3.4-5.6-4.4-6.7c-0.9-1.1-1.5-2.2-1.5-3.2c0-0.8,0.5-1.5,1.7-2
			c2-0.9,3.2-2,4.1-2.9c2.6-2.9,6-5.4,9-7.3c0.1-1.2,0.2-2.3,0.2-3.4c0.1-1.4,0.1-2.6,0.1-3.6c0-3.7,0-7.2-4.4-9.9
			c-0.8-0.5-1.1-0.8-1.1-1.1c0-0.3,1.2-1.1,2.8-1.1c0.2,0,6.3,0.1,6.3,7.8c0,1.6-1,8.7-1.2,10c0.1,0,0.2,0,0.2,0
			c3.2,0,4.3,0.8,4.3,2c0,1.7-2,4.1-3.5,6.3c-0.9,1.4-2,3.1-3.1,4.9l-0.2,1.4l0.8-0.7c7.5-7.8,15-10.8,21.4-10.8
			c8.1,0,17.2,5.6,17.2,14.7c0,15.8-23.2,23.8-27.4,23.8c-0.2,0-0.3-0.1-0.3-0.2c0-0.2,0.9-0.8,2.6-1.4c4.7-2,20.1-10.3,20.1-22
			c0-7.2-6.3-11.8-13.9-11.8c-5.7,0-12.7,2.6-20,10.3L652.7,41.4z M652.2,28.4c-2.3,1.4-4.5,3.7-6,7c-1.1,2.3-1.9,2.9-4.3,3.3
			c-0.8,0.2-0.9,0.4-0.9,0.7c0,0.4,0.6,2,3.5,7c0.3-0.5,0.7-0.9,1.1-1.4c2-2.6,4.1-6,5.9-9C651.7,33.3,652,30.7,652.2,28.4z
			 M646.4,49.5c2.2,4.1,2.9,4.7,3.2,4.7c0.2,0,0.4-0.2,0.4-0.6c0-0.3,0-0.6,0-0.9c0-3,0.3-6,0.7-8.8
			C649.1,45.7,647.7,47.6,646.4,49.5z M654.9,29.8c0.2-0.4,0.5-1.1,0.5-1.6c0-0.5-0.2-0.8-0.7-0.8h-0.1c-0.2,1.3-0.5,2.7-0.8,4.3
			L654.9,29.8z"/>
		<path fill="#40708D" d="M734.4,44.6c-6.5,3.9-9.1,7.8-9.1,11c0,2.5,2.4,6.7,9.7,6.7c2.9,0,6.2-0.7,8.9-2.1
			c0.8-0.5,1.6-0.6,2.3-0.6c1.6,0,2.7,1,2.7,2.2c0,2.9-6,5-11.8,5c-8.7,0-14.5-5.3-14.5-10.4c0-5,4.9-10.2,11.8-14.3
			c0-3.6-0.4-11.2-5-11.2c-2,0-4.7,1.7-7.7,6c-0.5,0.9-1.1,2-1.7,3.2c-1.1,2.1-3.2,5.7-5.3,5.7c-0.5,0-2-0.5-2-2.5
			c0-1.4,0.8-3.4,2.9-5.3c6.9-6.4,9.2-10.4,12.6-18c0.2-0.3,0.2-0.6,0.4-0.9l-0.5,0.2c-1.6,0.5-2.9,0.6-4.1,0.6
			c-7.7,0-9.3-5.3-9.3-6.6c0-0.2,0.1-0.3,0.2-0.3c0.2,0,0.8,0.4,1.7,1c2.4,1.7,4.5,2.1,6.6,2.1c0.2,0,3.2,0,6.6-1.1
			c0.2-1,0.2-1.7,0.2-2.4c0-2.6-0.8-4.1-3-4.7c-0.5-0.2-1.1-0.3-1.1-0.7c0-0.7,2-1.5,3.2-1.5c0.6,0,3.8,0.1,4.3,3.8
			c0.2,0,0.5,0,0.9,0.1c0.6,0.1,1.1,0.1,1.7,0.1c1.1,0,2-0.2,2.2-0.2c0.3-0.2,0.7-0.2,0.9-0.2c1,0,1.6,0.8,1.6,1.9
			c0,2.9-4.1,5.3-9,7.2l-0.3,0.6c-2.7,5.9-4.3,8.7-6.1,11.8c1.6-0.9,3.1-1.3,4.4-1.3c3.8,0,6.7,3.3,7.7,7.8c3.2-8.1,9.4-16,16.8-16
			c4,0,9.2,3,9.2,6.6c0,2.9-3.4,5.9-8.3,7.8c-5.1,2-11.8,4.7-16.9,7.2c0.2,1.5,0.2,3,0.2,4.6c0,1.1-0.1,2.3-0.2,3.5
			c-0.2,2.6-2,4.5-3.4,4.5c-1,0-1.7-0.8-1.7-2.9c0-0.3,0.1-0.6,0.1-1c0.2-1.9,1-2.4,1.1-5.2L734.4,44.6z M733.7,9.7
			c0,0.2,0,0.4,0,0.6c0,1.1-0.2,2-0.4,3.1c1.7-0.7,2.9-1.7,2.9-2.3c0-0.6-1.7-1.1-1.8-1.1C734,9.9,733.8,9.8,733.7,9.7z M738,40.1
			c4.4-2.3,10.6-5.3,15.1-7.6c3.2-1.7,5.3-3.5,5.3-5.5c0-0.3-0.6-4-4.7-4c-7.2,0-13.7,11.1-15.6,16.9V40.1z"/>
		<path fill="#40708D" d="M795,17.3c1.9,0.6,2.3,0.9,2.3,1.4c0,0.5-0.5,1-1.4,1.3c-1.2,0.5-1.3,0.6-1.4,2.6c-0.2,2-0.4,4.1-0.6,6.3
			h5.3c0.8,0,1-0.3,1.3-0.6c0.7-0.8,0.8-1.1,1.3-1.6c0.2-0.2,0.3-0.2,0.5-0.2c1.1,0,5,3.1,5,3.9c0,0.6-0.6,1.1-1.9,1.8
			c-0.9,0.5-1,0.8-1.1,2c-0.2,5.9-0.7,11.4-1.5,17.5c-1.3,9.6-5.7,13.8-11.2,13.8c-0.4,0-0.8-0.1-1-0.6c-0.6-2.1-4.7-4.8-5.3-5.8
			c-3.9,6.1-8.5,9.1-9.3,9.1c-0.2,0-0.2,0-0.2-0.2c0-0.3,0.5-1.1,1.2-1.8c12.3-12.1,12.8-44.7,12.8-44.7c0-1.5-0.1-2.9-0.3-4.3
			c-2.2,0.1-4.7,0.3-7.9,0.6h-0.1c-1.2,0-2.9-2.6-2.9-3.5c4.9,0.6,9.2,0.9,12.6,1v-2.2c-0.1-3.6-0.2-9.3-0.7-11.4
			c-0.1-0.3-0.1-0.5-0.1-0.6s0.1-0.2,0.2-0.2c0.2,0,8,0.9,8,2.7c0,0.5-0.5,1.1-1.4,1.5c-1.4,0.8-1.5,0.8-1.7,3.5
			c-0.2,2.2-0.2,5-0.2,6.6h5.1c0.2,0,0.7-0.2,0.9-0.5c2-3.4,2.6-3.9,3.1-3.9c0.2,0,0.4,0.1,0.5,0.1c2.7,1.1,5.3,4.5,5.3,5.3
			c0,0.5-0.3,0.9-1.4,0.9H795z M793.8,30.7c-1.1,9.7-3.2,20.1-8.2,28.2c0.2,0,0.2,0,0.5,0.1c1.7,0.3,3.9,1.4,6,1.4
			c6.9,0,7.7-12.1,8.4-28.7c0-0.7-0.4-1-0.8-1H793.8z M816.1,16.9c-6.3,8.9-10.6,11-10.7,11c0,0-0.1,0-0.1-0.1
			c0-0.2,0.4-0.8,1.3-1.8c3.2-3.9,11.3-17.1,11.8-24.2c0.1-0.6,0-0.8,0.2-0.8c0.8,0,7.4,2.9,7.4,3.9c0,0.5-0.7,0.9-2.2,1.1
			c-1.1,0.2-1.1,0.6-1.6,1.4c-1.1,1.8-2.8,4.6-4.8,7.5h15.2c0.2,0,0.8-0.2,1.1-0.6c2.2-3.1,2.9-4,3.8-4c2,0,6.6,4.4,6.6,5.6
			c0,0.5-0.4,0.9-1.7,0.9H816.1z M817.6,31.1c1.3,0.2,2.9,0.4,2.9,1.1c0,0.5-0.7,1-1.2,1.3c-1.1,0.8-1.1,0.8-1.1,13.6
			c0,6.3,0.1,13.6,0.3,18.1c0.1,1.7-1.6,2.9-3,2.9c-1.1,0-2.1-0.7-2.1-2.3c0-0.1,0-0.2,0-0.3c0.7-9.7,0.7-21.5,0.7-25.5
			c0-2.6-0.1-5.6-0.2-7.8c-2.9,0.7-6.5,1.5-7.8,1.5c-0.5,0-0.7-0.1-0.7-0.2c0-0.2,0.5-0.5,1.6-0.8c4.3-1.3,21.5-8,24.9-12.1
			c0.2-0.3,0.2-0.5,0.4-0.5c0.8,0,6,3.5,6,4.5c0,0.5-0.5,1-1.7,1c-0.2,0-0.5-0.1-0.8-0.1c-0.2,0-0.3-0.1-0.5-0.1
			c-0.7,0-1.3,0.3-1.8,0.5c-2.6,1.1-5.7,2.1-9,3.2c0.5,4.1,1.3,8.4,2.8,12.4c1.7-1,9.2-5.7,10.3-9.1c0.1-0.2,0.2-0.4,0.3-0.4
			c0.8,0,6.2,4.7,6.2,6.2c0,0.5-0.5,0.8-1.4,0.8c-0.4,0-0.9-0.1-1.4-0.2c-0.5-0.1-0.9-0.2-1.4-0.2c-0.2,0-0.5,0.1-0.8,0.2
			c-1.4,0.5-6.6,2.6-11.4,3.9c3.5,9,9.9,16.9,19.6,20.4c0.4,0.2,0.5,0.2,0.5,0.4c0,0.6-6.1,0.6-8.4,2.2c-0.3,0.2-0.5,0.3-0.8,0.3
			c-2.1,0-14.5-13.3-15.2-36.5C821.6,30,819.5,30.6,817.6,31.1z"/>
		<path fill="#40708D" d="M891.5,51c-0.4,0.1-0.7,0.1-1,0.1c-1.7,0-2.9-0.9-3.6-2c-1.6-2.5-3.1-5-3.1-9c0-4.8,3.2-7.2,6.9-7.2
			c1.3,0,2.6,0.3,3.9,0.9c0-3-0.1-7.2-0.2-11.8c-6.9,0.7-13.7,2.3-19.4,4.7c-1.4,0.6-3.2,1.1-5.1,1.1c-4.1,0-8.4-2.6-8.4-5.9
			c0-0.8,0.3-1.1,0.8-1.1c0.4,0,1,0.3,1.6,0.9c0.6,0.6,2.3,0.9,4.6,0.9c1.2,0,2.5-0.1,3.7-0.2c7.6-1,14.8-2.1,22.2-2.9
			c0-2.4-0.1-5-0.1-7.5c0-3.5-1.2-4.3-2.9-5.4c-0.5-0.3-0.6-0.5-0.6-0.8c0-0.5,0.8-1.6,3-1.6c1.1,0,5.4,0.4,5.4,5.6
			c0,0.8-0.2,1.7-0.3,2.6c-0.5,2.3-0.8,4.6-1,6.7c3.1-0.2,6.2-0.5,9.4-0.5c0.8,0,1.2-0.2,1.2-0.5c0-0.1-0.2-0.2-0.3-0.3
			c0,0-6.2-4.3-6.2-4.8c0-0.1,0.1-0.1,0.2-0.1c0.5,0,1.5,0.4,2.1,0.8c3.5,1.8,7.3,3.3,10.1,3.8c7.9,1.1,8.5,3.9,8.5,4.8
			c0,1.1-0.9,2-2.5,2c-0.6,0-1.2-0.1-2-0.3c-5.2-1.6-11.1-2.3-17.1-2.3c-1.2,0-2.5,0-3.8,0.1c-0.2,2.4-0.2,4.7-0.2,6.7
			c0,3.1,0.2,5.7,0.2,7.5c2.6,2.7,2.8,5.3,2.8,7.8c0,14.2-15.4,23.7-20.7,23.7c-0.4,0-0.5-0.1-0.5-0.2c0-0.2,0.6-0.8,2-1.3
			c3.7-1.5,11.9-8.4,14.1-17.6C894.3,49.8,893,50.6,891.5,51z M889.6,34.9c-1.9,0-3.5,1.4-3.5,4.1c0,1.1,0.8,7.3,5.3,7.3
			c3,0,3.5-3.3,3.5-5.5c0-0.8-0.1-1.5-0.2-2.3C893,35,890.3,34.9,889.6,34.9z"/>
		<path fill="#40708D" d="M965.9,60.6c9.2-1.9,12.9-8.1,12.9-13.6c0-5.9-4.6-11.5-12.3-11.5c-5.3,0-11.8,2.3-16.6,10.7
			c-0.7,1.2-1.9,3.9-2.4,4.7c-1.1,1.5-2.3,2.1-3.2,2.1c-1.2,0-2.1-0.9-2.1-2.3c0-1.2,0.7-2.8,6.2-9.3c3-3.5,16.9-22.6,18.2-24.6
			c0.5-0.8,0.8-1.4,0.8-1.9c0-0.4-0.2-1.4-2-1.4c-3.6,0-5.6,6.9-10.5,6.9c-2.7,0-4.7-1.6-4.7-4.3c0-0.6,0.1-1.2,0.6-1.2
			c0.4,0,0.8,0.2,1.4,0.5c0.7,0.2,1.3,0.3,2,0.3c1.1,0,2.2-0.3,3.1-1.1c2-1.7,6.2-4.6,10.3-4.6c3.5,0,6.6,2.8,6.6,4.4
			c0,1.4-1.4,2.6-2.9,3.8c-6.1,4.6-15.6,17.9-15.6,18.1c0,0,0,0,0.1,0c0.1,0,0.2,0,0.4-0.2c3.5-2.2,7.8-3.5,12-3.5
			c10.9,0,15.6,8.1,15.6,14c0,8.5-7.9,16.9-20.8,16.9c-5.4,0-11.8-2.9-11.8-7.6c0-3.4,3.5-5.6,7.1-5.6c4.7,0,8.1,3.7,8.1,7.6
			c0,0.8-0.2,1.6-0.5,2.4L965.9,60.6z M961.9,58.3c0-2.8-2.2-5.1-4.9-5.1c-3.2,0-3.5,2.2-3.5,3c0,2.8,4.1,4.4,7.8,4.7
			C961.8,60,961.9,59.2,961.9,58.3z"/>
		<path fill="#40708D" d="M1001.9,59.7c0-4.8,4-8.7,8.8-8.7c4.8,0,8.7,3.9,8.7,8.7s-3.9,8.8-8.7,8.8
			C1005.9,68.5,1001.9,64.5,1001.9,59.7z M1010.7,53.6c-3.4,0-6.2,2.9-6.2,6.3s2.8,6.2,6.2,6.2c3.4,0,6.3-2.8,6.3-6.2
			S1014.1,53.6,1010.7,53.6z"/>
	</g>
</g>
</svg>
