<?xml version="1.0" encoding="utf-8"?>
<!-- Generator: Adobe Illustrator 21.0.0, SVG Export Plug-In . SVG Version: 6.00 Build 0)  -->
<svg version="1.1" id="レイヤー_1" xmlns="http://www.w3.org/2000/svg" xmlns:xlink="http://www.w3.org/1999/xlink" x="0px"
	 y="0px" viewBox="0 0 123 200.1" style="enable-background:new 0 0 123 200.1;" xml:space="preserve">
<style type="text/css">
	.st0{fill:#40708D;}
</style>
<g>
	<path class="st0" d="M0,200.1l0.3-5.6c4.6-4.7,16.8-17.8,36.8-39.5c17.8-19.3,30.9-35.2,39.5-47.8S91,83.7,94,74.5
		c3-9.3,4.6-17.4,4.6-24.3c0-5.9-1.3-11.3-3.8-16.2c-2.6-4.9-6.4-8.7-11.5-11.4s-10.7-4-16.7-4c-8.4,0-16,2.5-23,7.6
		S30.3,38.9,24.8,49l-6.4-2.7c10.1-19.2,15.9-30.5,17.5-33.9c5.9-4.2,11.9-7.3,18-9.3S66.7,0,74.1,0c15,0,26.9,4.2,35.7,12.5
		S123,31.8,123,45.3c0,6.5-0.9,12.8-2.6,19.2s-4.4,12.5-8.1,18.6c-4.9,8.5-12.2,18.2-21.8,28.9c-6.3,7.1-19.7,21.3-40.3,42.5
		l-22.7,24.1l0.4,1.9l57.1-0.1c13.9,0,25.4-0.8,34.6-2.4l1.9,2c-2.1,8.1-3.7,14.8-4.8,20.2c-25.1-1-43.7-1.6-55.7-1.6
		c-1.2,0-4.3,0-9.1,0.1c-13.8,0.4-26.3,0.7-37.6,0.9C9,199.6,4.3,199.8,0,200.1z"/>
</g>
</svg>
