<?xml version="1.0" encoding="utf-8"?>
<!-- Generator: Adobe Illustrator 21.0.0, SVG Export Plug-In . SVG Version: 6.00 Build 0)  -->
<svg version="1.1" id="レイヤー_1" xmlns="http://www.w3.org/2000/svg" xmlns:xlink="http://www.w3.org/1999/xlink" x="0px"
	 y="0px" viewBox="0 0 99.4 201.4" style="enable-background:new 0 0 99.4 201.4;" xml:space="preserve">
<style type="text/css">
	.st0{fill:#40708D;}
</style>
<g>
	<path class="st0" d="M0,201.4l1-8.4c15.4-1,24.9-2.3,28.4-3.7c2-0.8,3.5-1.9,4.7-3.3c1.6-2,3.1-5.9,4.4-11.6s5.2-26.6,11.5-62.5
		C57.8,67.1,62.7,36.5,64.7,20c-16.5,6.2-34.5,14.1-54.1,23.6l-1.8-1.3l3-17c6.5-1.2,15.4-3.5,26.8-6.8s20.2-6.2,26.5-8.6
		C71.5,7.5,79.2,4.2,88.1,0l4.1,3.4c-4.2,18-8.1,37.6-11.8,59l-12.9,74.3c-3,18.6-4.9,31.2-5.5,37.8c-0.3,2.5-0.4,4.6-0.4,6.4
		c0,2.5,0.5,4.4,1.5,5.8c1,1.4,2.4,2.5,4.2,3.1c2.5,0.9,6.9,1.7,13.2,2.3l18.9,1.3l-1.6,8.1c-19-0.8-37.6-1.1-55.6-1.1
		C26.5,200.3,12.5,200.7,0,201.4z"/>
</g>
</svg>
