<?xml version="1.0" encoding="utf-8"?>
<!-- Generator: Adobe Illustrator 21.0.0, SVG Export Plug-In . SVG Version: 6.00 Build 0)  -->
<svg version="1.1" id="レイヤー_1" xmlns="http://www.w3.org/2000/svg" xmlns:xlink="http://www.w3.org/1999/xlink" x="0px"
	 y="0px" viewBox="0 0 119.8 199.5" style="enable-background:new 0 0 119.8 199.5;" xml:space="preserve">
<style type="text/css">
	.st0{fill:#40708D;}
</style>
<g>
	<path class="st0" d="M0,186.5l7.8-39.9l6.7,1c-0.7,5.7-1.1,10-1.1,13.1c0,8.4,3,15.3,9,20.7s14.3,8.2,24.9,8.2
		c9.7,0,18.2-2.6,25.5-7.8s12.8-12.5,16.8-21.8c3.9-9.3,5.9-19.1,5.9-29.4c0-7.2-1.5-13.7-4.5-19.3c-3-5.6-7.5-9.9-13.5-12.7
		c-6-2.9-12.6-4.3-19.8-4.3c-2.6,0-5.8,0.3-9.5,0.8s-8.1,1.4-13,2.6L34,96.6l4.7-13.2c3.3,0.2,6.1,0.3,8.2,0.5
		c2.1,0.1,3.7,0.2,4.6,0.2c7.7,0,15.1-1.8,22.1-5.5c7-3.7,12.4-8.8,16.1-15.4s5.6-13.2,5.6-19.9c0-8-2.4-14.4-7.3-19.1
		S76.4,17,67.9,17c-8.3,0-15.2,1.9-20.7,5.7c-4.2,2.8-9.7,8.6-16.4,17.5l-5.4-3.5L42.2,8.6c5-2.9,10.3-5,15.8-6.5S69.3,0,75.3,0
		c13.2,0,23.5,3.5,31,10.4s11.2,15.8,11.2,26.4c0,6.9-1.5,13.2-4.4,19.1c-2.9,5.8-7.5,11.3-13.8,16.3c-4.2,3.4-11.4,7.8-21.7,13.2
		l-0.1,0.7c8,1.1,15.4,3.5,22.2,7.3c6.8,3.8,11.9,8.6,15.2,14.5c3.3,5.9,5,13.3,5,22c0,11.6-3.1,22.7-9.3,33.3
		c-6.2,10.6-15.7,19.3-28.4,26s-26.3,10.1-40.6,10.1c-7.6,0-14.9-1.1-21.8-3.3C12.8,194,6.2,190.8,0,186.5z"/>
</g>
</svg>
