<?xml version="1.0" encoding="utf-8"?>
<!-- Generator: Adobe Illustrator 21.0.0, SVG Export Plug-In . SVG Version: 6.00 Build 0)  -->
<svg version="1.1" id="レイヤー_1" xmlns="http://www.w3.org/2000/svg" xmlns:xlink="http://www.w3.org/1999/xlink" x="0px"
	 y="0px" viewBox="0 0 134.5 200.5" style="enable-background:new 0 0 134.5 200.5;" xml:space="preserve">
<style type="text/css">
	.st0{fill:#40708D;}
</style>
<g>
	<path class="st0" d="M27.4,200.5l1.6-8.3c16.9-0.7,27.2-1.5,30.6-2.5c2.2-0.6,3.8-1.7,4.8-3.3c1.5-2.4,3.3-9.1,5.5-20.2l4.4-21.5
		h-51c-6.1,0-13.9,0.1-23.3,0.4l0.7-8.2c12.5-19,28.8-41.8,48.7-68.5C71.6,38.7,88,17.5,98.4,4.8c10.6-2.4,17.1-4,19.3-4.8l2.3,1.6
		l-4.5,22c-0.6,3-1.9,10.7-4.1,23l-14.5,82.2c17.7,0.1,29.8-0.2,36.3-1l1.4,1.8l-4.8,16.1c-2.8-0.3-6.1-0.5-9.7-0.6l-25.8-0.3
		l-3.1,19.4c-1.3,8.4-2,14.3-2,17.7c0,2.7,0.8,4.8,2.3,6.2c1.5,1.4,4.4,2.3,8.8,2.8l24,1.7l-1.8,7.9c-14.7-0.8-28.3-1.1-40.8-1.1
		C73.4,199.3,55.3,199.7,27.4,200.5z M77.1,128.8L95.6,24l-1-0.1C90.3,29.4,80.4,42.7,65,63.7S41.1,96.3,39.5,98.5l-19.3,28.4l1,1.3
		c2.4,0.2,7.6,0.4,15.9,0.5s13,0.2,14.2,0.2L77.1,128.8z"/>
</g>
</svg>
