<?xml version="1.0" encoding="utf-8"?>
<!-- Generator: Adobe Illustrator 21.0.0, SVG Export Plug-In . SVG Version: 6.00 Build 0)  -->
<svg version="1.1" id="レイヤー_1" xmlns="http://www.w3.org/2000/svg" xmlns:xlink="http://www.w3.org/1999/xlink" x="0px"
	 y="0px" viewBox="0 0 138.4 200.1" style="enable-background:new 0 0 138.4 200.1;" xml:space="preserve">
<style type="text/css">
	.st0{fill:#40708D;}
</style>
<g>
	<path class="st0" d="M0,185.2c2.2-8.4,5-21.6,8.3-39.5L15,147c-0.5,5.5-0.7,9.5-0.7,12.1c0,5.8,1.4,11,4.2,15.6s7.1,8.3,12.9,11
		c5.8,2.7,12.1,4,18.9,4c9.5,0,18.1-2.7,25.7-8.2c7.6-5.4,13.5-13.7,17.7-24.8c4.1-11.1,6.2-21.9,6.2-32.4c0-7.4-1.5-14-4.4-20
		s-7.2-10.4-12.8-13.4c-5.6-3-11.8-4.5-18.4-4.5c-6.5,0-12.8,1.4-19,4.3c-4.1,1.9-9.5,6.1-16.3,12.6l-6.3-3
		c6-25.8,12.2-58.7,18.7-98.7L43.8,0c11.2,0.8,21.2,1.3,30,1.7s16.6,0.6,23.2,0.6c7,0,13.7-0.1,20.3-0.3s13-0.5,19.3-0.9l1.9,2.6
		l-10.3,16.6c-5.3,0.5-11.1,0.8-17.4,1.1s-12.9,0.4-19.9,0.4c-6.8,0-13.5-0.1-20.3-0.3C63.7,21.3,57,21,50.3,20.6L35.7,87.1
		c11.8-8.9,25-13.4,39.5-13.4c9.2,0,17.7,1.8,25.4,5.4c7.7,3.6,13.7,9,17.8,16.1s6.2,15.7,6.2,25.6c0,9.1-1.7,18.2-5.1,27.3
		c-3.4,9.1-7.9,17.1-13.7,23.9c-4.1,4.7-9.1,9.1-15,13.1s-11.9,7.2-17.9,9.7c-8.6,3.5-18,5.3-28.2,5.3c-10,0-19.3-1.6-27.9-4.8
		C11.3,193.1,5.6,189.8,0,185.2z"/>
</g>
</svg>
