<svg xmlns="http://www.w3.org/2000/svg" viewBox="0 0 187.5 187.5"><defs><style>.cls-1{fill:#c7c7c7;opacity:0.5;}.cls-2{font-size:26.25px;fill:#4d4d4d;font-family:TsukuGoPro-M, TsukuGoPro M-83pv-RKSJ-H;letter-spacing:0.05em;}.cls-3{fill:#dae19b;}.cls-4{fill:#040000;opacity:0.15;}.cls-5{fill:#a0a1a1;}.cls-6{fill:#474747;}.cls-7{fill:#afaeaf;}.cls-8{fill:#c2c2c1;}.cls-9{fill:none;}.cls-10{fill:#e8e8e8;}.cls-11{fill:#f4f4f4;}.cls-12{fill:#292f2f;}.cls-13{fill:#353b3c;}.cls-14{fill:#f3f2f2;}.cls-15{fill:#fff;}</style></defs><title>icon_see_en</title><g id="レイヤー_1" data-name="レイヤー 1"><rect class="cls-1" width="187.5" height="187.5"/></g><g id="レイヤー_2" data-name="レイヤー 2"><text class="cls-2" transform="translate(70.62 165.15)">See</text><rect class="cls-3" x="33.75" y="11.88" width="120" height="120"/><path class="cls-4" d="M153.75,72.15v60.52H102.07L86.15,116.75v-26h3V86.21a30.1,30.1,0,0,1-11.29-4.69,26.12,26.12,0,0,1-2.18-1.6,23.77,23.77,0,0,1-2.24-2l3.26-3.26L69,60.88l8.07-27.6,36.61,4.32,2.76-2.76,2.65,2.65,2,2Z" transform="translate(0 -0.79)"/><path class="cls-5" d="M119.09,37.49A28.44,28.44,0,0,0,116.51,34,30.66,30.66,0,0,0,97.1,27.09c-.54,0-1.06,0-1.57,0a30.86,30.86,0,0,0-25.85,16.7c-.14.28-.29.55-.42.83a30.89,30.89,0,0,0,4.25,33.12l.1.12a30.73,30.73,0,0,0,15.5,6.64h0a32.26,32.26,0,0,0,3.9.24c.84,0,1.68,0,2.51-.11a30.05,30.05,0,0,0,5.45-.94,30.81,30.81,0,0,0,19.14-15.08,7.43,7.43,0,0,0,.38-.76,30.79,30.79,0,0,0-1.4-30.4ZM71.17,53.93a21.84,21.84,0,0,1,38.27-14.4l0,0a0,0,0,0,1,0,0c.24.28.48.58.71.86l.28.37a15.58,15.58,0,0,1,1.16,1.68,21.61,21.61,0,0,1,3.24,11.44A21.87,21.87,0,0,1,95.53,75.65h0a21.82,21.82,0,0,1-15.6-4.22l0,0c-.41-.31-.82-.64-1.21-1a4.83,4.83,0,0,1-.46-.41A21.81,21.81,0,0,1,71.17,53.93Z" transform="translate(0 -0.79)"/><path class="cls-6" d="M116.43,34.85c-.07-.1-.14-.19-.23-.29A30.7,30.7,0,0,0,96.8,27.7l-1.27,0a30.83,30.83,0,0,0-25.85,16.1c-.14.28-.29.55-.42.83a30.8,30.8,0,0,0,1.19,29.88,27,27,0,0,0,2.94,3.36,23.77,23.77,0,0,0,2.24,2,26.12,26.12,0,0,0,2.18,1.6,29.82,29.82,0,0,0,11.29,3.62h0a29.25,29.25,0,0,0,3.59.22c.95,0,1.9,0,2.82-.13a28.32,28.32,0,0,0,5.45-1,30.79,30.79,0,0,0,19.14-15.59,7.43,7.43,0,0,0,.38-.76,30.78,30.78,0,0,0-4.07-33Zm2.21,23.68A21.83,21.83,0,0,1,101,80a20.79,20.79,0,0,1-4.18.41c-.43,0-.85,0-1.27,0A21.41,21.41,0,0,1,89.12,79h0A21.83,21.83,0,0,1,79.61,72l-.16-.2A18.81,18.81,0,0,1,78.21,70a4.14,4.14,0,0,1-.3-.49s0,0,0,0a21.62,21.62,0,0,1-3-10.94A21.86,21.86,0,0,1,95.51,36.71h0c.42,0,.84,0,1.27,0A21.78,21.78,0,0,1,109.89,41l.2.16c.53.42,1,.85,1.54,1.31A22,22,0,0,1,113.91,45l0,.06A21.77,21.77,0,0,1,118.64,58.53Z" transform="translate(0 -0.79)"/><path class="cls-7" d="M101,77V97.42H89.11V77l.72.19a3.11,3.11,0,0,0,.32.07l.4.08a3.73,3.73,0,0,0,.53.11l.2,0a4.38,4.38,0,0,0,.55.08h.06l.41.06h.14l.48,0a3.8,3.8,0,0,0,.38,0h.12l.43,0h.28l.89,0h1.09c.28,0,.54,0,.8-.06l.41,0,.38,0,.22,0,.41-.06h.11l.26,0h.07a0,0,0,0,1,0,0h0l.3-.06h.06l.31-.06.08,0h.07l.29-.06a3.11,3.11,0,0,0,.32-.07l.25-.06.12,0Z" transform="translate(0 -0.79)"/><path class="cls-8" d="M101,87.21v20.41H89.11V87.21a22,22,0,0,0,11.87,0Z" transform="translate(0 -0.79)"/><path class="cls-9" d="M116.89,56A21.84,21.84,0,0,0,95.52,34.12V77.81A21.85,21.85,0,0,0,116.89,56Z" transform="translate(0 -0.79)"/><path class="cls-9" d="M73.19,56A21.85,21.85,0,0,0,95,77.82h.48V34.12H95A21.85,21.85,0,0,0,73.19,56Z" transform="translate(0 -0.79)"/><path class="cls-10" d="M121.13,39.53A30.08,30.08,0,0,0,118.54,36a30.73,30.73,0,0,0-23-10.85H95a30.81,30.81,0,0,0-24.59,49.4,27,27,0,0,0,2.94,3.36,23.77,23.77,0,0,0,2.24,2,26.12,26.12,0,0,0,2.18,1.6,30.1,30.1,0,0,0,11.29,4.69h0a30,30,0,0,0,5.92.58h.49a30.28,30.28,0,0,0,5.45-.56,30.81,30.81,0,0,0,20.16-46.68ZM110.91,41l.66.72.65.78c.38.49.76,1,1.09,1.52.23.34.44.68.65,1a2.38,2.38,0,0,1,.13.24,7.94,7.94,0,0,1,.37.71,11.71,11.71,0,0,1,.56,1.18,5.21,5.21,0,0,1,.3.71c.12.28.23.56.32.85s.12.35.17.52.18.55.25.84a2.9,2.9,0,0,1,.12.43c.07.28.14.55.2.84s.11.53.16.79.11.68.16,1,.07.62.1.94,0,.62.06.94,0,.64,0,.95,0,.86,0,1.3c0,.68-.12,1.36-.22,2-.06.36-.12.71-.19,1.07a0,0,0,0,1,0,0,8,8,0,0,1-.22,1,.15.15,0,0,1,0,.07c-.08.32-.17.65-.28,1s-.18.59-.29.88a20,20,0,0,1-1.84,3.9l-.07.13-.47.74-.1.14-.34.47-.34.46c-.19.26-.38.52-.59.76l-.08.1-.65.74c-.25.28-.5.54-.77.79s-.44.44-.67.65l-.2.18q-.4.36-.83.68l-.11.1c-.18.14-.36.29-.55.42s-.64.47-1,.68-.49.32-.74.47l-.24.14c-.28.17-.56.34-.86.48s-.4.22-.6.31c-.41.2-.82.38-1.22.55l-.82.31a2.76,2.76,0,0,1-.41.14l-.4.13-.25.08-.31.1L101,77,101,77l-.35.08-.12,0-.25.06a3.11,3.11,0,0,1-.32.07l-.29.06h-.07l-.08,0-.31.06h-.06l-.3.06h-.14l-.23,0h-.11l-.41.06-.22,0-.38,0-.41,0c-.26,0-.53,0-.8.06H95l-.89,0h-.28l-.43,0h-.12a3.8,3.8,0,0,1-.38,0l-.48,0-.55-.07h-.06a4.38,4.38,0,0,1-.55-.08l-.2,0a3.73,3.73,0,0,1-.53-.11l-.2,0-.19,0a3.11,3.11,0,0,1-.32-.07c-.24,0-.48-.12-.71-.18h0l-.25-.08c-.28-.07-.55-.17-.83-.26A14.41,14.41,0,0,1,86.42,76a10.79,10.79,0,0,1-1.07-.49c-.3-.14-.6-.3-.89-.47s-.58-.32-.86-.5-.54-.34-.8-.52l-.84-.6q-.9-.68-1.73-1.44l-.49-.47c-.37-.37-.73-.74-1.07-1.14s-.52-.59-.76-.9c0,0,0,0,0,0l-.54-.71c-.31-.42-.6-.86-.89-1.31s-.6-1-.88-1.56c-.19-.37-.37-.76-.54-1.14s-.29-.67-.42-1a2.52,2.52,0,0,1-.1-.28c-.13-.35-.25-.71-.37-1.08s-.18-.59-.25-.9-.13-.5-.18-.76a22.14,22.14,0,0,1-.46-3c0-.26,0-.53,0-.79s0-.66,0-1A21.84,21.84,0,0,1,95,34.12h.49l.67,0h.2c.35,0,.68,0,1,.08l.3,0h.06c.37,0,.74.1,1.09.17l.47.08.47.1.49.11.52.14c.12,0,.24.07.36.11a11.69,11.69,0,0,1,1.3.42l.12,0c.35.13.71.26,1,.42L104,36c.24.1.47.22.7.32l.06,0c.25.12.49.25.74.38l.11.06.73.42a13,13,0,0,1,1.2.79c.34.23.67.47,1,.73s.62.49.91.76l0,0a0,0,0,0,1,0,0l.72.66.42.42Z" transform="translate(0 -0.79)"/><path class="cls-11" d="M95.53,25.15v9H95A21.84,21.84,0,0,0,73.19,56c0,.34,0,.67,0,1s0,.53,0,.79a22.14,22.14,0,0,0,.46,3q.07.38.18.76c.07.31.17.61.25.9s.24.73.37,1.08a2.52,2.52,0,0,0,.1.28c.13.34.26.67.42,1s.35.77.54,1.14c.28.54.56,1.06.88,1.56s.58.89.89,1.31l.54.71s0,0,0,0q.36.47.76.9c.34.4.7.77,1.07,1.14l.49.47q.83.76,1.73,1.44l.84.6c.26.18.54.35.8.52s.58.35.86.5.59.32.89.47a10.79,10.79,0,0,0,1.07.49,14.41,14.41,0,0,0,1.61.62c.28.1.55.19.83.26l.25.08h0c.23.06.47.13.71.18a3.11,3.11,0,0,0,.32.07l.19,0,.2,0a3.73,3.73,0,0,0,.53.11l.2,0a4.38,4.38,0,0,0,.55.08h.06l.55.07.48,0a3.8,3.8,0,0,0,.38,0h.12l.43,0h.28l.89,0h.5v9H95a30,30,0,0,1-5.92-.58h0a30.1,30.1,0,0,1-11.29-4.69,26.12,26.12,0,0,1-2.18-1.6,23.77,23.77,0,0,1-2.24-2,27,27,0,0,1-2.94-3.36A30.81,30.81,0,0,1,95,25.13Z" transform="translate(0 -0.79)"/><line class="cls-9" x1="95.52" y1="86" x2="95.1" y2="86.42"/><path class="cls-12" d="M95.52,90.79V93.1h8.41v6.22H95.52v20.87h6.37a2,2,0,0,0,2-2V90.79Z" transform="translate(0 -0.79)"/><rect class="cls-13" x="86.15" y="90" width="9.36" height="2.32"/><path class="cls-13" d="M95.51,99.32V120.2H88.19a2,2,0,0,1-2-2.05V99.32Z" transform="translate(0 -0.79)"/><rect class="cls-14" x="86.15" y="92.31" width="9.36" height="6.22"/><rect class="cls-10" x="95.52" y="92.31" width="8.41" height="6.22"/><path class="cls-15" d="M80.77,57.83c-1,0-2-1.4-2.15-4a11.49,11.49,0,0,1,.82-4.51,14,14,0,0,1,7.87-7.87,11.49,11.49,0,0,1,4.51-.82c2.63.11,4.06,1.17,4,2.15s-1.28,1.92-2.84,3a33.88,33.88,0,0,0-5.2,4.08A33.89,33.89,0,0,0,83.74,55C82.69,56.55,81.83,57.82,80.77,57.83Z" transform="translate(0 -0.79)"/></g></svg>