<svg xmlns="http://www.w3.org/2000/svg" viewBox="0 0 187.5 187.5"><defs><style>.cls-1{fill:#c7c7c7;opacity:0.5;}.cls-2{font-size:26.25px;fill:#4d4d4d;font-family:TsukuGoPro-M, TsukuGoPro M-83pv-RKSJ-H;letter-spacing:0.05em;}.cls-3{fill:#99d1d6;}.cls-4{fill:#040000;opacity:0.1;}.cls-5{fill:#f5f5f6;}.cls-10,.cls-6{fill:#fff;}.cls-7{fill:#d7d7d8;}.cls-8{fill:#42351c;}.cls-9{fill:#e57474;}.cls-10{opacity:0.12;}</style></defs><title>icon_buy_en</title><g id="レイヤー_1" data-name="レイヤー 1"><rect class="cls-1" width="187.5" height="187.5"/></g><g id="レイヤー_2" data-name="レイヤー 2"><text class="cls-2" transform="translate(69.81 165.1)">Buy</text><rect class="cls-3" x="33.83" y="11.92" width="119.83" height="119.83"/><path class="cls-4" d="M153.67,76.23v56.31H90L66.56,109.1h0l-2.79-2.8a5.92,5.92,0,0,1-.66-2.72l0-.24L57.27,69.57,57,68a4.11,4.11,0,0,1-.6-.7c-.08-.12-.17-.25-.24-.37a3.65,3.65,0,0,1-.37-.83,1.63,1.63,0,0,1-.06-.23,1,1,0,0,1-.07-.26,4.4,4.4,0,0,1-.1-.9V53.4H69L83.52,38.23a3.2,3.2,0,0,1,.59-.49,2.87,2.87,0,0,1,.65-.36,3.69,3.69,0,0,1,2.77,0,3.58,3.58,0,0,1,1.2.77,3.68,3.68,0,0,1,.11,5.21L79.17,53.4h28.46L96.35,41.65a3.68,3.68,0,1,1,5.31-5.1l13.8,14.37,2.38,2.49h13Z" transform="translate(0 -0.79)"/><rect class="cls-5" x="65.18" y="84.31" width="56.94" height="4.91"/><rect class="cls-5" x="91.19" y="70.85" width="4.91" height="31.36"/><rect class="cls-5" x="78.9" y="70.85" width="4.91" height="31.36"/><rect class="cls-5" x="103.48" y="71.32" width="4.91" height="31.36"/><path class="cls-6" d="M56.53,65.27,57,68v0l.28,1.57L63,103.33l0,.24a5.92,5.92,0,0,0,.66,2.72,6.38,6.38,0,0,0,2.79,2.8h0a6.84,6.84,0,0,0,3.13.74H117.6a6.45,6.45,0,0,0,6.61-6.28L130,69.8l.28-1.59.5-2.94Zm58.84,35.36H71.93L71,95.34,70.12,90l-.85-4.91L67.46,74.48h52.38L118,85.1,117.18,90Z" transform="translate(0 -0.79)"/><path class="cls-7" d="M130.77,65.27l-.5,2.94L130,69.8a5.71,5.71,0,0,1-3.82,1.45H61.34a5.7,5.7,0,0,1-4.06-1.68L57,68v0l-.47-2.71Z" transform="translate(0 -0.79)"/><path class="cls-8" d="M121.08,59.56a3.72,3.72,0,0,1-1,1.53,3.68,3.68,0,0,1-5.21-.11l-4.66-4.87-2.62-2.72L96.35,41.65a3.68,3.68,0,1,1,5.31-5.1l13.8,14.37,2.38,2.49,2.38,2.48A3.69,3.69,0,0,1,121.08,59.56Z" transform="translate(0 -0.79)"/><path class="cls-8" d="M88.82,43.34,79.17,53.4l-8.9,9.27a3.69,3.69,0,1,1-5.32-5.1l4-4.17h0L83.52,38.23a3.2,3.2,0,0,1,.59-.49,3.42,3.42,0,0,1,.65-.36,3.75,3.75,0,0,1,2.77,0,3.58,3.58,0,0,1,1.2.77A3.68,3.68,0,0,1,88.82,43.34Z" transform="translate(0 -0.79)"/><path class="cls-9" d="M131.94,53.4V64.72a4.48,4.48,0,0,1-4.47,4.47H60A4.51,4.51,0,0,1,57,68a4.11,4.11,0,0,1-.6-.7c-.08-.12-.17-.25-.24-.37a3.65,3.65,0,0,1-.37-.83,1.63,1.63,0,0,1-.06-.23,1,1,0,0,1-.07-.26,4.4,4.4,0,0,1-.1-.9V53.4Z" transform="translate(0 -0.79)"/><path class="cls-10" d="M101.66,36.54a3.68,3.68,0,1,0-5.31,5.1L107.63,53.4H79.17l9.66-10.07a3.68,3.68,0,0,0-.11-5.21,3.58,3.58,0,0,0-1.2-.77,3.69,3.69,0,0,0-2.77,0,2.87,2.87,0,0,0-.65.36,3.2,3.2,0,0,0-.59.49L69,53.4H55.56V64.72a4.4,4.4,0,0,0,.1.9,1,1,0,0,0,.07.26,1.63,1.63,0,0,0,.06.23,4.27,4.27,0,0,0,.37.83c.07.12.16.25.24.37A5.37,5.37,0,0,0,57,68v0l.28,1.57L63,103.33l8-8L70.12,90h6.24l2.54-2.54,2.37-2.37,2.54-2.54V74.48h7.37v.71l.71-.71,3.24-3.24,2.06-2.06,3.92-3.92L113,53.4l2.49-2.49ZM78.9,85.1H69.27L67.46,74.48H78.9Z" transform="translate(0 -0.79)"/></g></svg>