<svg xmlns="http://www.w3.org/2000/svg" viewBox="0 0 187.5 187.5"><defs><style>.cls-1{fill:#c7c7c7;opacity:0.5;}.cls-2{fill:#fff;opacity:0.7;}.cls-3{font-size:26.25px;fill:#4d4d4d;font-family:TsukuGoPro-M, TsukuGoPro M-83pv-RKSJ-H;letter-spacing:0.2em;}</style></defs><title>icon_kurobe_en</title><g id="レイヤー_1" data-name="レイヤー 1"><rect class="cls-1" width="187.5" height="187.5"/></g><g id="レイヤー_2" data-name="レイヤー 2"><path class="cls-2" d="M104.62,48c-.29-.14-.43-.23-.43-.23S100,51,99,51.89s-.51,3-1.69,3h-2l-1.49-4.4S92,47.94,91.53,47.81s-3.55-1-4.9-2.16-2-1.69-2.87-1.86-4.9-.84-4.9-.84S77,38.38,76.33,36.69,72.78,34,72.78,34s-1.18,4.56,0,5.57S76.84,46,75,46.15s-1.89.51-2.72-.17a20.08,20.08,0,0,0-3.7-2.53c-.68-.17-3.38-.51-3.38-.51l-2.7-2-3.72-1s-2.53-4.05-5-5.07-4.48-1.69-5.15-2-5.91-1.18-7.6-1.69S36,29.43,36,29.43l-3.72-2-3.72-2.53L26,22.67l-4.13-2.86a64.05,64.05,0,0,0-4.25,7.59l-2,3.38.9,5.18L19,39.34a70.59,70.59,0,0,1-.9,7.88,4.85,4.85,0,0,1-1.91,3.32l1.06.85,3.72,2.2,2,1.52s.84,1.18,1.69,1.18,1.69.51,3.72,2.2A12.58,12.58,0,0,1,30.9,61,8.92,8.92,0,0,1,34,61a18.73,18.73,0,0,1,2.81,1.35s1.69,1,3.38,2.2,7.94,0,7.94,0a20.37,20.37,0,0,1,4.05,2.2,35.75,35.75,0,0,0,5.4,2.87s-.17,2.2-.17,2.87a16.41,16.41,0,0,1-1.18,3.21,11.54,11.54,0,0,0-1,3.94c0,1.74,2.53,3,3,4a5.15,5.15,0,0,1,0,2.87l4.56,4.56s3.55.34,5.24.34a4.45,4.45,0,0,0,2.87-1.18,7.47,7.47,0,0,0,1.35,1.52,24.66,24.66,0,0,1,2.53,3.38s1.35,1,2.36,1.69,5.91.84,5.91.84l2.2,2.7s1.86,1.35,3,2a26,26,0,0,0,4.05,1.49s1,1.89,1.86,3.24a23.81,23.81,0,0,1,1.69,4.9l1.69.31c1.69.31,2.7,3.07,2.7,3.07s3,.68,3.89,1.52-.51,3,0,4.39-1.18,1.83-1.18,1.83l-2.36,1.38s-2.53,3.72-2.7,4.22-3,2-3,2a8.34,8.34,0,0,0-1.1,2.2,15.75,15.75,0,0,1-.84,2.36s1.35,1.52,2.36,2.53c.41.41.74,1.93,1,3.64l2.73,2.24,5.07,3.41,1.69,5.07h2.7a34.42,34.42,0,0,0,2.2,4.9,19.29,19.29,0,0,1,1.4,3.52l7-.15a12.1,12.1,0,0,0,7.09,1.69,31.36,31.36,0,0,0,7.6-1.69s2.2-1.35,3.21-2a4.12,4.12,0,0,1,3.38-.34c.51.34,10,6.92,10.64,7.43a19.08,19.08,0,0,0,3.72,1.86c.47.12,6.27.15,10,.28a14.82,14.82,0,0,0,2.25-4.72,20.76,20.76,0,0,0,.45-5.63l1.58-3.83-1.8-2.93a11,11,0,0,0,4.05-3.83c1.13-2.25,0-7.88,0-7.88l-3.38-4.5.9-2.48s-2.7-3.15-2.7-5.63,1.58-12.61,1.58-13.74,1.58-3.6,1.58-3.6l-2.7-4.73s.5-.63,1.14-1.38a8,8,0,0,1-1.48-1.6,27.27,27.27,0,0,1-1.52-4s-2.53-3-3.55-2.77-2.53,1.47-3,0-2.36-5.87-2.36-5.87-5.24,3.88-6.76,3.72-2-2.36-2-2.36l-.68-1.35-2.2-2.2a21.12,21.12,0,0,0,0-4.69c-.34-1.06-2.36-2-2.36-2a20.48,20.48,0,0,0-4.22,0,11.71,11.71,0,0,1-3.38-.13l-1-4a19.58,19.58,0,0,1-4.56,0c-1.35-.34-1.52-.91-2-1.72s-5.24-4.7-5.57-5.88a19.81,19.81,0,0,1,0-4.56,14.92,14.92,0,0,1-.15-4.05,3.81,3.81,0,0,0-.11-2.2c-.08-.51-1.43-1.69-1.43-1.69h-5.91l-1.3-3.72a29.58,29.58,0,0,0-5.11-2.7,18.46,18.46,0,0,1-2.44-1" transform="translate(0 -0.79)"/><text class="cls-3" transform="translate(37.9 104)">Kurobe</text></g></svg>