<svg xmlns="http://www.w3.org/2000/svg" viewBox="0 0 187.5 187.5"><defs><style>.cls-1{fill:#c7c7c7;opacity:0.5;}.cls-2{font-size:26.25px;fill:#4d4d4d;font-family:TsukuGoPro-M, TsukuGoPro M-83pv-RKSJ-H;letter-spacing:0.05em;}.cls-3{fill:#807b6c;}.cls-4{fill:#221714;opacity:0.1;}.cls-5{fill:#e6e6e6;}.cls-6{fill:#d3d4d4;}.cls-7{fill:#d5d5d6;}.cls-8{fill:#c6c6c6;}.cls-9{fill:#eeb75b;}.cls-10{fill:#e7a833;}.cls-11{fill:#efefef;}</style></defs><title>icon_eat_en</title><g id="レイヤー_1" data-name="レイヤー 1"><rect class="cls-1" width="187.5" height="187.5"/></g><g id="レイヤー_2" data-name="レイヤー 2"><text class="cls-2" transform="translate(73.46 165.15)">Eat</text><rect class="cls-3" x="33.75" y="11.88" width="120" height="120"/><path class="cls-4" d="M153.75,66.13v66.54H81.47L62.84,114h0l-1.1-1.1a2.85,2.85,0,0,1-.31-1.27V94.78l7.25-7.25.83-.83,4.4-4.4.22-.22L74,82,71.9,79.89l2.21-2.2-4.62-4.62L57.91,61.49l1.39-1.4-7.39-7.4,7-7-7.2-7.2,3.11-3.11,3.06-3.06,0,0,7.2,7.2.47-.47,3.9-3.91,2.71-2.71.11-.11,7.4,7.4,7.4-7.4,17.09,17.1,1.31,1.31,16.4-16.4.61.61Z" transform="translate(0 -0.79)"/><path class="cls-5" d="M111.1,70.72h-4.9a3.28,3.28,0,0,1-2.91-1.89l1.88-.27h12.65V32.72l-.3.1-10.12,4.24a3.82,3.82,0,0,0-2.3,2.91L102.5,66.83a3.82,3.82,0,0,0,3.7,4.42l5.82.14v39.79a2.18,2.18,0,0,0,2.18,2.18h3.63V70.72Z" transform="translate(0 -0.79)"/><path class="cls-6" d="M117.83,113.37h2.81a2.18,2.18,0,0,0,2.18-2.18V70.72h-5Z" transform="translate(0 -0.79)"/><path class="cls-6" d="M121.12,33.17a3.8,3.8,0,0,0-3.28-.45V68.56h5V36.34A3.81,3.81,0,0,0,121.12,33.17Z" transform="translate(0 -0.79)"/><path class="cls-7" d="M103.3,68.83a3.28,3.28,0,0,0,2.91,1.89h11.63V68.56H105.18Z" transform="translate(0 -0.79)"/><path class="cls-8" d="M117.83,70.72h5V68.56h-5Z" transform="translate(0 -0.79)"/><path class="cls-6" d="M84,31a3.9,3.9,0,0,0-3.9,3.9V49.86a3.37,3.37,0,0,1-6.73,0V35.19a3.9,3.9,0,0,0-3.9-3.9v82.35h3.22a2.18,2.18,0,0,0,2.18-2.18V68.83a18.66,18.66,0,0,0,2.91-1,18.16,18.16,0,0,0,8.7-8.32,15,15,0,0,0,1-2.61,10.53,10.53,0,0,0,.29-1.26,8.06,8.06,0,0,0,.11-1.3V34.92A3.9,3.9,0,0,0,84,31Z" transform="translate(0 -0.79)"/><path class="cls-5" d="M65.59,35.19V49.86a3.36,3.36,0,0,1-6.73,0V34.92a3.9,3.9,0,0,0-7.81,0V54.3a8.08,8.08,0,0,0,.09,1.16,11.76,11.76,0,0,0,.53,2.11,16.79,16.79,0,0,0,2,3.9,18.37,18.37,0,0,0,2.49,2.94A18.09,18.09,0,0,0,61.74,68a18.8,18.8,0,0,0,2.36.79v42.63a2.18,2.18,0,0,0,2.18,2.18h3.22V31.28A3.9,3.9,0,0,0,65.59,35.19Z" transform="translate(0 -0.79)"/><path class="cls-9" d="M69.49,82.3v32H64.11a2.84,2.84,0,0,1-1.27-.31h0a2.81,2.81,0,0,1-1.09-1.09h0a2.85,2.85,0,0,1-.31-1.27V85A2.69,2.69,0,0,1,64.1,82.3Z" transform="translate(0 -0.79)"/><path class="cls-10" d="M74.87,82.3H69.49v32h5.38a2.69,2.69,0,0,0,2.69-2.69V85A2.69,2.69,0,0,0,74.87,82.3Z" transform="translate(0 -0.79)"/><path class="cls-9" d="M117.44,82h-5.38a2.69,2.69,0,0,0-2.69,2.69v26.65a2.69,2.69,0,0,0,2.69,2.69h5.77V82Z" transform="translate(0 -0.79)"/><path class="cls-10" d="M124.73,82.82a2.68,2.68,0,0,0-1.9-.79h-5v32h5a2.69,2.69,0,0,0,2.69-2.69V84.72A2.68,2.68,0,0,0,124.73,82.82Z" transform="translate(0 -0.79)"/><path class="cls-11" d="M62.68,82a2.75,2.75,0,1,0,0,5.5h6.81V82Z" transform="translate(0 -0.79)"/><path class="cls-11" d="M76.3,82H69.49v5.5H76.3a2.75,2.75,0,0,0,0-5.5Z" transform="translate(0 -0.79)"/><path class="cls-11" d="M126.85,84.51a2.75,2.75,0,0,1-2.75,2.75H110.49a2.75,2.75,0,0,1-2.75-2.75h0a2.75,2.75,0,0,1,2.75-2.75H124.1a2.75,2.75,0,0,1,2.75,2.75Z" transform="translate(0 -0.79)"/></g></svg>