<svg xmlns="http://www.w3.org/2000/svg" viewBox="0 0 187.5 187.5"><defs><style>.cls-1{fill:#c7c7c7;opacity:0.5;}.cls-2{fill:#fff;opacity:0.7;}.cls-3{font-size:26.25px;fill:#4d4d4d;font-family:TsukuGoPro-M, TsukuGoPro M-83pv-RKSJ-H;letter-spacing:0.2em;}</style></defs><title>icon_nyuzen_en</title><g id="レイヤー_1" data-name="レイヤー 1"><rect class="cls-1" width="187.5" height="187.5"/></g><g id="レイヤー_2" data-name="レイヤー 2"><path class="cls-2" d="M33.36,88.83l6.46,4.41,6.46,3.53s5.88,2.06,8.82,2.94,12,2.35,13.22,2.94,4.7,1.76,9,3.53S86,115,86,115l6.46,1.76,4.7,3.53s4.7.59,5.88.88,5,3.23,6.43,4.41,1.5.59,4.73.29-1.76-9.7-3.82-11.46,0-9.7,0-9.7,5,1.76,6.17,4.7,4.41,10.87,4.41,10.87,7.05,1.18,8.52,1.47,2.64,1.18,5,3.23,7.64,3.53,8.52,3.77,3.86,4.75,3.86,4.75l2.6,7.65h3.53c2.06,0,1.18-3.82,2.94-5.29s9.11-7.11,9.11-7.11.24.15.74.4l-.74-4.46-5.88-5.29s-4.55-7.35-7.27-7.35a9.36,9.36,0,0,0-5,1.76l-6.8,1.47-4.11-.59-3.82-1.18v-2.94s-10.87-.29-10.58-2.35,0-2.94,1.18-6.17a63.41,63.41,0,0,0,2.06-7.64L125,90.3H112.4s-1.18,3.23-4.11,2.64a15.5,15.5,0,0,1-5.58-2.64v-5L99.76,80s1.47-4.72,2.06-6.19S103,66.5,103,66.5s3.53-1.76,5-2.35,3.82-4.7,3.82-4.7L112.4,53s.08-3.31.3-6.61c-6,.48-10.83.89-11.37,1-1.57.39-18.81,4.31-25.86,6.66s-31,14.15-31,14.15a43.3,43.3,0,0,1-12.93,5c-7.44,1.57-6.66,3.92-9,5.88a6.13,6.13,0,0,0-.83.9L29,85Z" transform="translate(0 -0.79)"/><text class="cls-3" transform="translate(38 104)">Nyuzen</text></g></svg>