<svg xmlns="http://www.w3.org/2000/svg" viewBox="0 0 187.5 187.5"><defs><style>.cls-1{fill:#c7c7c7;opacity:0.5;}.cls-2{font-size:26.25px;fill:#4d4d4d;font-family:TsukuGoPro-M, TsukuGoPro M-83pv-RKSJ-H;letter-spacing:0.05em;}.cls-3{fill:#f3b294;}.cls-4{fill:#221714;opacity:0.1;}.cls-5{fill:#e4d1bc;}.cls-6{fill:#fff;}.cls-7{fill:#717171;}.cls-8{fill:#e4e0df;}.cls-9{fill:#7eacb7;}.cls-10{fill:#c0c1c1;}</style></defs><title>icon_experience_en</title><g id="レイヤー_1" data-name="レイヤー 1"><rect class="cls-1" width="187.5" height="187.5"/></g><g id="レイヤー_2" data-name="レイヤー 2"><text class="cls-2" transform="translate(22.52 165.15)">Experience</text><rect class="cls-3" x="33.75" y="11.88" width="120" height="120"/><path class="cls-4" d="M138.69,71.39,121.48,54.2l-4.73-4.73a7,7,0,0,0-2-.29H100.27v3.68H105l3.29,6.89H96.08L86.9,50.56l0-1.77H66.44L66.51,57l8.26-1,2.76,5.77L72.94,71.92A18.64,18.64,0,0,0,50.5,98.18l8,8L85,132.67h68.77V86.45Z" transform="translate(0 -0.79)"/><circle class="cls-5" cx="67.26" cy="88.58" r="15.7"/><circle class="cls-6" cx="67.26" cy="88.58" r="15.7"/><path class="cls-7" d="M80.45,76.18a18.66,18.66,0,1,0,5.46,13.19A18.62,18.62,0,0,0,80.45,76.18ZM76.27,98.39a12.75,12.75,0,1,1,3.74-9A12.7,12.7,0,0,1,76.27,98.39Z" transform="translate(0 -0.79)"/><circle class="cls-5" cx="124.43" cy="88.03" r="13.46"/><circle class="cls-6" cx="124.43" cy="88.03" r="15.7"/><circle class="cls-8" cx="67.26" cy="88.58" r="11.35"/><circle class="cls-8" cx="124.43" cy="88.03" r="11.35"/><path class="cls-7" d="M137.62,75.63a18.65,18.65,0,1,0,5.47,13.19A18.6,18.6,0,0,0,137.62,75.63Zm-4.17,22.21a12.75,12.75,0,1,1,3.73-9A12.71,12.71,0,0,1,133.45,97.84Z" transform="translate(0 -0.79)"/><path class="cls-9" d="M126.46,88.58,108,50a1.84,1.84,0,0,0-3.33,1.59l3.79,7.93H80.85L76.3,50A1.84,1.84,0,0,0,73,51.56l4.74,9.92-12,26.77a1.83,1.83,0,0,0-.11.32l-.09.36a1.84,1.84,0,0,0,1.79,2.28H93.08a1.87,1.87,0,0,0,.37,0h0a1.84,1.84,0,0,0,.39-.14L94,91a1.64,1.64,0,0,0,.26-.18l.09-.08a1.73,1.73,0,0,0,.28-.33h0l16.43-25.48,12.08,25.28a1.84,1.84,0,1,0,3.33-1.59Zm-33.14-3L82.61,63.18h25.16Zm-3.17,1.93H70l9.76-21.68Z" transform="translate(0 -0.79)"/><polygon class="cls-7" points="66.7 55.92 87.03 53.46 87.11 47.75 66.62 47.75 66.7 55.92"/><path class="cls-10" d="M105.65,48.92h-5.2v3.69h11.44V48.92Z" transform="translate(0 -0.79)"/><path class="cls-7" d="M120.39,51.52a6.81,6.81,0,0,0-2.31-1.88,7.07,7.07,0,0,0-3.17-.72h-3v3.69h3a3.39,3.39,0,0,1,1.53.33,3.34,3.34,0,0,1,1.45,1.49,5.08,5.08,0,0,1,.55,2.32,4.7,4.7,0,0,1-.26,1.55,3,3,0,0,1-.67,1.1L120.13,62a6.65,6.65,0,0,0,1.53-2.46,8.35,8.35,0,0,0,.47-2.8A8.48,8.48,0,0,0,120.39,51.52Z" transform="translate(0 -0.79)"/></g></svg>