<svg id="レイヤー_1" data-name="レイヤー 1" xmlns="http://www.w3.org/2000/svg" viewBox="0 0 187.5 187.5"><defs><style>.cls-1{fill:#c7c7c7;opacity:0.5;}.cls-2{fill:#fff;opacity:0.7;}.cls-3{font-size:26.25px;fill:#4d4d4d;font-family:TsukuGoPro-M, TsukuGoPro M-83pv-RKSJ-H;letter-spacing:0.2em;}</style></defs><title>uozu_en</title><rect class="cls-1" width="187.5" height="187.5"/><path class="cls-2" d="M22.57,74.34s4.18,7.84,4.18,8.63,2.35,5.75,2.35,5.75L32,93.38s5.23,5.8,6,6.85,7.84,5,7.84,5,2.09,5.49,2.35,6.28,2.61,5.75,2.61,5.75,3.92,7.58,4.18,8.37,3.4,5.49,5,6.49c.57.36,1.73,2.33,3,4.7l3.83,4.5A17.68,17.68,0,0,1,69.9,141c1.83,0,2.88-3,2.88-3l2.88,1.48s1.57-5.23,2.36-7.37a30.92,30.92,0,0,0,1-6.49s13.6-.26,14.38,0,4.18,5,4.18,5l3.66,5v14.12s1.83,3.66,2.09,4,2.61,5.4,3.92,4.88,8.89,0,8.89,0l2.88,1.57h4.44l3.4,1.57,7.32,2.3c3.14,1,5.49-2.57,5.49-2.57l2.62,1.57,2.87,1a27.43,27.43,0,0,1,6.54,0c2.61.47,7.32-3.87,7.32-3.87l.48.4c-.38-2.64-.89-5-1.53-5.63-1.57-1.57-3.66-3.92-3.66-3.92a24.39,24.39,0,0,0,1.31-3.66,12.91,12.91,0,0,1,1.7-3.4s4.31-2.35,4.58-3.14,4.18-6.54,4.18-6.54l3.66-2.14s2.62-.74,1.83-2.83,1.31-5.49,0-6.8-6-2.35-6-2.35-1.57-4.28-4.18-4.75l-2.61-.47s-1.31-5.49-2.61-7.58-2.88-5-2.88-5A40.23,40.23,0,0,1,147,100c-1.83-1-4.7-3.14-4.7-3.14l-3.4-4.18s-7.58-.26-9.15-1.31-3.66-2.61-3.66-2.61-2.88-4.44-3.92-5.23a11.56,11.56,0,0,1-2.09-2.35A6.88,6.88,0,0,1,115.65,83c-2.61,0-8.11-.52-8.11-.52l-7.06-7.06s.78-2.88,0-4.44-4.7-3.5-4.7-6.19a17.87,17.87,0,0,1,1.57-6.1s1.83-3.92,1.83-5,.26-4.44.26-4.44-6-2.61-8.37-4.44a31.54,31.54,0,0,0-6.28-3.4s-9.67,1.83-12.29,0S67.28,38,67.28,38a29,29,0,0,0-4.35-2.09,13.81,13.81,0,0,0-4.8,0A19.47,19.47,0,0,0,54.21,32c-3.14-2.61-4.44-3.4-5.75-3.4s-2.61-1.83-2.61-1.83L42.7,24.4,37,21l-1.64-1.32a4.6,4.6,0,0,1-1.93.79s1.39,6.62,2.09,8-3.14,6.28-6.62,9.76-5.93,10.11-5.93,10.11-2.81,14.69-7.85,19.5l3.58,3.07Z" transform="translate(0 -0.79)"/><text class="cls-3" transform="translate(55.08 107.89)">Uozu</text></svg>