<svg xmlns="http://www.w3.org/2000/svg" viewBox="0 0 187.5 187.5"><defs><style>.cls-1{fill:#c7c7c7;opacity:0.5;}.cls-2{fill:#fff;opacity:0.7;}.cls-3{font-size:26.25px;fill:#4d4d4d;font-family:TsukuGoPro-M, TsukuGoPro M-83pv-RKSJ-H;letter-spacing:0.2em;}</style></defs><title>icon_asahi_en</title><g id="レイヤー_1" data-name="レイヤー 1"><rect class="cls-1" width="187.5" height="187.5"/></g><g id="レイヤー_2" data-name="レイヤー 2"><path class="cls-2" d="M29.08,37.92S27.16,41.29,26,41.77s-4.09,1.92-4.09,1.92a42.36,42.36,0,0,1-1,6c-.48,1.2-1.68,5.07-1.68,5.07l2.4,4.31v4.09a12.68,12.68,0,0,0,4.57,2.16c2.4.48,3.37-2.16,3.37-2.16H39.9l-.24,3.37A51.88,51.88,0,0,1,38,72.78a16.35,16.35,0,0,0-1,5c-.24,1.68,8.66,1.92,8.66,1.92v2.4l3.12,1,3.37.48,5.56-1.2A7.66,7.66,0,0,1,61.84,81c2.23,0,5.95,6,5.95,6l4.81,4.33.61,3.65a26.28,26.28,0,0,0,3.48,1.4A42.11,42.11,0,0,1,84,100.18l1.86,5.29h8.41s1.92,1.68,2,2.4a5.42,5.42,0,0,1,.16,3.13c-.45,1.44.21,5.77.21,5.77s-.48,4.81,0,6.49,7.21,7.21,7.93,8.37,1,2,2.88,2.45,6.49,0,6.49,0l1.44,5.67s3.61.58,4.81.18,6,0,6,0,2.88,1.37,3.37,2.87,0,6.67,0,6.67l3.13,3.13,1,1.92s.72,3.13,2.88,3.37,9.62-5.29,9.62-5.29,2.64,6.25,3.37,8.36,2.88.3,4.33,0,5,3.95,5,3.95a38.81,38.81,0,0,0,2.16,5.72,11.43,11.43,0,0,0,2.11,2.28c.82-1,1.79-2.08,2.54-2.84,1.6-1.6,2.56-6.09,2.56-6.09l-5.13-3.21s-2.88-7.69-2.88-9.3,2.88-5.77,2.88-5.77-3.21-9-3.53-10.58-7.37-9-8.19-10.26-2.71-4.17-2.71-4.17,2.24-2.24,2.56-3.53a14.46,14.46,0,0,0,0-3.85L150,101.79s-1.28-12.5-1.6-14.42-10.26-9.94-10.26-9.94V66.53s1.6-2.88,2.56-5.13,0-7.05,0-7.05V49.54l-3.53-4.45-2.88-4.2s-6.41,0-12.18-.32a19.27,19.27,0,0,1-10.26-4.17h-4.81V32.55s-3.85-3.53-5.13-6.41S87.18,14.6,84.94,14.6s-13.46,4.49-13.46,4.49h-16L52.56,25.5s-13.28,1-22.75,1.72c-.18,2.7-.25,5.41-.25,5.41Z" transform="translate(0 -0.79)"/><text class="cls-3" transform="translate(49.64 104)">Asahi</text></g></svg>