<?xml version="1.0" encoding="utf-8"?>
<!-- Generator: Adobe Illustrator 21.0.0, SVG Export Plug-In . SVG Version: 6.00 Build 0)  -->
<svg version="1.1" id="レイヤー_1" xmlns="http://www.w3.org/2000/svg" xmlns:xlink="http://www.w3.org/1999/xlink" x="0px"
	 y="0px" viewBox="0 0 500 500" style="enable-background:new 0 0 500 500;" xml:space="preserve">
<style type="text/css">
	.st0{opacity:0.5;fill:#C7C7C7;}
	.st1{display:none;}
	.st2{display:inline;}
	.st3{fill:#4D4D4D;}
	.st4{font-family:'TsukuGoPro-M-83pv-RKSJ-H';}
	.st5{font-size:70.07px;}
	.st6{letter-spacing:3;}
	.st7{letter-spacing:-5;}
	.st8{letter-spacing:-2;}
	.st9{fill:#F3B294;}
	.st10{opacity:0.1;fill:#221714;}
	.st11{fill:#E4D1BC;}
	.st12{fill:#FFFFFF;}
	.st13{fill:#717171;}
	.st14{fill:#E4E0DF;}
	.st15{fill:#7EACB7;}
	.st16{fill:#C0C1C1;}
	.st17{fill:#DAE19B;}
	.st18{opacity:0.15;fill:#040000;}
	.st19{fill:#A0A1A1;}
	.st20{fill:#474747;}
	.st21{fill:#AFAEAF;}
	.st22{fill:#C2C2C1;}
	.st23{fill:none;}
	.st24{fill:#E8E8E8;}
	.st25{fill:#F4F4F4;}
	.st26{fill:#292F2F;}
	.st27{fill:#353B3C;}
	.st28{fill:#F3F2F2;}
</style>
<rect class="st0" width="500" height="500"/>
<g class="st1">
	<g class="st2">
		<text transform="matrix(1 0 0 1 111.7093 446.3311)"><tspan x="0" y="0" class="st3 st4 st5 st6">体</tspan><tspan x="73.6" y="0" class="st3 st4 st5">験</tspan><tspan x="144.3" y="0" class="st3 st4 st5 st7">す</tspan><tspan x="208.8" y="0" class="st3 st4 st5 st8">る</tspan></text>
	</g>
	<g class="st2">
		<rect x="89.8" y="37.2" class="st9" width="320.3" height="320.3"/>
		<path class="st10" d="M370,194L324,148.1l-12.6-12.6c-1.7-0.5-3.5-0.8-5.4-0.8h-34.6c-2.5,0-4,0-4,0v9.8c0,0,5.4,0,12.7,0
			l8.8,18.4h-32.6l-24.5-24.5l0.1-4.7h-54.7l0.2,21.8l22-2.7l7.4,15.4l-12.2,27.2c-4.9-1.6-10.2-2.5-15.7-2.5
			c-13.7,0-26.2,5.6-35.2,14.6c-9,9-14.6,21.5-14.6,35.2c0,8.2,2,16,5.6,22.8l21.4,21.5l70.6,70.6h183.6V234.2L370,194z"/>
		<g>
			<g>
				<circle class="st11" cx="179.3" cy="242" r="41.9"/>
				<circle class="st12" cx="179.3" cy="242" r="41.9"/>
				<path class="st13" d="M214.5,206.7c-9-9-21.5-14.6-35.2-14.6c-13.7,0-26.2,5.6-35.2,14.6c-9,9-14.6,21.5-14.6,35.2
					c0,13.7,5.6,26.2,14.6,35.2c9,9,21.5,14.6,35.2,14.6c13.7,0,26.2-5.6,35.2-14.6c9-9,14.6-21.5,14.6-35.2
					C229.1,228.2,223.5,215.7,214.5,206.7z M203.4,266c-6.2,6.2-14.6,10-24.1,10c-9.4,0-17.9-3.8-24.1-10c-6.2-6.2-10-14.6-10-24.1
					c0-9.4,3.8-17.9,10-24.1c6.2-6.2,14.6-10,24.1-10c9.4,0,17.9,3.8,24.1,10c6.2,6.2,10,14.6,10,24.1
					C213.3,251.4,209.5,259.8,203.4,266z"/>
			</g>
			<path class="st11" d="M367.8,240.5c0,19.8-16.1,35.9-35.9,35.9c-19.8,0-35.9-16.1-35.9-35.9c0-19.8,16.1-35.9,35.9-35.9
				C351.7,204.5,367.8,220.6,367.8,240.5z"/>
			<g>
				<path class="st12" d="M373.8,240.5c0,23.1-18.8,41.9-41.9,41.9c-23.1,0-41.9-18.8-41.9-41.9c0-23.2,18.8-41.9,41.9-41.9
					C355.1,198.6,373.8,217.3,373.8,240.5z"/>
				<circle class="st14" cx="179.3" cy="242" r="30.3"/>
				<circle class="st14" cx="331.9" cy="240.5" r="30.3"/>
				<path class="st13" d="M367.1,205.3c-9-9-21.5-14.6-35.2-14.6c-13.7,0-26.2,5.6-35.2,14.6c-9,9-14.6,21.5-14.6,35.2
					c0,13.7,5.6,26.2,14.6,35.2c9,9,21.5,14.6,35.2,14.6c13.7,0,26.2-5.6,35.2-14.6c9-9,14.6-21.5,14.6-35.2
					C381.7,226.8,376.1,214.3,367.1,205.3z M356,264.6c-6.2,6.2-14.7,10-24.1,10c-9.4,0-17.9-3.8-24.1-10c-6.2-6.2-10-14.6-10-24.1
					c0-9.4,3.8-17.9,10-24.1c6.2-6.2,14.7-10,24.1-10c9.4,0,17.9,3.8,24.1,10c6.2,6.2,10,14.6,10,24.1
					C365.9,249.9,362.1,258.4,356,264.6z"/>
			</g>
			<path class="st15" d="M337.3,239.8l-49.2-103c-1.2-2.5-4.1-3.5-6.6-2.3c-2.4,1.2-3.5,4.1-2.3,6.6l10.1,21.2h-73.8l-12.1-25.4
				c-1.2-2.5-4.1-3.5-6.6-2.3c-2.5,1.2-3.5,4.1-2.3,6.6l12.7,26.5L175,239c-0.1,0.3-0.2,0.6-0.3,0.9l-0.2,1c-0.4,1.5,0,3,0.9,4.2
				c0.9,1.2,2.4,1.9,3.9,1.9h68.9c0.3,0,0.7,0,1-0.1c0,0,0,0,0,0c0.4-0.1,0.7-0.2,1-0.4c0.1,0,0.2-0.1,0.3-0.2
				c0.3-0.1,0.5-0.3,0.7-0.5c0.1-0.1,0.2-0.1,0.3-0.2c0.3-0.3,0.5-0.6,0.8-0.9c0,0,0,0,0,0l43.9-68l32.2,67.5
				c1.2,2.5,4.1,3.5,6.6,2.3C337.5,245.2,338.5,242.3,337.3,239.8z M248.8,231.9L220.3,172h67.2L248.8,231.9z M240.4,237h-53.7
				l26-57.9L240.4,237z"/>
			<polygon class="st13" points="177.8,154.8 232.1,148.2 232.3,133 177.6,133 			"/>
			<g>
				<path class="st16" d="M281.8,134c-3.9,0-7.4,0-9.9,0c-2.5,0-4,0-4,0v9.8c0,0,16.6,0,30.5,0V134C292.9,134,286.9,134,281.8,134z"
					/>
				<path class="st13" d="M321.1,140.9c-1.6-2-3.7-3.8-6.2-5c-2.5-1.2-5.4-1.9-8.5-1.9c-2.5,0-5.2,0-8.1,0v9.8c2.9,0,5.6,0,8.1,0
					c1.7,0,3,0.3,4.1,0.9c1.6,0.8,2.9,2.2,3.9,4c1,1.8,1.5,4,1.5,6.2c0,1.5-0.3,2.9-0.7,4.1c-0.4,1.2-1.1,2.2-1.8,2.9l7,7
					c1.9-1.9,3.2-4.2,4.1-6.6c0.9-2.4,1.3-4.9,1.3-7.5C325.8,150,324.3,145,321.1,140.9z"/>
			</g>
		</g>
	</g>
</g>
<g>
	<g>
		<text transform="matrix(1 0 0 1 182.479 446.3311)" class="st3 st4 st5 st8">見る</text>
	</g>
	<g>
		<rect x="89.8" y="37.2" class="st17" width="320.3" height="320.3"/>
		<path class="st18" d="M410.2,196v161.5h-138L229.7,315v-69.3h7.9v-12.2c-11-2.1-21.2-6.4-30.1-12.5c-2-1.3-4-2.8-5.8-4.3
			c-2.1-1.7-4.1-3.5-6-5.4l8.7-8.7l-20.4-36.7l21.6-73.7l97.7,11.5l7.4-7.4l7.1,7.1l5.4,5.4L410.2,196z"/>
		<path class="st19" d="M317.7,103.5c-2.1-3.3-4.4-6.4-6.9-9.4c-14.2-11.5-32.2-18.4-51.8-18.4c-1.4,0-2.8,0-4.2,0.1
			c-30.1,1.5-56,19.3-69,44.6c-0.4,0.7-0.8,1.5-1.1,2.2c-5.1,10.7-8,22.7-8,35.4c0,20.2,7.3,38.7,19.3,53c0.1,0.1,0.2,0.2,0.3,0.3
			c11.6,9.4,25.8,15.7,41.4,17.7h0c3.4,0.4,6.9,0.6,10.4,0.6c2.2,0,4.5-0.1,6.7-0.3c5-0.4,9.9-1.2,14.5-2.5
			c22-5.9,40.5-20.6,51.1-40.3c0.4-0.6,0.7-1.3,1-2c5.7-11.2,8.9-23.8,8.9-37.3C330.3,131.2,325.7,116.2,317.7,103.5z M189.7,147.4
			c0-32.2,26.1-58.3,58.3-58.3c2.2,0,4.5,0.1,6.7,0.4c14.8,1.7,27.8,8.9,37.1,19.5c0,0,0.1,0.1,0.1,0.1c0,0,0,0,0,0
			c0.6,0.7,1.3,1.5,1.9,2.3c0.3,0.3,0.5,0.7,0.7,1c1.2,1.4,2.2,2.9,3.1,4.5c5.5,8.9,8.6,19.3,8.6,30.5c0,29.9-22.6,54.6-51.6,58h0
			c-2.2,0.3-4.4,0.4-6.7,0.4c-13.1,0-25.2-4.4-35-11.7c0,0-0.1-0.1-0.1-0.1c-1.1-0.8-2.2-1.7-3.2-2.7c-0.4-0.3-0.8-0.7-1.2-1.1
			C197,179.6,189.7,164.3,189.7,147.4z"/>
		<path class="st20" d="M310.5,96.4c-0.2-0.3-0.4-0.5-0.6-0.8c-14.1-11.5-32.2-18.3-51.8-18.3c-1.2,0-2.3,0-3.4,0.1
			c-29.8,1.2-55.6,18.3-69,43c-0.4,0.7-0.8,1.5-1.1,2.2c-5.6,11.1-8.8,23.7-8.8,37c0,15.7,4.4,30.3,12,42.7c2.4,3.2,5,6.2,7.8,9
			c1.9,2,3.9,3.7,6,5.4c1.9,1.5,3.8,2.9,5.8,4.3c9.1,5.1,19.3,8.5,30.1,9.7h0c3.1,0.4,6.3,0.6,9.6,0.6c2.5,0,5.1-0.1,7.5-0.4
			c5-0.4,9.9-1.3,14.5-2.7c22.3-6.2,40.7-21.5,51.1-41.6c0.4-0.6,0.7-1.3,1-2c5.2-10.8,8.1-22.9,8.1-35.7
			C329.5,129,322.4,110.7,310.5,96.4z M316.4,159.6c0,28.4-20.3,52-47.2,57.2c-3.6,0.7-7.3,1.1-11.1,1.1c-1.2,0-2.3,0-3.4-0.1
			c-6-0.4-11.8-1.6-17.1-3.6h0c-10.1-3.8-18.8-10.2-25.3-18.5c-0.1-0.2-0.3-0.4-0.4-0.5c-1.2-1.6-2.3-3.2-3.3-4.9
			c-0.3-0.4-0.6-0.9-0.8-1.3c0,0,0-0.1-0.1-0.1c-5-8.6-7.9-18.6-7.9-29.2c0-31.1,24.3-56.5,54.9-58.2h0c1.1-0.1,2.2-0.1,3.4-0.1
			c13.1,0,25.2,4.3,34.9,11.6c0.2,0.1,0.4,0.3,0.5,0.4c1.4,1.1,2.8,2.3,4.1,3.5c2.2,2.1,4.3,4.3,6.1,6.6c0,0.1,0.1,0.1,0.1,0.2
			C311.8,133.5,316.4,146,316.4,159.6z"/>
		<path class="st21" d="M269.3,208.9v54.5h-31.7v-54.5c0.6,0.2,1.3,0.4,1.9,0.5c0.3,0.1,0.6,0.2,0.9,0.2c0.4,0.1,0.7,0.2,1.1,0.2
			c0.4,0.1,0.9,0.2,1.4,0.3c0.2,0,0.4,0.1,0.5,0.1c0.5,0.1,1,0.2,1.5,0.2c0.1,0,0.1,0,0.2,0c0.4,0.1,0.7,0.1,1.1,0.2
			c0.1,0,0.3,0,0.4,0c0.4,0.1,0.8,0.1,1.3,0.1c0.3,0.1,0.7,0.1,1,0.1c0.1,0,0.2,0,0.3,0c0.4,0,0.8,0.1,1.2,0.1c0.2,0,0.5,0,0.7,0h0
			c0.8,0,1.6,0.1,2.4,0.1h0.1c0.4,0,0.8,0,1.2,0h0.7c0.3,0,0.5,0,0.7,0h0.2c0.7,0,1.4-0.1,2.1-0.2c0.4,0,0.7-0.1,1.1-0.1
			c0.4,0,0.7-0.1,1-0.1c0.2,0,0.4,0,0.6-0.1c0.4,0,0.7-0.1,1.1-0.2c0.1,0,0.2,0,0.3,0c0.2,0,0.5-0.1,0.7-0.1h0.2c0,0,0,0,0,0
			c0,0,0,0,0.1,0c0.3,0,0.5-0.1,0.8-0.2c0.1,0,0.1,0,0.2,0c0.3,0,0.6-0.1,0.8-0.2c0.1,0,0.2,0,0.2-0.1c0.1,0,0.1,0,0.2,0
			c0.3,0,0.5-0.1,0.8-0.2c0.3,0,0.6-0.1,0.9-0.2c0.2,0,0.4-0.1,0.7-0.2c0.1,0,0.2-0.1,0.3-0.1C268.7,209.1,269,209,269.3,208.9z"/>
		<path class="st22" d="M269.3,236.2v54.5h-31.7v-54.5c5.1,1.4,10.3,2.2,15.9,2.2C258.9,238.4,264.3,237.6,269.3,236.2z"/>
		<path class="st23" d="M311.8,152.8c0-13.6-4.7-26.1-12.5-36c-10.4-13.3-26.5-21.9-44.6-22.3v116.6
			C286.3,210.4,311.8,184.6,311.8,152.8z"/>
		<path class="st23" d="M195.1,152.8c0,19.1,9.2,36.1,23.4,46.7c9.7,7.3,21.8,11.6,34.9,11.6c0.4,0,0.9,0,1.3,0V94.5
			c-0.4,0-0.8,0-1.3,0C221.2,94.5,195.1,120.6,195.1,152.8z"/>
		<path class="st24" d="M323.1,108.9c-2.1-3.3-4.4-6.5-6.9-9.4c-14.9-17.5-36.8-28.6-61.4-29c-0.4,0-0.9,0-1.3,0
			c-45.4,0-82.3,36.9-82.3,82.3c0,18.6,6.2,35.8,16.7,49.6c2.4,3.2,5,6.2,7.8,9c1.9,2,3.9,3.7,6,5.4c1.9,1.5,3.8,2.9,5.8,4.3
			c8.9,6.1,19.1,10.4,30.1,12.5h0c5.1,1,10.4,1.5,15.8,1.5c0.4,0,0.9,0,1.3,0c5-0.1,9.8-0.6,14.5-1.5c37.9-7.3,66.5-40.7,66.5-80.8
			C335.8,136.7,331.1,121.6,323.1,108.9z M295.8,112.7c0.6,0.6,1.2,1.3,1.8,1.9c0.6,0.7,1.2,1.4,1.7,2.1c1,1.3,2,2.7,2.9,4.1
			c0.6,0.9,1.2,1.8,1.7,2.8c0.1,0.2,0.3,0.4,0.4,0.6c0.4,0.6,0.7,1.2,1,1.9c0.6,1,1.1,2.1,1.5,3.1c0.3,0.6,0.6,1.2,0.8,1.9
			c0.3,0.7,0.6,1.5,0.9,2.3c0.2,0.4,0.3,0.9,0.4,1.4c0.3,0.7,0.5,1.5,0.7,2.2c0.1,0.4,0.3,0.8,0.3,1.2c0.2,0.7,0.4,1.5,0.5,2.2
			c0.2,0.7,0.3,1.4,0.4,2.1c0.2,0.9,0.3,1.8,0.4,2.7c0.1,0.8,0.2,1.7,0.3,2.5c0.1,0.8,0.1,1.7,0.2,2.5c0,0.8,0.1,1.7,0.1,2.5
			c0,1.2,0,2.3-0.1,3.5c-0.1,1.8-0.3,3.6-0.6,5.4c-0.2,1-0.3,1.9-0.5,2.9c0,0,0,0.1,0,0.1c-0.2,0.9-0.3,1.7-0.6,2.6
			c0,0.1,0,0.1,0,0.2c-0.2,0.9-0.4,1.7-0.7,2.6c-0.2,0.8-0.5,1.6-0.8,2.3c-1.3,3.7-2.9,7.2-4.9,10.4c-0.1,0.1-0.1,0.2-0.2,0.4
			c-0.4,0.7-0.8,1.3-1.2,2c-0.1,0.1-0.2,0.3-0.3,0.4c-0.3,0.4-0.6,0.8-0.9,1.2c-0.3,0.4-0.6,0.8-0.9,1.2c-0.5,0.7-1,1.4-1.6,2
			c-0.1,0.1-0.2,0.2-0.2,0.3c-0.6,0.7-1.2,1.3-1.7,2c-0.7,0.7-1.3,1.4-2.1,2.1c-0.6,0.6-1.2,1.2-1.8,1.7c-0.2,0.2-0.4,0.3-0.5,0.5
			c-0.7,0.6-1.4,1.2-2.2,1.8c-0.1,0.1-0.2,0.2-0.3,0.3c-0.5,0.4-1,0.8-1.5,1.1c-0.8,0.6-1.7,1.2-2.6,1.8c-0.6,0.4-1.3,0.9-2,1.2
			c-0.2,0.1-0.4,0.3-0.6,0.4c-0.7,0.4-1.5,0.9-2.3,1.3c-0.5,0.3-1.1,0.6-1.6,0.8c-1.1,0.5-2.2,1-3.3,1.5c-0.7,0.3-1.4,0.6-2.2,0.8
			c-0.4,0.2-0.7,0.3-1.1,0.4c-0.4,0.1-0.7,0.3-1.1,0.4c-0.2,0.1-0.4,0.2-0.7,0.2c-0.3,0.1-0.5,0.2-0.8,0.3c-0.2,0.1-0.3,0.1-0.4,0.2
			c-0.1,0-0.1,0-0.2,0.1c-0.3,0.1-0.6,0.2-0.9,0.2c-0.1,0-0.2,0.1-0.3,0.1c-0.2,0.1-0.4,0.1-0.7,0.2c-0.3,0.1-0.6,0.2-0.9,0.2
			c-0.3,0.1-0.5,0.1-0.8,0.2c-0.1,0-0.1,0-0.2,0c-0.1,0-0.2,0-0.2,0.1c-0.3,0.1-0.5,0.1-0.8,0.2c-0.1,0-0.1,0-0.2,0
			c-0.3,0.1-0.5,0.1-0.8,0.2c0,0,0,0-0.1,0c-0.1,0-0.2,0-0.2,0h-0.1c-0.2,0.1-0.4,0.1-0.6,0.1c-0.1,0-0.2,0-0.3,0
			c-0.4,0.1-0.7,0.1-1.1,0.2c-0.2,0-0.4,0-0.6,0.1c-0.4,0-0.7,0.1-1,0.1c-0.4,0-0.7,0.1-1.1,0.1c-0.7,0.1-1.4,0.1-2.1,0.2h-0.2
			c-0.3,0-0.5,0-0.7,0h-0.7c-0.4,0-0.8,0-1.2,0h-0.1c-0.8,0-1.6,0-2.4-0.1h0c-0.2,0-0.5,0-0.7,0c-0.4,0-0.8,0-1.2-0.1
			c-0.1,0-0.2,0-0.3,0c-0.4,0-0.7,0-1-0.1c-0.4,0-0.9-0.1-1.3-0.1c-0.5-0.1-1-0.1-1.5-0.2c-0.1,0-0.1,0-0.2,0c-0.5,0-1-0.1-1.5-0.2
			c-0.2,0-0.4-0.1-0.5-0.1c-0.5-0.1-1-0.2-1.4-0.3c-0.2,0-0.4-0.1-0.5-0.1c-0.2,0-0.4-0.1-0.5-0.1c-0.3,0-0.6-0.1-0.9-0.2
			c-0.6-0.1-1.3-0.3-1.9-0.5h0c-0.2-0.1-0.4-0.1-0.7-0.2c-0.7-0.2-1.5-0.4-2.2-0.7c-1.5-0.5-2.9-1-4.3-1.7c-1-0.4-1.9-0.8-2.9-1.3
			c-0.8-0.4-1.6-0.8-2.4-1.2c-0.8-0.4-1.5-0.9-2.3-1.3c-0.7-0.4-1.4-0.9-2.1-1.4c-0.7-0.5-1.5-1.1-2.2-1.6c-1.6-1.2-3.1-2.5-4.6-3.8
			c-0.4-0.4-0.9-0.8-1.3-1.2c-1-1-2-2-2.9-3c-0.7-0.8-1.4-1.6-2-2.4c0,0,0-0.1-0.1-0.1c-0.5-0.6-1-1.2-1.4-1.9
			c-0.8-1.1-1.6-2.3-2.4-3.5c-0.8-1.3-1.6-2.7-2.3-4.2c-0.5-1-1-2-1.4-3c-0.4-0.9-0.8-1.8-1.1-2.7c-0.1-0.3-0.2-0.5-0.3-0.7
			c-0.4-0.9-0.7-1.9-1-2.9c-0.2-0.8-0.5-1.6-0.7-2.4c-0.2-0.7-0.4-1.3-0.5-2c-0.6-2.6-1-5.3-1.2-8c-0.1-0.7-0.1-1.4-0.1-2.1
			c0-0.9-0.1-1.8-0.1-2.7c0-32.2,26.1-58.3,58.3-58.3h0c0.4,0,0.8,0,1.2,0h0c0.6,0,1.2,0,1.8,0.1c0.2,0,0.4,0,0.5,0
			c0.9,0,1.8,0.1,2.7,0.2c0.3,0,0.5,0,0.8,0.1c0.1,0,0.1,0,0.2,0c1,0.1,2,0.3,2.9,0.4c0.4,0.1,0.8,0.1,1.2,0.2
			c0.4,0.1,0.9,0.2,1.2,0.3c0.4,0.1,0.9,0.2,1.3,0.3c0.4,0.1,0.9,0.3,1.4,0.4c0.3,0.1,0.6,0.2,1,0.3c1.2,0.3,2.3,0.7,3.5,1.1
			c0.1,0,0.2,0.1,0.3,0.1c0.9,0.4,1.9,0.7,2.8,1.1c0.3,0.1,0.6,0.3,1,0.4c0.6,0.3,1.2,0.6,1.9,0.9c0.1,0,0.1,0.1,0.2,0.1
			c0.7,0.3,1.3,0.7,2,1c0.1,0.1,0.2,0.1,0.3,0.2c0.7,0.4,1.3,0.7,2,1.1c1.1,0.6,2.2,1.3,3.2,2.1c0.9,0.6,1.8,1.2,2.7,2
			c0.8,0.6,1.7,1.3,2.4,2c0,0,0.1,0.1,0.1,0.1c0,0,0,0,0,0c0.6,0.6,1.3,1.2,1.9,1.8c0.4,0.4,0.7,0.7,1.1,1.1
			C295.3,112.2,295.5,112.5,295.8,112.7z"/>
		<path class="st25" d="M254.7,70.5v24h-1.3c-32.2,0-58.3,26.1-58.3,58.3c0,0.9,0,1.8,0.1,2.7c0,0.7,0.1,1.4,0.1,2.1
			c0.2,2.7,0.6,5.4,1.2,8c0.1,0.7,0.3,1.3,0.5,2c0.2,0.8,0.4,1.6,0.7,2.4c0.3,1,0.6,2,1,2.9c0.1,0.3,0.2,0.5,0.3,0.7
			c0.4,0.9,0.7,1.8,1.1,2.7c0.4,1,0.9,2.1,1.4,3c0.7,1.4,1.5,2.8,2.3,4.2c0.8,1.2,1.5,2.4,2.4,3.5c0.5,0.6,1,1.3,1.4,1.9
			c0,0,0.1,0.1,0.1,0.1c0.6,0.8,1.3,1.6,2,2.4c0.9,1.1,1.9,2.1,2.9,3c0.4,0.4,0.9,0.8,1.3,1.2c1.5,1.3,3,2.6,4.6,3.8
			c0.7,0.5,1.5,1.1,2.2,1.6c0.7,0.5,1.4,0.9,2.1,1.4c0.8,0.5,1.5,0.9,2.3,1.3c0.8,0.4,1.6,0.9,2.4,1.2c0.9,0.5,1.9,0.9,2.9,1.3
			c1.4,0.6,2.8,1.2,4.3,1.7c0.7,0.3,1.5,0.5,2.2,0.7c0.2,0.1,0.4,0.2,0.7,0.2h0c0.6,0.2,1.2,0.4,1.9,0.5c0.3,0.1,0.6,0.2,0.9,0.2
			c0.2,0.1,0.4,0.1,0.5,0.1c0.2,0,0.4,0.1,0.5,0.1c0.4,0.1,0.9,0.2,1.4,0.3c0.2,0,0.4,0.1,0.5,0.1c0.5,0.1,1,0.2,1.5,0.2
			c0.1,0,0.1,0,0.2,0c0.5,0.1,1,0.1,1.5,0.2c0.4,0.1,0.8,0.1,1.3,0.1c0.3,0.1,0.7,0.1,1,0.1c0.1,0,0.2,0,0.3,0
			c0.4,0,0.8,0.1,1.2,0.1c0.2,0,0.5,0,0.7,0h0c0.8,0,1.6,0.1,2.4,0.1h0.1c0.4,0,0.8,0,1.2,0h0v24h-1.3c-5.4,0-10.7-0.5-15.8-1.5h0
			c-11-2.1-21.2-6.4-30.1-12.5c-2-1.3-4-2.8-5.8-4.3c-2.1-1.7-4.1-3.5-6-5.4c-2.9-2.8-5.5-5.8-7.8-9c-10.5-13.8-16.7-30.9-16.7-49.6
			c0-45.4,36.9-82.3,82.3-82.3C253.9,70.5,254.3,70.5,254.7,70.5z"/>
		<line class="st23" x1="254.7" y1="235.1" x2="253.6" y2="236.2"/>
		<path class="st26" d="M254.7,245.7v6.2h22.5v16.6h-22.5v55.7h17c3,0,5.4-2.4,5.4-5.4v-73H254.7z"/>
		<rect x="229.7" y="245.7" class="st27" width="25" height="6.2"/>
		<path class="st27" d="M254.7,268.5v55.7h-19.5c-3,0-5.4-2.5-5.4-5.5v-50.3H254.7z"/>
		<rect x="229.7" y="251.9" class="st28" width="25" height="16.6"/>
		<rect x="254.7" y="251.9" class="st24" width="22.5" height="16.6"/>
		<g>
			<path class="st12" d="M215.4,157.8c-2.6,0.1-5.5-3.7-5.8-10.8c-0.1-3.5,0.5-7.7,2.2-12c1.7-4.3,4.5-8.8,8.3-12.7
				c3.9-3.8,8.4-6.6,12.7-8.3c4.4-1.7,8.6-2.3,12-2.2c7,0.3,10.8,3.1,10.8,5.8c0,2.8-3.4,5.1-7.6,7.9c-4.2,2.8-9.2,6.3-13.9,10.9
				c-4.6,4.7-8.1,9.7-10.9,13.9C220.5,154.3,218.2,157.7,215.4,157.8z"/>
		</g>
	</g>
</g>
</svg>
