<?xml version="1.0" encoding="utf-8"?>
<!-- Generator: Adobe Illustrator 21.0.0, SVG Export Plug-In . SVG Version: 6.00 Build 0)  -->
<svg version="1.1" id="レイヤー_1" xmlns="http://www.w3.org/2000/svg" xmlns:xlink="http://www.w3.org/1999/xlink" x="0px"
	 y="0px" viewBox="0 0 500 500" style="enable-background:new 0 0 500 500;" xml:space="preserve">
<style type="text/css">
	.st0{opacity:0.5;fill:#C7C7C7;}
	.st1{fill:#4D4D4D;}
	.st2{font-family:'TsukuGoPro-M-83pv-RKSJ-H';}
	.st3{font-size:70.07px;}
	.st4{letter-spacing:3;}
	.st5{letter-spacing:-5;}
	.st6{letter-spacing:-2;}
	.st7{fill:#F3B294;}
	.st8{opacity:0.1;fill:#221714;}
	.st9{fill:#E4D1BC;}
	.st10{fill:#FFFFFF;}
	.st11{fill:#717171;}
	.st12{fill:#E4E0DF;}
	.st13{fill:#7EACB7;}
	.st14{fill:#C0C1C1;}
</style>
<rect class="st0" width="500" height="500"/>
<g>
	<g>
		<text transform="matrix(1 0 0 1 111.7093 446.3311)"><tspan x="0" y="0" class="st1 st2 st3 st4">体</tspan><tspan x="73.6" y="0" class="st1 st2 st3">験</tspan><tspan x="144.3" y="0" class="st1 st2 st3 st5">す</tspan><tspan x="208.8" y="0" class="st1 st2 st3 st6">る</tspan></text>
	</g>
	<g>
		<rect x="89.8" y="37.2" class="st7" width="320.3" height="320.3"/>
		<path class="st8" d="M370,194L324,148.1l-12.6-12.6c-1.7-0.5-3.5-0.8-5.4-0.8h-34.6c-2.5,0-4,0-4,0v9.8c0,0,5.4,0,12.7,0l8.8,18.4
			h-32.6l-24.5-24.5l0.1-4.7h-54.7l0.2,21.8l22-2.7l7.4,15.4l-12.2,27.2c-4.9-1.6-10.2-2.5-15.7-2.5c-13.7,0-26.2,5.6-35.2,14.6
			c-9,9-14.6,21.5-14.6,35.2c0,8.2,2,16,5.6,22.8l21.4,21.5l70.6,70.6h183.6V234.2L370,194z"/>
		<g>
			<g>
				<circle class="st9" cx="179.3" cy="242" r="41.9"/>
				<circle class="st10" cx="179.3" cy="242" r="41.9"/>
				<path class="st11" d="M214.5,206.7c-9-9-21.5-14.6-35.2-14.6c-13.7,0-26.2,5.6-35.2,14.6c-9,9-14.6,21.5-14.6,35.2
					c0,13.7,5.6,26.2,14.6,35.2c9,9,21.5,14.6,35.2,14.6c13.7,0,26.2-5.6,35.2-14.6c9-9,14.6-21.5,14.6-35.2
					C229.1,228.2,223.5,215.7,214.5,206.7z M203.4,266c-6.2,6.2-14.6,10-24.1,10c-9.4,0-17.9-3.8-24.1-10c-6.2-6.2-10-14.6-10-24.1
					c0-9.4,3.8-17.9,10-24.1c6.2-6.2,14.6-10,24.1-10c9.4,0,17.9,3.8,24.1,10c6.2,6.2,10,14.6,10,24.1
					C213.3,251.4,209.5,259.8,203.4,266z"/>
			</g>
			<path class="st9" d="M367.8,240.5c0,19.8-16.1,35.9-35.9,35.9c-19.8,0-35.9-16.1-35.9-35.9c0-19.8,16.1-35.9,35.9-35.9
				C351.7,204.5,367.8,220.6,367.8,240.5z"/>
			<g>
				<path class="st10" d="M373.8,240.5c0,23.1-18.8,41.9-41.9,41.9c-23.1,0-41.9-18.8-41.9-41.9c0-23.2,18.8-41.9,41.9-41.9
					C355.1,198.6,373.8,217.3,373.8,240.5z"/>
				<circle class="st12" cx="179.3" cy="242" r="30.3"/>
				<circle class="st12" cx="331.9" cy="240.5" r="30.3"/>
				<path class="st11" d="M367.1,205.3c-9-9-21.5-14.6-35.2-14.6c-13.7,0-26.2,5.6-35.2,14.6c-9,9-14.6,21.5-14.6,35.2
					c0,13.7,5.6,26.2,14.6,35.2c9,9,21.5,14.6,35.2,14.6c13.7,0,26.2-5.6,35.2-14.6c9-9,14.6-21.5,14.6-35.2
					C381.7,226.8,376.1,214.3,367.1,205.3z M356,264.6c-6.2,6.2-14.7,10-24.1,10c-9.4,0-17.9-3.8-24.1-10c-6.2-6.2-10-14.6-10-24.1
					c0-9.4,3.8-17.9,10-24.1c6.2-6.2,14.7-10,24.1-10c9.4,0,17.9,3.8,24.1,10c6.2,6.2,10,14.6,10,24.1
					C365.9,249.9,362.1,258.4,356,264.6z"/>
			</g>
			<path class="st13" d="M337.3,239.8l-49.2-103c-1.2-2.5-4.1-3.5-6.6-2.3c-2.4,1.2-3.5,4.1-2.3,6.6l10.1,21.2h-73.8l-12.1-25.4
				c-1.2-2.5-4.1-3.5-6.6-2.3c-2.5,1.2-3.5,4.1-2.3,6.6l12.7,26.5L175,239c-0.1,0.3-0.2,0.6-0.3,0.9l-0.2,1c-0.4,1.5,0,3,0.9,4.2
				c0.9,1.2,2.4,1.9,3.9,1.9h68.9c0.3,0,0.7,0,1-0.1c0,0,0,0,0,0c0.4-0.1,0.7-0.2,1-0.4c0.1,0,0.2-0.1,0.3-0.2
				c0.3-0.1,0.5-0.3,0.7-0.5c0.1-0.1,0.2-0.1,0.3-0.2c0.3-0.3,0.5-0.6,0.8-0.9c0,0,0,0,0,0l43.9-68l32.2,67.5
				c1.2,2.5,4.1,3.5,6.6,2.3C337.5,245.2,338.5,242.3,337.3,239.8z M248.8,231.9L220.3,172h67.2L248.8,231.9z M240.4,237h-53.7
				l26-57.9L240.4,237z"/>
			<polygon class="st11" points="177.8,154.8 232.1,148.2 232.3,133 177.6,133 			"/>
			<g>
				<path class="st14" d="M281.8,134c-3.9,0-7.4,0-9.9,0c-2.5,0-4,0-4,0v9.8c0,0,16.6,0,30.5,0V134C292.9,134,286.9,134,281.8,134z"
					/>
				<path class="st11" d="M321.1,140.9c-1.6-2-3.7-3.8-6.2-5c-2.5-1.2-5.4-1.9-8.5-1.9c-2.5,0-5.2,0-8.1,0v9.8c2.9,0,5.6,0,8.1,0
					c1.7,0,3,0.3,4.1,0.9c1.6,0.8,2.9,2.2,3.9,4c1,1.8,1.5,4,1.5,6.2c0,1.5-0.3,2.9-0.7,4.1c-0.4,1.2-1.1,2.2-1.8,2.9l7,7
					c1.9-1.9,3.2-4.2,4.1-6.6c0.9-2.4,1.3-4.9,1.3-7.5C325.8,150,324.3,145,321.1,140.9z"/>
			</g>
		</g>
	</g>
</g>
</svg>
