<?xml version="1.0" encoding="utf-8"?>
<!-- Generator: Adobe Illustrator 21.0.0, SVG Export Plug-In . SVG Version: 6.00 Build 0)  -->
<svg version="1.1" id="レイヤー_1" xmlns="http://www.w3.org/2000/svg" xmlns:xlink="http://www.w3.org/1999/xlink" x="0px"
	 y="0px" viewBox="0 0 1179.8 200.9" style="enable-background:new 0 0 1179.8 200.9;" xml:space="preserve">
<style type="text/css">
	.st0{fill:none;stroke:#FFFFFF;stroke-width:1.8838;}
</style>
<g>
	<path class="st0" d="M157.8,1.1C157.8,1.4,157.8,0.9,157.8,1.1c-0.5,17.7-0.8,56.8-0.8,82.1c0,32.2,0.3,65.4,0.8,87.4
		c0,0.3,0,0.5,0,0.5c0,15.2-11.2,24.1-23.1,24.1c-8.1,0-16.2-4.1-21.8-12.7C95.2,154.5,47.8,67.8,34.1,44.7c-1-1.5-2.8-4.8-4.1-4.8
		c-1.5,0-1.5,2.5-1.5,14.2c0,26.4,0.8,115.1,1.5,142c0,0.3,0-0.3,0,0 M0.9,196.1L0.9,196.1c0.5-26.1,0.8-70.7,0.8-99.9
		c0-25.3-0.3-49.4-0.5-68.4c0-0.3,0-0.8,0-1C1.2,9,11,1.9,22.2,1.9c9.4,0,19.5,5.3,24.8,13.7c16,25.3,58.3,104.4,77.6,133.3
		c1.5,2.3,2.8,3.5,3.5,3.5s1.8-0.8,1.8-10.6c0-23.8-0.8-117.4-1.5-140.7"/>
	<path class="st0" d="M220.3,196.1L220.3,196.1c0.5-30.4,1.3-79.9,1.3-112.6c0-24.1-0.5-61.8-1.3-82.4 M250.7,1.1
		C250.7,1.4,250.7,0.9,250.7,1.1c-0.5,21-0.8,59.1-0.8,83.6c0,31.7,0.3,80.1,0.8,111.3l0,0"/>
	<path class="st0" d="M350.2,1.1C350.2,1.4,350.2,0.9,350.2,1.1c-0.5,21-0.8,59.1-0.8,83.6c0,31.7,0.3,80.1,0.8,111.3l0,0
		 M319.8,196.1L319.8,196.1c0.5-30.4,1.3-79.9,1.3-112.6c0-24.1-0.5-61.8-1.3-82.4"/>
	<path class="st0" d="M410.8,196.1L410.8,196.1c0.5-26.9,0.8-74.3,0.8-106c0-28.4-0.3-69.7-0.8-89 M526.5,196.2
		c-8.6-8.9-47.3-61.2-65.8-82.7c-3.8-4.3-6.8-5.1-10.6-5.1c-1.8,0-3.3,0.3-5.3,0.3c-2,0-4.8,0.3-4.8,4.1c-0.3,6.6-0.5,20-0.5,36.5
		c0,10.1,0,35.3,0.5,46.9c0,0.3,0-0.3,0,0 M563.3,2.2c-11.2,13.7-63.1,67.9-80.8,86.7c-1.5,1.5-2.3,2.8-2.3,4.1c0,1,0.8,2.3,2.3,3.8
		c21.5,22.1,76.5,93,80.8,97.8 M439.9,1.1C439.9,1.4,439.9,0.9,439.9,1.1c-0.3,10.1-0.5,34.5-0.5,43.3c0,13.7,0.3,24.8,0.5,31.2
		c0,2.3,0.5,5.1,6.6,5.1c5.3,0,9.1-2.3,13.7-7.4c18.3-19.8,51.7-57.5,62.1-71.2"/>
	<path class="st0" d="M735,200.4c0,0-15-43.1-22.9-66.7c-0.5-1.5-1.3-2.3-2.8-2.3c-4.1-0.3-14.4-0.3-25.9-0.3
		c-15.2,0-32.2,0-37.5,0.3c-1.3,0-2.5,0.8-3,2.3c-6.3,20-20.5,64.7-20.5,64.7 M591.1,196.2c0,0,8-20.9,63.5-177
		c4.1-11.7,13.2-17,22.3-17c9.6,0,19.5,6.1,23.6,17.5c16.2,45.6,66.4,176.5,66.4,176.5 M701.8,102.3c-7.9-23.8-15.5-46.9-19.5-59.3
		c-1.5-4.6-2.8-7.1-4.3-7.1c-1.3,0-2.8,2.3-4.6,7.4c-3.8,10.1-20.3,57.5-20.3,59.8c0,1,0.5,1.5,2,1.5c5.1,0,14.4,0.3,23.3,0.3
		c9.1,0,18-0.3,21.5-0.3c1.5,0,2-0.3,2-1C702,103.3,702,102.8,701.8,102.3z"/>
	<path class="st0" d="M1006.5,2.3c0,4.8-17.1,78.2-38.4,166.4c-4.1,16.7-16.2,25.9-28.1,25.9c-11.4,0-22.8-8.4-27.4-26.9
		c-6.6-26.9-19.8-105.2-22.6-126.5c-0.5-3.3-1.3-4.6-2-4.6s-1.5,1.8-2,4.6c-3.3,23.1-15.5,95.1-23.6,126.2
		c-4.6,18.2-17,27.1-29.2,27.1c-12.4,0-24.3-8.9-28.1-26.9C778.1,39.4,773,7.9,773,3.3 M803.6,1c25.3,145.7,27.4,159.6,31,159.6
		c2,0,3.8-2.8,4.6-6.6c4.8-21,18.5-97.8,25.1-131.6c2.5-13.7,12.9-19.8,23.3-19.8c11.2,0,22.3,6.8,24.6,18.8
		c5.6,28.9,18.2,101.9,23.6,131.3c0.8,4.3,2,5.8,3.3,5.8c3.5,0,8.7-13.1,37.3-158.5"/>
	<path class="st0" d="M1147,200.4c0,0-15-43.1-22.9-66.7c-0.5-1.5-1.3-2.3-2.8-2.3c-4.1-0.3-14.4-0.3-25.9-0.3
		c-15.2,0-32.2,0-37.5,0.3c-1.3,0-2.5,0.8-3,2.3c-6.3,20-20.5,64.7-20.5,64.7 M1003.1,196.2c0,0,8-20.9,63.5-177
		c4.1-11.7,13.2-17,22.3-17c9.6,0,19.5,6.1,23.6,17.5c16.2,45.6,66.4,176.5,66.4,176.5 M1113.8,102.3c-7.9-23.8-15.5-46.9-19.5-59.3
		c-1.5-4.6-2.8-7.1-4.3-7.1c-1.3,0-2.8,2.3-4.6,7.4c-3.8,10.1-20.3,57.5-20.3,59.8c0,1,0.5,1.5,2,1.5c5.1,0,14.4,0.3,23.3,0.3
		c9.1,0,18-0.3,21.5-0.3c1.5,0,2-0.3,2-1C1114,103.3,1114,102.8,1113.8,102.3z"/>
</g>
</svg>
