<?xml version="1.0" encoding="utf-8"?>
<!-- Generator: Adobe Illustrator 21.0.0, SVG Export Plug-In . SVG Version: 6.00 Build 0)  -->
<svg version="1.1" id="レイヤー_1" xmlns="http://www.w3.org/2000/svg" xmlns:xlink="http://www.w3.org/1999/xlink" x="0px"
	 y="0px" viewBox="0 0 1318 149.6" style="enable-background:new 0 0 1318 149.6;" xml:space="preserve">
<style type="text/css">
	.st0{fill:#40708D;}
</style>
<g>
	<g>
		<g>
			<path class="st0" d="M26.7,32.2c0,0-11,0.3-16.2,1h-0.1c-1.3,0-4.4-4.1-4.4-5.3c6.3,1,16.5,1.5,19.8,1.5h3.3c0.5,0,1.6-0.5,2.1-1
				c2.4-2.4,2.4-2.4,2.9-2.4c0.9,0,7.6,4.1,7.6,6.2c0,1-1.1,1.5-2.4,2.1c-1.1,0.5-1.9,0.7-2.9,3.4C23,73.6,0.5,79.2,0.3,79.2
				S0,79.1,0,79c0-0.3,0.7-1,2.2-2c20.6-14.1,28.2-43.2,28.2-44c0-0.5-0.4-0.7-1-0.7H26.7z M52.7,12C52.3,16.4,52,33,52,47.6
				c0,9.5,0.1,18,0.2,21.4c0.1,1.8,0.3,7.4,0.3,9.7c0,0.1,0,0.1,0,0.2c0,10.4-11.5,11.5-12.7,11.5c-0.6,0-1.2-0.2-1.5-1.2
				c-1-2.6-11.8-6.9-11.8-7.6c0,0,0.1-0.1,0.3-0.1c0.2,0,0.5,0,0.8,0.1c5.2,0.9,8.9,1.3,11.6,1.3c5.4,0,6.5-1.7,6.6-5.5
				c0.1-7.4,0.2-32.3,0.2-48.2c0-5.9,0-10.5,0-12.6c0-3.9-0.3-11-1-14.5c-0.1-0.4-0.2-0.6-0.2-0.7c0-0.1,0.1-0.1,0.1-0.1
				c0.7,0,12.5,1.3,12.5,3.9c0,0.5-0.4,1-1.2,1.6c1,11.8,3.3,21.9,6.5,30.5c11.2-7.5,16.8-12.8,18-16.4c0.1-0.4,0.2-0.6,0.4-0.6
				c1,0,10.2,6.4,10.2,8.7c0,0.8-0.8,1.2-2.2,1.2c-0.5,0-1,0-1.5-0.1c-0.7-0.1-1.2-0.2-1.8-0.2c-0.7,0-1.4,0.2-2.3,0.6
				c-4.6,2.1-13.6,6.2-19.8,8.7c7.5,18.3,19.6,29.5,33.2,35.4c0.6,0.2,0.8,0.4,0.8,0.6c0,0.9-8.9,0.7-11.8,3
				c-0.3,0.3-0.7,0.4-1.1,0.4c-0.3,0-0.7-0.1-1-0.4c-12-10-28.3-31-29.1-70.8C52.4,8.6,53,8.6,52.7,12z"/>
			<path class="st0" d="M159.1,33.5c3.7-1.2,5-1.3,6.1-1.3c5.6,0,10.4,3.6,10.4,17c0,21.1-11.2,32.1-21.6,32.1
				c-1.4,0-2.6-0.2-3.8-0.6c-4.5-1.4-2.5-5.2-3.8-8.9c-0.5-1.7-0.8-2.8-0.8-3.5c0-0.3,0.1-0.4,0.2-0.4c0.4,0,1.3,0.9,2.6,2.7
				c1.8,2.5,4.5,4.1,7.2,4.1c8.6,0,14.7-14.3,14.7-27.5c0-6.9-1.6-11.7-5.9-11.7c-0.6,0-3,0.2-7.6,3.5c-4.9,11.6-13,27.9-18.7,38.4
				c-2,3.8-5,5.6-6.9,5.6c-1.3,0-2.2-0.7-2.2-2.3c0-1.5,0.9-3.8,3.2-6.8c4.9-6.6,14.9-21.3,20.2-33.4c-3,1.5-9.9,4.4-12.7,4.4
				c-4.7,0-7.9-3.3-7.9-7.4c0-3.4,0.6-3.7,0.8-3.7c0.5,0,1.2,0.9,1.9,1.9c1.4,1.8,3.8,2.2,6.3,2.2c5.2,0,9.6-1.2,13.6-2.6
				c0.3-0.9,1.9-6.7,1.9-11.2c0-3.3-0.8-5.6-3.3-6c-1.2-0.2-2.2-0.7-2.2-1.4c0-1.4,4.3-3.5,6.4-3.5c1.4,0,5.3,0.5,5.3,6.4
				c0,2.8-1.6,8.8-3.3,13.2L159.1,33.5z M201,60c-0.6-0.4-1.8-0.5-3.7-0.5c-1.5,0-3.4,0.1-5.6,0.1c-2.2,0-3.2-0.2-3.2-0.5
				c0-0.3,1.2-0.7,2.9-1c7.1-1.4,11.3-3.2,11.3-8.6c0-7.8-8.1-10.4-13.4-12.5c-2.2-0.8-3.4-1.3-3.4-1.6c0-0.1,0.5-0.2,1.3-0.2
				c13.5,0,22.5,7.2,22.5,16c0,5.2-3.2,9.5-6.8,9.5C202.3,60.5,201.7,60.3,201,60z M199.7,30.7c-2.9-2.8-6.5-5.1-9.4-6.3
				c-0.8-0.3-1.6-0.6-1.6-0.9c0-0.5,2.7-1,5.5-1c8.5,0,10.9,3.9,10.9,6.3c0,1.7-1.2,3.2-2.7,3.2C201.6,31.9,200.6,31.6,199.7,30.7z
				 M205.1,16.8c6.2,0,10.2,2.6,10.2,6c0,1.8-1.2,3.3-2.8,3.3c-0.8,0-1.6-0.3-2.5-1.1c-3-2.7-6.7-5-9.6-6.1
				c-0.8-0.3-1.6-0.5-1.6-0.8C198.7,18,200.8,16.8,205.1,16.8z"/>
			<path class="st0" d="M240.7,85.2c0-0.3,0.2-0.8,0.6-1.6c3-6.6,6.5-20.1,6.5-25.6c0-0.5,0-1-0.1-1.4c-0.1-0.4-0.1-0.6-0.1-0.8
				c0-0.2,0.1-0.3,0.2-0.3c1.1,0,9.4,2.3,9.4,4.4c0,0.7-0.6,1.4-2.3,1.8c-1.4,0.3-1.4,1-2,2.3c-7.5,18-11.6,21.4-11.9,21.4
				C240.8,85.4,240.7,85.3,240.7,85.2z M253.3,43.5c4.4-7.6,11.5-22.8,12.1-30.1c0.1-0.8,0-1,0.2-1c0.7,0,9.1,3.7,9.1,5.4
				c0,0.7-0.7,1.3-2.5,1.5c-1,0.1-1.4,0.6-2,1.6c-4.6,7.7-10.4,17.2-14.7,22.5c4.7-0.3,9.7-0.6,13.4-1.1c-1-2.4-2.3-4.5-3.4-6
				c-0.4-0.5-0.5-0.9-0.5-1.1c0-0.1,0.1-0.2,0.2-0.2c1.2,0,11.4,5.4,11.4,11.2c0,2.3-1.6,3.9-3.3,3.9c-1.4,0-2.8-1.1-3.3-3.8
				c-0.1-0.7-0.3-1.4-0.5-2.1c-1.3,0.5-3.1,1-4.9,1.5c0.8,0.3,1.2,0.7,1.2,1.1c0,0.4-0.4,0.9-1.2,1.3c-1.3,0.7-1.3,0.7-1.3,9.9
				c0,8.2,0.2,20.7,0.4,29.2c0.1,2-1.7,3.8-3.9,3.8c-1.3,0-2.5-0.8-2.5-3c0-0.1,0-0.2,0-0.4c0.7-10.9,1-21.9,1-32.7
				c0-2.5-0.1-5.2-0.2-7.3c-3.9,1-7.4,1.9-9.2,2.3c-1,0.2-1.5,1.2-2.2,1.2c-1.3,0-4.4-7.1-4.4-7.7c0-0.1,0.1-0.2,0.3-0.2
				c0.1,0,0.3,0.1,0.6,0.1c2.1,0.3,4.8,0.4,6.6,0.4c0.5,0,1,0,1.4,0L253.3,43.5z M258.3,29.2c0,2.1-1.3,3.8-2.8,3.8
				c-1.1,0-2.2-0.8-3.3-2.8c-1.9-4.1-4.8-6.6-6.9-8.5c-0.6-0.6-0.9-0.9-0.9-1.1c0-0.1,0.2-0.2,0.5-0.2c1.8,0,4.9,0.8,6.9,1.7
				c2.9-9.9,4.2-16.4,4.2-18.8c0-0.5-0.1-1-0.1-1.4c0-0.2,0-0.4,0-0.6c0-0.3,0-0.5,0.2-0.5c0.5,0,9.7,2.6,9.7,4.8
				c0,0.6-0.7,1.3-2.4,1.6c-1.2,0.2-1.5,0.5-2,1.6c-1.8,4-5.3,10.3-7.8,14.1C255.3,23.8,258.3,25.9,258.3,29.2z M270.1,67.4
				c-0.9-4.3-2.6-8.7-4.5-11.5c-0.5-0.7-0.7-1-0.7-1.2c0-0.1,0.1-0.1,0.1-0.1c1.2,0,11.5,6.1,11.5,12.4c0,2.4-1.5,4.2-3.2,4.2
				C272.1,71.2,270.8,70,270.1,67.4z M312.9,37.2c0.4,7.9,1.3,15.8,2.9,22.7c4.2-7.3,5.9-13.3,6.1-15.3c0-0.4,0-0.6,0.3-0.6
				c0.9,0,8.8,3.6,8.8,5.4c0,0.7-0.9,1.4-2.7,1.4c-1.2,0-1.7,0.4-2.1,1.3c-2.3,5.2-5.1,10-8.4,14.3c4.5,12.1,10.3,13.8,10.5,13.8
				c1.7,0,3.3-3.1,6.7-12.4c0.4-1.1,0.7-1.7,0.9-1.8c0.2-0.1,0.3,0.3,0.3,1c0,2.9-1.2,11.2-1.2,14.9c0,0.8,0.1,1.4,0.2,1.7
				c0.6,1.2,0.8,2.2,0.8,3.1c0,2-1.3,3.1-3.3,3.1c-2,0-12-3-18.4-19.1C299.6,87,282,90.4,274.5,90.4c-1,0-1.5-0.1-1.5-0.3
				c0-0.4,1.2-0.8,3.3-1.2c14-2.4,27.2-11.1,36.3-23.7c-2.6-9-3.7-19-4.2-28h-16.8c-0.1,0.1-0.2,0.1-0.3,0.1c-0.1,0-0.2,0-0.2-0.1
				c-5.1,0-10.7,0.2-16.5,0.7c0,0,0,0-0.1,0c-1.6,0-4.2-3.5-4.2-4.6c9.5,1.1,15.9,1.4,21.1,1.4h0.2c1.5-4.5,3.2-11.8,3.2-15.4
				c0-1,0.1-1,0.2-1c0.9,0,8.8,2.9,8.8,4.9c0,0.7-0.7,1.3-2.3,1.5c-1.2,0.2-1.1,0.6-1.8,1.6c-1.4,2.1-3.6,5.3-6,8.4h14.4
				c-0.3-7.2-0.3-13.6-0.6-17.8c-0.2-2.7-0.6-11.6-1.8-15.9c-0.1-0.3-0.1-0.5-0.1-0.6c0,0,0-0.1,0.9-0.1c1.3,0.1,9.8,0.9,9.8,3.5
				c0,0.7-0.5,1.5-1.5,2.1c-1.6,1.1-1.7,0.7-1.8,4.5c-0.2,4.3-0.3,8.8-0.3,13.7c0,3.5,0.1,7,0.2,10.6h8.2c0.3,0,1-0.3,1.3-0.8
				c1.6-2.4,2.9-4.4,4-4.4c0.2,0,0.4,0.1,0.6,0.1c2,0.8,7,4.7,7,6.4c0,0.6-0.5,1.1-2.1,1.1H312.9z M291.2,16.1c-1.7,0-6.5,0-13,0.8
				h-0.1c-1.6,0-4.2-3.3-4.2-4.4c7.1,1,10.5,1.2,13.9,1.2v-1.8c-0.1-3.5-0.1-8.4-0.6-11c-0.1-0.3-0.1-0.5-0.1-0.6
				c0-0.2,0.1-0.3,0.2-0.3c0.8,0,10.1,1.2,10.1,3.5c0,0.6-0.6,1.3-1.7,1.9c-2.3,1.3-2.1,1.2-2.2,4.2c-0.1,1.1-0.1,2.7-0.1,4.2h1.7
				c0.3,0,1-0.2,1.3-0.7c0.8-1.2,1.5-3,2.6-4.1c0.2-0.2,0.5-0.3,0.8-0.3c0.9,0,6.5,3.7,6.5,6.1c0,0.6-0.4,1.3-2,1.3H291.2z
				 M296.7,72.4v-0.7h-11.8v4.1c0,1.7-1.8,2.8-3.4,2.8c-1.2,0-2.2-0.6-2.2-2.2c0-0.1,0-0.2,0-0.3c0.5-6.7,0.6-16,0.6-20.7
				c0-1.2-0.3-8.9-1-12.6c0-0.3-0.1-0.4-0.1-0.6c0-0.1,0.1-0.2,0.2-0.2s0.3,0.2,0.7,0.3c1.1,0.3,5.4,2.3,7.2,3.9l0.2,0.1h7.6
				c0.4,0,1-0.3,1.3-0.8c0.6-1,1.7-2.4,2.4-2.4c0.2,0,0.5,0.1,0.8,0.2c0.3,0.1,6,3,6,5.1c0,0.9-1.1,1.5-1.9,2
				c-1.2,0.8-1.6,1.1-1.6,5.2c0,3.9,0.3,12,0.6,16.2c0.1,2-1.9,3.2-3.5,3.2c-1.2,0-2.2-0.6-2.2-2.2V72.4z M283.6,28.5
				c-0.5-2.1-2-5.6-3.6-7.6c-0.3-0.4-0.5-0.8-0.5-1c0-0.2,0.1-0.2,0.4-0.2c1.7,0,9.6,3.2,9.6,8.3c0,2.1-1.5,3.8-3,3.8
				C285.3,31.7,284.1,30.8,283.6,28.5z M286.9,48.7l-0.2,0.2c-1.6,1-1.8,0.6-1.8,3.3v5.4h11.9c0-3.2,0-5.9-0.1-7.7
				c0-0.3-0.2-1.1-1-1.1H286.9z M284.9,60v9.1h11.8c0.1-2.9,0.1-6.1,0.1-9.1H284.9z M322.8,23.2c-1.6-2.8-4.7-5.9-7.5-7.9
				c-0.5-0.4-0.7-0.6-0.7-0.7c0,0,0-0.1,1-0.1c0.1,0,0.2,0,0.4,0c6.8,0,13.3,3.5,13.3,7.6c0,2-1.4,3.7-3.2,3.7
				C325,25.7,323.8,25,322.8,23.2z"/>
			<path class="st0" d="M380.8,28.6c0,0.1,0,0.2,0,0.2c0.1,0,0.3-0.5,0.7-1.7c2.7-8.7,7.8-12.9,12.8-12.9
				c10.5,0,15.7,15.7,15.7,28.9c0,32.9-28.6,49-32.6,49c-0.1,0-0.2-0.1-0.2-0.2c0-0.3,1-1.2,3.4-2.7c13.6-8.7,22.9-27,22.9-45.4
				c0-12.7-4.4-25.1-11.1-25.1c-5.6,0-11.3,8.4-11.3,19.1c0,5.5,1.4,8.9,3,12.6c0.4,0.9,0.6,1.8,0.6,2.7c0,2.6-1.4,5-3.2,5
				c-2.9,0-6.8-8.7-6.8-15.8c0-4.5,0.9-8.9,2-13.9c0.7-3.2,2.8-11.7,2.8-17.5c0-2.7-0.5-4.9-1.8-5.5c-0.7-0.3-1.4-0.8-1.4-1.5
				c0-0.9,1.9-1.8,2.7-1.8c1.8,0,5.5,1.6,5.5,8.1c0,2.8-0.2,3.6-3.6,17C380.9,27.7,380.8,28.3,380.8,28.6z"/>
			<path class="st0" d="M464.3,59.2c-1.5,3.4-4.4,5.1-6.4,5.1c-1.3,0-2.2-0.7-2.2-2.3c0-1.2,0.5-2.9,2-5.1
				c5.2-7.5,14.3-21.2,18-31.1c0.1-0.4,0.4-0.8,0.5-1.2c-3.2,0.8-5.4,0.9-6.5,0.9c-9.7,0-12.6-7.4-12.6-9.4c0-0.4,0.2-0.5,0.4-0.5
				c0.5,0,1.4,0.6,1.9,0.9c2.5,1.7,6.5,3.4,10.5,3.4c0.3,0,3.3,0,7.5-1.1c0.2-1.6,0.3-3.3,0.3-4.7c0-6.5-1.6-6.6-2.5-6.6
				c-1.6,0-2.5-0.3-2.5-1c0-0.5,1.2-3.1,4.1-3.1c0.5,0,6,0.1,6.3,7c7.6,1.4,8.5,1.7,8.5,3.7c0,2.8-5,7-11.3,9.2
				C479.2,26,478,29.1,464.3,59.2z M482.4,88c-7.8,0-13.3-6.2-13.3-11c0-6,7.6-9.6,17.8-9.6c2.5,0,5,0.2,7.4,0.7
				c0-4.3-0.5-8.9-0.5-12.7c0-8.7,2.1-13.7,9.7-18.6c3.4-2.2,6.2-4.6,6.2-6.9c0-1.1,0-1.3-2.8-4.2c-0.8-0.8-1.4-1.4-1.4-1.7
				s0.4-0.4,1.3-0.4c6.2,0,12.5,5.3,12.5,9.9c0,1.5-1,5.5-4.1,5.5c-0.8,0-1.7-0.2-2.7-0.4c-0.3-0.1-0.7-0.1-1.3-0.1
				c-3.2,0-13.9,1-13.9,11c0,1.6,0.2,3.6,0.4,5.8c0.3,4.2,1.3,9.7,1.5,14.2c8.4,3,15,8,15,12.6c0,2.1-1.3,3.9-2.9,3.9
				c-1.1,0-2.3-0.8-3.5-2.8c-1.7-3.2-4.9-6.1-8.8-8.3C497.4,82.3,489.9,88,482.4,88z M484,70.8c-7.4,0-12,2.9-12,5.9
				c0,3.7,5.2,5.4,9.2,5.4c6.3,0,11.8-3.9,12.7-9.5C490.8,71.5,487.3,70.8,484,70.8z M482.2,17c1.1-0.6,2.1-1.1,2.8-1.8
				c0.4-0.3,0.7-0.9,0.7-1.5c0-1.3-1.6-2-2.7-2.4C483,12.9,482.7,14.8,482.2,17z"/>
			<path class="st0" d="M598.1,67.5c-0.5,0.1-0.9,0.1-1.3,0.1c-2.2,0-4-1.2-4.9-2.6c-2.1-3.4-4.2-6.8-4.2-12.1
				c0-6.5,4.4-9.7,9.3-9.7c1.7,0,3.6,0.4,5.3,1.2c0-4.1-0.1-9.7-0.2-15.9c-9.4,0.9-18.5,3.2-26.1,6.3c-1.9,0.8-4.4,1.4-6.9,1.4
				c-5.5,0-11.3-3.5-11.3-7.9c0-1,0.4-1.4,1-1.4c0.5,0,1.3,0.4,2.1,1.2s3.2,1.2,6.2,1.2c1.6,0,3.4-0.1,5-0.3c10.3-1.3,20-2.8,30-3.9
				c0-3.3-0.1-6.7-0.1-10.2c0-4.8-1.6-5.8-4-7.3c-0.6-0.4-0.8-0.6-0.8-1c0-0.7,1.1-2.1,4.1-2.1c1.5,0,7.3,0.5,7.3,7.6
				c0,1.1-0.2,2.2-0.4,3.6c-0.6,3.2-1,6.2-1.3,9c4.2-0.3,8.3-0.6,12.7-0.7c1.1,0,1.6-0.3,1.6-0.6c0-0.1-0.2-0.3-0.4-0.4
				c0,0-8.3-5.8-8.3-6.5c0-0.1,0.1-0.1,0.3-0.1c0.6,0,2,0.5,2.8,1c4.8,2.4,9.9,4.5,13.6,5.1c10.7,1.5,11.5,5.3,11.5,6.5
				c0,1.5-1.2,2.6-3.4,2.6c-0.8,0-1.6-0.1-2.6-0.4c-7-2.1-14.9-3.2-23.1-3.2c-1.6,0-3.4,0-5.1,0.1c-0.2,3.3-0.3,6.3-0.3,9
				c0,4.2,0.2,7.7,0.3,10.2c3.5,3.7,3.8,7.2,3.8,10.6c0,19.2-20.8,31.9-28,31.9c-0.5,0-0.7-0.1-0.7-0.3c0-0.3,0.8-1,2.6-1.7
				c5-2,16.1-11.3,19-23.8C601.9,65.9,600.2,67,598.1,67.5z M595.6,45.7c-2.5,0-4.8,1.8-4.8,5.5c0,1.5,1.1,9.9,7.2,9.9
				c4.1,0,4.8-4.5,4.8-7.4c0-1-0.1-2-0.3-3.1C600.2,45.9,596.5,45.7,595.6,45.7z"/>
			<path class="st0" d="M687.5,87.5c-3-5.7-8.1-9.9-12.3-12.8c-1-0.8-2-1.4-2-1.7c0-0.1,0.2-0.2,0.7-0.2c4.2,0,22,4.1,22,12.9
				c0,2.7-2,4.9-4.3,4.9C690.1,90.6,688.6,89.7,687.5,87.5z"/>
			<path class="st0" d="M817,42.2c0.7,0.2,1,0.5,1,0.8c0,0.4-0.4,0.8-1.2,1.2c-1.9,0.9-1.7,0.7-1.9,3.7c0,0.3,0,2.4,0,5.2
				c0,6.8,0,17.8,0.1,18.5c0.1,1.7,0.3,3.8,0.3,5.9c0,10.3-9.6,13.2-13.2,13.2c-1,0-1.3-0.7-2.1-1.5c-2.2-2-13-6.1-13-6.9
				c0-0.1,0.1-0.1,0.4-0.1c0.3,0,0.7,0,1.2,0.1c4.7,0.7,8.3,1.1,11.2,1.1c7.3,0,9-2.4,9.1-6.4c0.1-1.3,0.1-8.2,0.1-15.1
				c0-11.9-0.1-17.3-0.3-19.6h-31.5c-5.5,0-20.3,0.2-29.3,1.1h-0.1c-1.8,0-4.6-4.1-4.6-5.4c10.3,1.2,28.7,1.6,34.4,1.6h40.1
				c0.6,0,1.3-0.4,1.6-0.9c0,0,4-6.1,5.7-6.1c0.3,0,0.5,0.1,0.7,0.1c3.4,1.2,8.6,6.4,8.6,8.2c0,0.6-0.4,1.3-2.1,1.3H817z M790.7,16
				c-0.4,1.4-1,2.7-1.6,4c7.6,1.3,26.4,5.1,26.4,13.4c0,1.8-1.2,3.3-2.9,3.3c-1.4,0-3.3-1-5.1-3.4c-4.1-5.3-11.3-8.7-19.1-11.8
				c-8.9,15.5-33.2,15.7-34.7,15.7c-1.2,0-1.7-0.1-1.7-0.3c0-0.4,0.9-0.7,2-0.9c17.3-2.6,27.3-10.4,30.5-19.9c-6,0-17.2,0.2-25.5,1
				h-0.1c-1.8,0-4.6-3.9-4.6-5.2c9.8,1.2,24.5,1.6,30.9,1.6c0.2-1.2,0.4-2.4,0.4-3.7s0.1-2.3,0.1-3.6c0-1.8-0.1-3.7-0.5-5.6
				c0-0.1,0-0.2,0-0.3c0-0.2,0-0.3,0.2-0.3c0.4,0,10.4,0.7,10.4,2.9c0,0.7-0.6,1.5-2,2.1c-1.6,0.7-1.5,0.9-2,5.4
				c-0.1,1-0.2,2-0.4,2.9H807c0.7,0,1.3-0.4,1.6-0.9c0.5-0.8,4.3-6.4,5.8-6.4c0.3,0,0.5,0.1,0.7,0.1c3.5,1.2,9,7.1,9,8.5
				c0,0.6-0.5,1.2-2.2,1.2H790.7z M794.2,72.3c0,1.7-2.1,2.7-4,2.7c-1.3,0-2.5-0.6-2.5-1.9l0.1-3.2H769v5.8c0,2.1-2,3.4-3.8,3.4
				c-1.4,0-2.7-0.8-2.7-2.5c0-0.2,0-0.3,0-0.4c0.4-4.7,0.6-16.1,0.6-19.5c0-1.3-0.1-4.8-0.8-8c-0.1-0.3-0.1-0.5-0.1-0.6
				c0-0.2,0.1-0.2,0.2-0.2c0.9,0,6.7,2.4,8.9,4.1l0.1,0.1h14c0.5,0,1-0.1,1.4-0.6c0.9-1.3,1.9-2.5,2.9-2.5c1,0,7.6,3.3,7.6,5.5
				c0,0.9-1.2,1.5-2.1,2.1c-1.6,0.9-1.8,1.1-1.8,3.9c0,2.8,0.5,8.4,0.7,11.9V72.3z M770.8,54.7l-0.3,0.2c-1.2,0.8-1.6,1.1-1.6,3.3
				c0,1.2,0.1,5.3,0.1,9.2h18.8c0-4.6,0-9.5-0.1-11.7c0-0.3-0.3-1-1-1H770.8z"/>
			<path class="st0" d="M888.9,52.8c0,7.7,0.1,16.2,0.1,21.4c5.7-1.9,10.8-3.9,14.6-5.4c0.4-0.2,0.7-0.2,1-0.2
				c0.2,0,0.4,0.1,0.4,0.3c0,2.1-23.3,12.7-34.4,17c-0.8,0.3-1.2,1.3-1.8,1.3c-1.3,0-4.8-7.4-4.8-7.6c0,0,0-0.1,0.7-0.1
				c0.4,0,0.9,0,1.3,0c2.1,0,4.5-0.2,5.6-0.4l0.6-0.2c0.1-8,0.1-14.9,0.1-23.3c0-4.2-0.5-8.1-1-10.8c-0.1-0.2-0.1-0.4-0.1-0.5
				c0-0.2,0.1-0.3,0.3-0.3s9.8,1.2,9.8,3.6c0,0.8-1.1,1.8-2.4,2.4c-1.3,0.5-1.3,0.5-1.3,27.5c2-0.5,4.1-1,6-1.6
				c0.1-10.2,0.1-29.5,0.1-38.2c0-3.7,0-5.6-0.2-7.7h-5.3v4c0,1.8-1.9,2.9-3.6,2.9c-1.3,0-2.5-0.7-2.5-2.3c0-0.1,0-0.2,0-0.3
				c0.5-6.3,0.6-10.2,0.6-13.5c0-8.5-0.5-14.6-1.1-17.9c0-0.3-0.1-0.5-0.1-0.6c0-0.2,0.1-0.3,0.2-0.3c0.4,0,6.7,2.9,8.5,4.4l0.2,0.1
				h10.5c0.4,0,1-0.3,1.3-0.8c0.6-1,1.6-2.4,2.4-2.4c1.5,0,7.4,3.7,7.4,5.6c0,1-1,1.5-1.9,2.1c-1.4,0.9-1.7,0.6-1.8,3.1
				c0,0.7-0.1,1.5-0.1,2.4c0,4.1,0.4,9.5,0.7,15.2c0,0.1,0,0.1,0,0.2c0,2-1.8,3.3-3.5,3.3c-1.3,0-2.5-0.8-2.5-2.7V30H891
				c0.1,0.1,0.2,0.3,0.2,0.6c0,0.4-0.2,0.8-1,1.2c-1.3,0.7-1.3,0.9-1.3,18.5h1.9c0.5,0,0.7-0.4,1-0.9c0.9-1.7,3-4.5,3.8-4.5
				c0.2,0,0.4,0,0.5,0.1c2.8,1.5,6.5,4.7,6.5,6.6c0,0.6-0.4,1.1-1.8,1.1H888.9z M893.1,27.4c0.1-3.7,0.1-6.7,0.1-9.5s0-5.3-0.2-7.7
				c0-0.3-0.1-1.1-1.2-1.1h-11.5c-0.1,0.1-0.2,0.3-0.4,0.4c-1.4,1.1-1.6,0.5-1.7,4c-0.1,2-0.1,4-0.1,5.9c0,2.6,0,5.3,0.1,8H893.1z
				 M938.5,22.7c0.6,0.2,0.9,0.5,0.9,0.9c0,0.4-0.4,0.8-1.1,1.1c-1.8,0.8-1.7,0.7-1.8,3.9c-0.2,4-0.2,14-0.2,23.6
				c0,7.9,0,15.5,0.1,19.1c0,1.7,0.3,4.7,0.3,6.8c0,8.2-7.8,10.8-10.8,10.8c-0.9,0-1.2-0.5-1.8-1.4c-1.2-1.9-10.6-6.1-10.6-6.8
				c0-0.1,0.1-0.2,0.4-0.2c0.2,0,0.6,0.1,1.2,0.2c3.9,0.7,7,1.1,9.3,1.1c4.1,0,6-1.2,6.1-4.1c0.2-4.1,0.2-12.1,0.2-20.5
				c0-11.6-0.1-24-0.2-28.3c0-1.8-0.1-4.2-0.4-6.2h-4.6c0.5,0.2,0.8,0.5,0.8,0.9c0,0.4-0.5,1-1.1,1.3c-1.1,0.6-1.7,0.5-1.7,4.1
				c0,0.3,0,0.6,0,0.9c0,1.4,0.1,2.9,0.1,4.4c0,27.5-8.6,47.8-31.8,55c-1.4,0.4-2.3,0.6-2.8,0.6c-0.4,0-0.5-0.1-0.5-0.2
				c0-0.3,0.9-1,2.3-1.6c20.7-9.4,27-29.1,27-52.2c0-6.7-0.6-12.8-0.6-13.1c-3.3,0.1-7,0.3-12,0.8h-0.1c-1.7,0-4-3.8-4-4.9
				c9.6,1.1,17.3,1.4,22.7,1.4h0.6v-5.9c0-3.9-0.2-9.4-0.9-12.4c-0.1-0.4-0.2-0.6-0.2-0.7l0.1-0.1c2.1,0,11.2,1.8,11.2,3.8
				c0,0.7-0.7,1.4-1.8,2.1c-2.4,1.5-2.1,1.1-2.4,4.7c-0.1,1.2-0.2,5.8-0.2,8.5h13c0.3,0,1-0.5,1.3-1c0.2-0.3,3-5.2,4.5-5.2
				c1.4,0,8.2,5,8.2,7.4c0,0.6-0.4,1.3-2.1,1.3H938.5z M908.4,36.3c0.5,0,8.6,2.4,8.6,4.5c0,0.7-0.6,1.4-2.4,1.8
				c-1.2,0.3-1.2,0.4-2,1.9c-7.5,15.1-16.9,22.9-18.3,22.9c-0.1,0-0.1-0.1-0.1-0.2c0-0.2,0.3-0.8,1-1.6c3.4-3.9,12.4-20,12.9-28.2
				C908.1,36.3,908.3,36.3,908.4,36.3z M950.1,57.5c-1.8-5.7-7.6-13.5-12.2-18.8c-0.3-0.3-0.4-0.6-0.4-0.7c0-0.1,0.1-0.1,0.2-0.1
				c1,0,19.7,10.7,19.7,20c0,2.5-1.4,4.4-3,4.4C952.8,62.3,951.2,60.9,950.1,57.5z"/>
			<path class="st0" d="M1032.3,31.1c0,22.3-17.8,44.9-26.5,44.9c-5,0-6.8-6.8-11-12.8c-1.6-2.2-2.4-5.5-2.4-9.2
				c0-15.5,13.5-39.9,41-39.9c23.1,0,35,16,35,32.5c0,30.9-35.4,39.6-43.7,39.6c-0.9,0-1.4-0.2-1.4-0.4c0-0.5,1.6-1.3,4.6-2.1
				c26.7-7.2,34-24.9,34-37.5c0-15-10.4-28.8-29.7-28.8c-1.2,0-2.4,0.1-3.7,0.2C1030.9,19.4,1032.3,24.6,1032.3,31.1z M1028.7,27.4
				c0-7.3-1.7-9-4-9c-0.3,0-0.6,0-1,0.1c-0.3,0.1-0.6,0.1-0.8,0.1c-15.7,4.5-25.5,19.7-25.5,33c0,8.9,4.5,15.8,9.4,15.8
				C1013.6,67.4,1028.7,46.1,1028.7,27.4z"/>
			<path class="st0" d="M1176.8,24.2c0.2,0.2,0.2,0.3,0.2,0.5c0,0.5-0.8,1-1.7,1.4c-1.2,0.5-1.3,1.2-1.6,4
				c-6.5,51.4-40.9,57.4-41.7,57.4c-0.3,0-0.4,0-0.4-0.1c0-0.4,1.1-1.2,2.3-1.7c28.3-12.2,33.8-50.3,33.8-61.5h-4.8
				c0.1,0.1,0.2,0.3,0.2,0.4c0,0.5-0.8,1-1.7,1.4c-1.1,0.5-1,0.7-1.7,3.4c-8.1,30.5-27.5,39.1-28.5,39.1c-0.1,0-0.1-0.1-0.1-0.1
				c0-0.3,0.8-1.2,1.8-2.1c15.9-14,21.1-36.5,21.6-42.1h-7.9c-5.4,10.3-13.1,19.6-14.4,19.6c-0.1,0-0.2,0-0.2-0.2
				c0-0.2,0.2-0.6,0.7-1.3c2.6-3.9,5-8.2,7-12.8c-0.2,0-0.5,0.1-0.8,0.1H1128c-0.1,6-0.1,12.6-0.1,19.2c4.7-1.6,9.1-3.5,12.9-5
				c1.1-0.4,1.9-0.7,2.3-0.7c0.2,0,0.3,0.1,0.3,0.2c0,0.5-4.1,3.3-15.6,9.3c0,13.2,0.2,26.1,0.5,33.6c0.1,2.5-2.5,3.9-4.2,3.9
				c-1.5,0-2.9-0.9-2.9-3.2c0-0.1,0-0.2,0-0.3c0.5-8.1,0.8-19.5,1-31.1c-4,2-8.1,4.1-12.4,6.1c-0.9,0.4-1.2,1.4-1.8,1.4
				c-1.2,0-6.1-7.3-6.1-7.8c0-0.1,0.2-0.1,0.7-0.1c5.8-0.2,9.9-1.1,19.6-4.5c0.1-7.4,0.1-14.7,0.1-21.1h-8.5
				c-4.3,13.8-8.2,19.4-8.7,19.4c-0.1,0-0.2-0.1-0.2-0.3c0-0.3,0.1-0.8,0.3-1.4c4-12.3,5.2-29.7,5.2-32.7c0-1.2,0-2.3-0.1-3.2
				c0-0.4-0.1-0.7-0.1-0.9c0-0.1,0.1-0.2,0.2-0.2c1.1,0,10.9,2.4,10.9,4.9c0,0.7-0.9,1.5-2.6,2c-1.4,0.4-1.7,0.9-2,2.2
				c-0.6,2.6-1.3,5.2-2,7.6h7.8c0-12.2-0.7-23.6-1.2-26.1c-0.1-0.3-0.1-0.5-0.1-0.7c0-0.1,0-0.1,0.1-0.1c0.3,0,11.4,1.2,11.4,3.8
				c0,0.6-0.6,1.3-1.6,2c-2.1,1.4-2.3,0.5-2.5,4.9c-0.2,3.9-0.3,9.6-0.4,16.3h0.5c0.3,0,1.1-0.3,1.4-0.8c3-4.8,3.3-5,4-5
				c1.3,0,4.9,3.3,6.4,6.1l0.1,0.2c2.7-6.5,7.6-19.8,7.6-26.1c0-1.1,0.1-1.1,0.2-1.1c1.3,0,10.5,2.2,10.5,4.7c0,0.9-0.9,1.7-2.8,2.2
				c-1.5,0.4-1.9,0.8-2.4,2.1c-1.7,4.2-3.6,8.2-5.5,12.1h31.2c1.1,0,1.4-0.4,1.7-0.8c2.2-2.7,2.7-2.7,2.8-2.7c1,0,7.8,4.1,7.8,6.2
				c0,0.8-0.7,1.6-2.3,2.4c-2.4,1.2-2.4,1.5-2.4,4.3c-0.1,11.9-0.4,24.6-1.5,33.2c-2.3,17.8-10.8,23.6-19.7,24.3
				c-0.5,0-1.1-0.1-1.3-0.8c-0.9-2.8-12.5-7.7-12.5-8.5c0,0,0.1-0.1,0.3-0.1c0.2,0,0.5,0.1,1,0.2c4.8,1,8.8,1.8,12.2,1.8
				c7.1,0,11.6-3.7,13.8-17.4c1.5-9,1.5-29.3,1.7-37.8c0-1.4-0.8-1.5-1.5-1.5H1176.8z"/>
			<path class="st0" d="M1244.4,22.4c-4.1,0-10.1,0.1-16.4,0.9h-0.1c-1.2,0-4.2-3.8-4.2-4.9c7.6,1.1,16.7,1.4,20.8,1.4h4
				c0.3,0,0.9-0.3,1.2-0.8c1-1.7,2.6-4,3.6-5c0.2-0.2,0.5-0.3,0.7-0.3c1.8,0,8.1,5.7,8.1,7.6c0,0.6-0.4,1-1.9,1H1244.4z
				 M1250.8,85.7v-2.3h-14.6l0.1,4.5c0,1.8-2,3.1-3.9,3.1c-1.3,0-2.5-0.7-2.5-2.3c0-0.2,0-0.3,0-0.4c0.6-7.6,0.7-12.2,0.7-16.3
				c0-4.7-0.1-10.9-1.2-16.1c0-0.3-0.1-0.4-0.1-0.6c0-0.2,0.1-0.2,0.2-0.2c0.9,0,6.8,2.4,9,4.1l0.1,0.1h10.1c0.5,0,1-0.3,1.3-0.8
				c0.4-0.6,1.8-2.7,2.8-2.7c1.6,0,7.7,3.7,7.7,5.6c0,1.1-1.2,1.8-2.1,2.4c-1.8,1.1-1.8,1.9-1.8,5.6c0,4,0.3,9.6,0.7,15.8
				c0.1,2.3-2.2,3.5-3.8,3.5c-1.4,0-2.7-0.8-2.7-2.6V85.7z M1244.4,8.2c-3,0-6.1,0.2-10.9,0.9h-0.1c-1.4,0-3.9-3.4-3.9-4.9
				c5.9,1.1,11.9,1.4,15,1.4h1.3c0.2,0,0.8-0.3,1.1-0.8c0.7-1.2,2.9-4.9,4.1-4.9c0.2,0,0.4,0,0.5,0.1c3.2,1.4,6.6,5.2,6.6,6.8
				c0,0.7-0.4,1.3-1.8,1.3H1244.4z M1244.4,35.1c-3,0-6.2,0.1-10.9,0.9h-0.1c-1.2,0-3.9-3.2-3.9-4.9c5.9,1.1,11.9,1.4,15,1.4h1.6
				c0.2,0,0.8-0.3,1.1-0.8c0.1-0.2,2.4-4.6,4-4.6c0.2,0,0.4,0,0.5,0.1c2.2,1,6.4,4.6,6.4,6.5c0,0.6-0.4,1.3-1.8,1.3H1244.4z
				 M1244.4,48.5c-3,0-6.2,0.1-10.9,0.9h-0.1c-1.2,0-3.9-3.4-3.9-4.9c5.9,1.1,11.9,1.4,15,1.4h1.6c0.2,0,0.8-0.3,1.1-0.8
				c0.4-0.8,2.7-4.6,4-4.6c0.2,0,0.4,0,0.5,0.1c2.6,1.2,6.4,4.6,6.4,6.5c0,0.7-0.4,1.3-1.8,1.3H1244.4z M1250.9,80.7
				c0.1-3.8,0.1-6.9,0.1-9.8c0-2.8,0-5.4-0.2-7.9c0-0.3-0.2-1.1-0.8-1.1h-11.7c-0.2,0.2-0.4,0.3-0.7,0.5c-1,0.7-1.3,1.3-1.3,3.4
				c-0.1,2.8-0.2,5.8-0.2,8.7c0,2,0.1,4.2,0.1,6.2H1250.9z M1282.9,46.7c-5.4,0-10,0.1-18.7,0.9h-0.1c-1.7,0-4.7-4.1-4.7-5.2
				c6.5,0.8,12.3,1.2,17.1,1.5c1.1-4.6,2.3-11.2,3.5-17.4c-2.7,0.1-6.1,0.2-10.3,0.8c0,0-0.1,0-0.2,0c-1.8,0-4.6-3.4-4.6-4.6
				c7.4,1,12.1,1.2,15.5,1.2c0.3-1.4,1.9-11,1.9-13.9c-4,0-8.1,0.2-14.7,0.9h-0.1c-1.7,0-4-3.8-4-4.9c9.6,1.1,16.9,1.4,22.3,1.4
				h12.1c0.3,0,1-0.3,1.3-0.8c0.8-1.4,3.3-4.9,4.5-4.9c1.2,0,8.2,4.3,8.2,6.9c0,0.6-0.4,1.3-2.1,1.3h-19.2c0.3,0.2,0.5,0.4,0.5,0.8
				c0,0.4-0.4,0.9-1.3,1.3c-0.9,0.4-1.4,0-2.2,4.6c-0.3,2-0.7,4.6-1.2,7.2h8.9c0.5,0,0.9-0.1,1.3-0.6c0.8-1.2,1.9-2.7,2.7-2.7
				c1.6,0,7.9,3.3,7.9,5.4c0,1-1.2,1.6-2.3,2.2c-1.8,1-1.6,1-1.8,3.5c-0.1,1.1-0.1,2.3-0.1,12.4h2.3c0.2,0,0.8-0.3,1.1-0.8
				c0.8-1.5,3-5.1,4.2-5.1c0.2,0,0.4,0,0.5,0.1c3,1.3,6.9,5.3,6.9,6.9c0,0.7-0.4,1.4-1.9,1.4H1282.9z M1299.4,87.4l0.1-4.2H1277
				c0,1.3,0.1,2.7,0.1,4.4c0.1,2.2-2.3,3.3-3.9,3.3c-1.5,0-2.8-0.8-2.8-2.6c0-0.1,0-0.2,0-0.3c0.6-8.9,0.7-12.6,0.7-15.6
				c0-5.6-0.3-12.9-1.2-17.4c-0.1-0.3-0.1-0.5-0.1-0.6c0-0.2,0-0.3,0.2-0.3c0.1,0,6.9,2.5,9.5,4.4l0.1,0.1h17.6
				c0.5,0,1.1-0.3,1.4-0.8c0.2-0.3,1.8-2.8,3.2-2.8c0.6,0,8,3.6,8,5.8c0,1.1-1.3,1.8-2.3,2.4c-2,1.2-2,2-2,7.5
				c0,4.3,0.3,8.5,0.8,16.1c0.1,1.9-1.7,3.8-3.9,3.8c-1.5,0-3-0.9-3-2.9V87.4z M1279.5,61.3c-0.2,0.2-0.4,0.3-0.7,0.5
				c-1.5,1.1-1.6,0.8-1.7,3.9c-0.1,3.2-0.1,5.4-0.1,7.4c0,2.6,0,4.8,0.1,7.5h22.5c0.1-4.3,0.1-7.5,0.1-10.4c0-2.8,0-5.3-0.2-7.7
				c0-0.3-0.2-1.2-1.4-1.2H1279.5z M1297.2,44.1c0.1-4.9,0.2-13.7,0.2-16.5c0-0.3-0.3-1.1-1.2-1.1h-10.4c-1.2,6.3-2.5,13-3.4,17.6
				H1297.2z"/>
		</g>
		<path class="st0" d="M293.1,149.6c-0.7-5.5-0.4-11.2,1.5-16.6c1.7-5.4,5.3-10,9.5-13.7c8.6-7.3,19.4-11.1,29.8-14.4
			c10.5-3.3,21.3-5.8,31.6-9.4c5.1-1.8,10.3-3.8,14.8-6.6c4.5-2.8,8.8-6.5,11.8-10.5l2.5,1.7c-3.7,4.7-8,8.2-12.9,11.2
			c-4.9,3-10.2,4.9-15.4,6.7c-10.6,3.4-21.3,5.8-31.8,8.9c-10.4,3.1-21,6.8-29.5,13.7c-4.1,3.5-7.6,7.8-9.3,13
			c-1.8,5.1-2.2,10.6-1.6,16L293.1,149.6z"/>
	</g>
</g>
</svg>
